<svg xmlns="http://www.w3.org/2000/svg" width="795.286" height="534.192" viewBox="0 0 795.286 534.192">
  <g id="Gruppe_2817" data-name="Gruppe 2817" transform="translate(-140 -3626)">
    <g id="Gruppe_2763" data-name="Gruppe 2763" transform="translate(0 288)">
      <g id="Gruppe_2743" data-name="Gruppe 2743" transform="translate(140.143 3338)">
        <rect id="Rechteck_45" data-name="Rechteck 45" width="795.286" height="534.192" transform="translate(-0.143)" fill="#ededed"/>
      </g>
    </g>
    <g id="Gruppe_2771" data-name="Gruppe 2771" transform="translate(-62.186 3499.692)">
      <g id="Gruppe_2770" data-name="Gruppe 2770" transform="translate(496.583 289.705)">
        <g id="Gruppe_2818" data-name="Gruppe 2818">
          <g id="Gruppe_2769" data-name="Gruppe 2769" transform="translate(14.672 15.892)">
            <g id="Gruppe_2768" data-name="Gruppe 2768">
              <g id="Gruppe_2766" data-name="Gruppe 2766" transform="translate(0 82.162)">
                <g id="Gruppe_2765" data-name="Gruppe 2765">
                  <path id="Pfad_3190" data-name="Pfad 3190" d="M509.953,385.112a17.836,17.836,0,0,0,8.057-3.547l-7.991-.444.032-2,9.645.629a5.118,5.118,0,0,0,.5-.9l2.23.037c-.78,2.968-3.885,5.321-6.778,6.3l6.5.107-.032,2.022-12.2-.2Z" transform="translate(-509.92 -378.839)"/>
                  <path id="Pfad_3191" data-name="Pfad 3191" d="M510.928,396.916l3.151-1.223-1.674-3.674-2.1-.255-.244-2.005,10.5,1.357-.22-1.815,1.92-.232.923,7.607-1.919.233-.224-1.85-9.865,3.863Zm10-3.9-6.3-.745,1.257,2.707Z" transform="translate(-509.906 -377.816)"/>
                  <path id="Pfad_3192" data-name="Pfad 3192" d="M512.432,405.033c-.762-2.968,1.25-4.869,4.977-5.826,3.847-.988,6.411-.243,7.178,2.742a4.561,4.561,0,0,1-.511,3.89,3.886,3.886,0,0,0-2.658-.126l-.507-1.975a3.254,3.254,0,0,1,1.77.031,2.447,2.447,0,0,0-.076-1.348c-.411-1.6-1.907-1.829-4.624-1.132-2.531.65-4,1.585-3.566,3.272a1.683,1.683,0,0,0,2.251,1.345,2.85,2.85,0,0,0,1.2-.649l.3,2.064a4.054,4.054,0,0,1-1.307.587C514.915,408.406,513.064,407.5,512.432,405.033Z" transform="translate(-509.685 -376.842)"/>
                  <path id="Pfad_3193" data-name="Pfad 3193" d="M516.813,417.115l5-2.04-2.228-1.312.635-2.365L515.3,413.4l-.789-1.936,11.291-4.6.79,1.935L522.4,410.51l-.661,2.4,2.238,1.288,4.13-1.684.79,1.936-11.291,4.6Z" transform="translate(-509.46 -376.035)"/>
                  <path id="Pfad_3194" data-name="Pfad 3194" d="M522.118,427.282l5.27-3.074-3.631-2.524-3.658,2.133-1.054-1.806,10.54-6.145,1.054,1.806-4.984,2.906,3.616,2.532,3.387-1.976,1.054,1.806-10.54,6.145Z" transform="translate(-509.007 -375.134)"/>
                  <path id="Pfad_3195" data-name="Pfad 3195" d="M529.13,437l2.059-2.683-3.342-2.273-1.927.875-1.251-1.588,9.685-4.294-1.133-1.438,1.521-1.2,4.741,6.026-1.52,1.2-1.153-1.465-6.43,8.429Zm6.529-8.529-5.775,2.637,2.483,1.661Z" transform="translate(-508.444 -374.28)"/>
                  <path id="Pfad_3196" data-name="Pfad 3196" d="M532.118,440.5l8.53-8.719,1.494,1.463-7.177,7.335,2.242,2.194,1.6-1.631,1.47,1.438-2.949,3.015Z" transform="translate(-507.699 -373.542)"/>
                  <path id="Pfad_3197" data-name="Pfad 3197" d="M548.4,441.5l-5.105,6.537.96.75-1.19,1.525-3.57-2.789,1.19-1.525.961.751,5.105-6.537-2.637-2.059,1.213-1.551,6.919,5.406-1.212,1.551Z" transform="translate(-506.961 -373.059)"/>
                  <path id="Pfad_3198" data-name="Pfad 3198" d="M546.449,452.6l.993-1.6,1.065.661,4.452-7.158-1.065-.661.994-1.6,3.845,2.392-.994,1.6-1.064-.662-4.452,7.157,1.065.663-.995,1.6Z" transform="translate(-506.265 -372.495)"/>
                  <path id="Pfad_3199" data-name="Pfad 3199" d="M562.7,452.183l-1.838-.881a3.726,3.726,0,0,1,1.112-1.515,2.711,2.711,0,0,0-1.318-1.038c-1.572-.755-2.745.442-3.874,2.8s-1.375,4.075.384,4.918a4.676,4.676,0,0,0,1.958.552l.942-1.964-2.06-.176.851-1.776,4.028.464-2.719,5.672a9.913,9.913,0,0,1-3.944-.965c-2.907-1.395-3.069-4.158-1.4-7.631s3.971-5.053,6.737-3.726a4.779,4.779,0,0,1,2.953,3.31A3.439,3.439,0,0,0,562.7,452.183Z" transform="translate(-505.534 -372.074)"/>
                  <path id="Pfad_3200" data-name="Pfad 3200" d="M578.914,465.155l-.327-1.016a4.071,4.071,0,0,1-3.153.57,3.309,3.309,0,0,1-2.8-4.112,3.747,3.747,0,0,1,3.72-3.267l-1.744-5.353,7.01,1.29-.341,1.851-3.753-.691,1.78,5.732c.274-.624.55-1.353.848-2.2l1.9.35a17.229,17.229,0,0,1-1.991,4.276l.927,2.953Zm-1.972-6.034a2.1,2.1,0,0,0-2.222,1.771,1.544,1.544,0,0,0,1.243,1.912,2.137,2.137,0,0,0,2.023-.5Z" transform="translate(-503.653 -371.521)"/>
                  <path id="Pfad_3201" data-name="Pfad 3201" d="M595.229,455.731l.274,3.874,2.921-1.673.153,2.189-2.915,1.725.287,4.065-2.086.147-.857-12.161,7.105-.5.14,1.981Z" transform="translate(-501.606 -371.379)"/>
                  <path id="Pfad_3202" data-name="Pfad 3202" d="M609.674,464.045l-1.181-2.487-1.616,1.811-2.185-1.081-.115,2.758-1.984.389.589-10.577-1.8.352-.372-1.9,7.526-1.476.373,1.9-1.831.359,4.577,9.565Zm-4.622-9.7-.271,5.951,1.692.84,1.178-1.333Z" transform="translate(-500.805 -371.536)"/>
                  <path id="Pfad_3203" data-name="Pfad 3203" d="M613.817,462.918l-.571-1.793,1.2-.381-2.56-8.035-1.195.381-.572-1.792,4.317-1.375.571,1.792-1.195.381,2.559,8.036,1.2-.382.57,1.793Z" transform="translate(-499.894 -371.727)"/>
                  <path id="Pfad_3204" data-name="Pfad 3204" d="M626.688,458.06l-1.046-1.229c-1.573-1.854-2.527-2.362-4.13-1.892l-.711-1.59c1.74-1.142,2.625-2.32,2.083-3.528-.3-.669-.845-.824-2.086-.268l-1.955.876L623,459.711l-1.908.854-4.982-11.127,3.943-1.764c2.21-.989,3.906-.737,4.768,1.186.712,1.59.086,3.091-1.191,4.33,1.435.008,2.434.877,3.74,2.429l1.306,1.553Z" transform="translate(-499.294 -372.008)"/>
                  <path id="Pfad_3205" data-name="Pfad 3205" d="M632.378,444.976l-1.736,1.066a3.342,3.342,0,0,1-.509-1.527,2.944,2.944,0,0,0-1.359.549c-1.217.748-1.249,1.992-.312,3.85l2.269-1.395.986,1.6-2.285,1.4c1.269,1.836,2.484,2.581,3.774,1.789a1.612,1.612,0,0,0,.7-2.416,3.4,3.4,0,0,0-.931-.981l1.884-.892a3.914,3.914,0,0,1,.856,1.029c1.021,1.662.682,3.669-1.485,5-2.612,1.6-5.022.243-7.036-3.036-2.077-3.383-2.079-6.079.547-7.693a5.261,5.261,0,0,1,4.06-.777A3.425,3.425,0,0,0,632.378,444.976Z" transform="translate(-498.335 -372.477)"/>
                  <path id="Pfad_3206" data-name="Pfad 3206" d="M644.587,446.4l-1.33-.916c-2-1.383-3.052-1.627-4.478-.757l-1.1-1.352c1.385-1.554,1.934-2.922,1.1-3.949-.461-.566-1.031-.575-2.085.282l-1.662,1.352,6.421,7.891-1.621,1.321-7.7-9.459,3.352-2.727c1.878-1.528,3.582-1.725,4.912-.09,1.1,1.352.884,2.965-.028,4.493,1.387-.365,2.579.216,4.241,1.377l1.664,1.162Z" transform="translate(-497.691 -373.035)"/>
                  <path id="Pfad_3207" data-name="Pfad 3207" d="M659.034,430.347l-6.727-1.374.418,2.129,3.789,2.735-1.224,1.7-9.894-7.144,1.225-1.7,3.914,2.828-.993-5a3.134,3.134,0,0,1,.7-3l1.483,1.073c-.367.508-.481.964-.242,2.211l.366,1.876,8.54,1.782Z" transform="translate(-496.364 -374.568)"/>
                  <path id="Pfad_3208" data-name="Pfad 3208" d="M664.719,420.486l-3.285-.8-.734,3.971,1.577,1.412-.95,1.783L653.5,419.72l-.86,1.614-1.707-.909,3.606-6.765,1.706.91-.877,1.645,10.3,2.488Zm-10.433-2.538,4.739,4.222.52-2.94Z" transform="translate(-495.81 -375.355)"/>
                  <path id="Pfad_3209" data-name="Pfad 3209" d="M660.508,408.072l-1.584-.591-1.182,3.168,3.723,1.389-.271-2.966,2.058.767.319,2.984,3.823,1.426-.732,1.96-11.433-4.266,2.614-7.006,3.365,1.256Z" transform="translate(-495.38 -376.228)"/>
                  <path id="Pfad_3210" data-name="Pfad 3210" d="M662.868,399.3l-1.645-.387-.774,3.289,3.866.911-.639-2.906,2.135.5.691,2.917,3.968.936-.481,2.033-11.867-2.8,1.715-7.272,3.492.823Z" transform="translate(-495.091 -377.069)"/>
                  <path id="Pfad_3211" data-name="Pfad 3211" d="M664.312,388.961l-.22,2.027a3.365,3.365,0,0,1-1.519-.534,2.925,2.925,0,0,0-.4,1.41c-.155,1.421.812,2.21,2.855,2.607l.288-2.651,1.87.2-.289,2.668c2.23.119,3.564-.384,3.728-1.891a1.613,1.613,0,0,0-1.48-2.036,3.411,3.411,0,0,0-1.346.134l.449-2.037a3.926,3.926,0,0,1,1.337-.047c1.94.21,3.321,1.711,3.046,4.24-.331,3.048-2.883,4.121-6.713,3.706-3.948-.43-6.083-2.081-5.75-5.147a5.269,5.269,0,0,1,1.872-3.689A3.414,3.414,0,0,0,664.312,388.961Z" transform="translate(-494.889 -377.93)"/>
                  <path id="Pfad_3212" data-name="Pfad 3212" d="M664.3,379.644l.035,2.037a3.341,3.341,0,0,1-1.574-.338,2.929,2.929,0,0,0-.219,1.45c.025,1.429,1.082,2.091,3.158,2.23l-.046-2.667,1.881-.033.047,2.683c2.229-.161,3.488-.827,3.463-2.343-.022-1.219-.66-1.853-1.723-1.835a3.394,3.394,0,0,0-1.32.3l.191-2.078a3.9,3.9,0,0,1,1.32-.213c1.953-.035,3.509,1.28,3.553,3.824.052,3.067-2.345,4.451-6.2,4.518-3.973.068-6.3-1.3-6.351-4.387a5.272,5.272,0,0,1,1.4-3.894A3.42,3.42,0,0,0,664.3,379.644Z" transform="translate(-494.851 -378.839)"/>
                </g>
              </g>
              <g id="Gruppe_2767" data-name="Gruppe 2767" transform="translate(18.164)">
                <path id="Pfad_3213" data-name="Pfad 3213" d="M538.841,341.716c-1.751,2.168-4.045,2.486-6.645.385a6.383,6.383,0,0,1-2.188-6.022l-2.058,2.547-1.517-1.225,5.243-6.488,1.4,1.126c-1.949,2.993-1.74,6.587.454,8.36,1.719,1.389,2.88,1.118,3.776.008a1.771,1.771,0,0,0-.19-2.729,2.851,2.851,0,0,0-1.238-.574l1.478-1.47a3.967,3.967,0,0,1,1.251.7C540.31,337.708,540.329,339.873,538.841,341.716Z" transform="translate(-526.432 -301.473)"/>
                <path id="Pfad_3214" data-name="Pfad 3214" d="M546.685,333.3l-3.674-3.96-.44,2.549-2.438.241,3.614,3.9-1.532,1.422-8.3-8.942,1.532-1.421,3.081,3.32,2.475-.228.416-2.549-3.034-3.27,1.534-1.421,8.3,8.941Z" transform="translate(-525.683 -302.271)"/>
                <path id="Pfad_3215" data-name="Pfad 3215" d="M550.485,319.59l-1.675,1.163a3.344,3.344,0,0,1-.594-1.5,2.927,2.927,0,0,0-1.327.625c-1.174.815-1.136,2.061-.1,3.865l2.191-1.521,1.074,1.548-2.206,1.529c1.372,1.765,2.628,2.441,3.873,1.576a1.613,1.613,0,0,0,.568-2.452,3.388,3.388,0,0,0-.983-.928l1.833-1a3.937,3.937,0,0,1,.913.98c1.112,1.6.884,3.629-1.206,5.079-2.52,1.749-5,.525-7.2-2.64-2.265-3.265-2.418-5.959.117-7.718a5.267,5.267,0,0,1,4.013-1A3.42,3.42,0,0,0,550.485,319.59Z" transform="translate(-524.683 -302.853)"/>
                <path id="Pfad_3216" data-name="Pfad 3216" d="M564.785,321.98c-2.79,1.186-4.987-.512-6.493-4.054s-1.172-6.317,1.65-7.516a4.783,4.783,0,0,1,4.434-.031,3.443,3.443,0,0,0,.274,2.647l-1.876.8a3.742,3.742,0,0,1-.4-1.836,2.7,2.7,0,0,0-1.65.3c-1.6.681-1.48,2.352-.458,4.756s2.182,3.709,3.785,3.029,1.723-1.471,1.176-2.753l-1.6.682-.762-1.8,3.527-1.5.62,1.459C568.277,319.151,567.462,320.841,564.785,321.98Z" transform="translate(-523.333 -303.58)"/>
                <path id="Pfad_3217" data-name="Pfad 3217" d="M573.841,318.856c-2.962.785-4.892-1.189-5.879-4.911s-.265-6.435,2.7-7.22,4.892,1.189,5.88,4.91S576.805,318.069,573.841,318.856Zm-2.7-10.169c-1.683.447-1.8,2.133-1.12,4.676s1.649,3.977,3.332,3.531,1.8-2.135,1.121-4.676S572.828,308.24,571.145,308.687Z" transform="translate(-522.318 -303.91)"/>
                <path id="Pfad_3218" data-name="Pfad 3218" d="M583.358,317.052c-3.046.354-4.674-1.877-5.12-5.7s.658-6.409,3.7-6.763,4.674,1.877,5.119,5.7S586.4,316.7,583.358,317.052ZM582.141,306.6c-1.73.2-2.08,1.855-1.777,4.468s1.065,4.174,2.8,3.972,2.081-1.856,1.777-4.47S583.871,306.4,582.141,306.6Z" transform="translate(-521.258 -304.111)"/>
                <path id="Pfad_3219" data-name="Pfad 3219" d="M590.043,316.369l-.958-.022.283-12.2,3.5.08c3.258.077,4.536,1.361,4.466,4.375C597.248,312.387,594.521,316.473,590.043,316.369Zm2.6-10.121-1.236-.028-.185,7.98a4.29,4.29,0,0,0,2.835-1.992,6.238,6.238,0,0,0,1.112-3.618C595.214,306.848,594.53,306.293,592.648,306.249Z" transform="translate(-520.163 -304.151)"/>
                <path id="Pfad_3220" data-name="Pfad 3220" d="M606.889,318.388c-2.987-.689-3.75-3.349-2.885-7.1.891-3.869,2.731-5.8,5.735-5.112a4.559,4.559,0,0,1,3.219,2.243,3.893,3.893,0,0,0-1.336,2.3l-1.984-.458a3.246,3.246,0,0,1,.84-1.558,2.42,2.42,0,0,0-1.231-.552c-1.612-.372-2.5.853-3.132,3.585-.586,2.546-.431,4.279,1.266,4.67a1.683,1.683,0,0,0,2.23-1.379,2.854,2.854,0,0,0-.025-1.365l1.969.686a4.039,4.039,0,0,1-.079,1.429C611.024,317.734,609.366,318.959,606.889,318.388Z" transform="translate(-518.704 -303.962)"/>
                <path id="Pfad_3221" data-name="Pfad 3221" d="M615.582,321.046c-2.867-1.1-3.277-3.829-1.9-7.428s3.552-5.379,6.417-4.284,3.277,3.829,1.9,7.427S618.447,322.142,615.582,321.046Zm3.761-9.836c-1.628-.621-2.705.683-3.647,3.142s-.988,4.195.64,4.817,2.705-.682,3.647-3.141S620.971,311.835,619.343,311.211Z" transform="translate(-517.778 -303.664)"/>
                <path id="Pfad_3222" data-name="Pfad 3222" d="M630.1,318.3l.814-1.482-2.962-1.628-1.914,3.483,2.974.162-1.057,1.925-3-.117-1.964,3.574-1.834-1.007,5.875-10.693,6.553,3.6-1.728,3.146Z" transform="translate(-516.954 -303.314)"/>
                <path id="Pfad_3223" data-name="Pfad 3223" d="M638.445,323.9l1-1.362-2.725-2-2.351,3.2,2.926.548-1.3,1.77-2.957-.5-2.412,3.288-1.686-1.236,7.215-9.836,6.027,4.422-2.123,2.893Z" transform="translate(-516.175 -302.788)"/>
                <path id="Pfad_3224" data-name="Pfad 3224" d="M646.77,331.37l-1.474-1.406a3.347,3.347,0,0,1,1.345-.882,2.934,2.934,0,0,0-.878-1.174c-1.033-.986-2.246-.7-3.8.682l1.928,1.839-1.3,1.361-1.942-1.851c-1.45,1.7-1.86,3.064-.763,4.109a1.61,1.61,0,0,0,2.514.063,3.4,3.4,0,0,0,.712-1.15l1.344,1.594a3.918,3.918,0,0,1-.774,1.09c-1.346,1.411-3.375,1.6-5.215-.159-2.219-2.114-1.518-4.792,1.138-7.578,2.74-2.874,5.347-3.564,7.578-1.438a5.26,5.26,0,0,1,1.789,3.728A3.424,3.424,0,0,0,646.77,331.37Z" transform="translate(-515.354 -302.042)"/>
                <path id="Pfad_3225" data-name="Pfad 3225" d="M653.373,339.182l-1.276-1.588a3.348,3.348,0,0,1,1.451-.7,2.934,2.934,0,0,0-.715-1.279c-.9-1.114-2.135-.988-3.86.174l1.67,2.078-1.467,1.178-1.681-2.091c-1.661,1.492-2.25,2.791-1.3,3.971a1.613,1.613,0,0,0,2.485.4,3.429,3.429,0,0,0,.857-1.047l1.121,1.758a3.913,3.913,0,0,1-.912.979c-1.52,1.221-3.555,1.136-5.148-.847-1.92-2.389-.872-4.952,2.127-7.363,3.1-2.488,5.773-2.827,7.7-.425a5.258,5.258,0,0,1,1.282,3.931A3.424,3.424,0,0,0,653.373,339.182Z" transform="translate(-514.705 -301.29)"/>
              </g>
            </g>
          </g>
          <circle id="Ellipse_14" data-name="Ellipse 14" cx="103.73" cy="103.73" r="103.73" fill="none" stroke="#000" stroke-linecap="round" stroke-linejoin="round" stroke-width="3"/>
          <path id="Pfad_3227" data-name="Pfad 3227" d="M606.841,389.55c7.8-6.212,12.547-18.217,15.559-26.7,1.164-3.273,2.323-8.231.834-11.55-1.469-3.271-4.834-4.245-8.588-3.186-2.813.793-4.578,3.267-5.7,5.69-3.6,7.75-5.234,15.9-11.279,22.724-1.421,1.6-4.958,5.8-5.44,3.609a6.574,6.574,0,0,1,.323-2.824c2-8.266,6.563-17.3,6.205-25.9a19.2,19.2,0,0,0-1.8-7.521c-1.967-3.4-5.6-4.272-9.353-2.265a9.136,9.136,0,0,0-4.614,7,164.672,164.672,0,0,1-5.256,23.782,28.786,28.786,0,0,1-10.212,14.863" transform="translate(-489.485 -284.615)" fill="none" stroke="#000" stroke-linecap="round" stroke-linejoin="round" stroke-width="3"/>
          <path id="Pfad_3228" data-name="Pfad 3228" d="M611.328,380.052s12.945.864,9.771,11.926-13.469,14.236-21.45,12.431c-6.784-1.533-7.008-6.457-6.143-9.471a13.33,13.33,0,0,1,10.46-9.235" transform="translate(-486.921 -280.665)" fill="none" stroke="#000" stroke-linecap="round" stroke-linejoin="round" stroke-width="3"/>
          <path id="Pfad_3229" data-name="Pfad 3229" d="M573.264,393.854s-.971,9.158,10.893,11.841c7.843,1.774,11.242-.833,12.857-3.551" transform="translate(-488.912 -279.284)" fill="none" stroke="#000" stroke-linecap="round" stroke-linejoin="round" stroke-width="3"/>
          <path id="Pfad_3230" data-name="Pfad 3230" d="M603.264,385.095a18.062,18.062,0,0,1,6.585,1.86" transform="translate(-485.908 -280.16)" fill="none" stroke="#000" stroke-linecap="round" stroke-linejoin="round" stroke-width="3"/>
          <path id="Pfad_3231" data-name="Pfad 3231" d="M593.711,418.37c15.4-2.1,18.3-12.8,18.3-12.8a10,10,0,0,0,.252-4.709" transform="translate(-486.864 -278.582)" fill="none" stroke="#000" stroke-linecap="round" stroke-linejoin="round" stroke-width="3"/>
          <path id="Pfad_3232" data-name="Pfad 3232" d="M596.575,394.816a11.56,11.56,0,0,0-7.047-1.267c-.418-3.956-2.5-10.638-10.883-11.987-5.53-.89-12.352-.242-15.085,8.541-2.764,9.948-.306,19.5,7.594,25.186" transform="translate(-489.99 -280.544)" fill="none" stroke="#000" stroke-linecap="round" stroke-linejoin="round" stroke-width="3"/>
          <path id="Pfad_3233" data-name="Pfad 3233" d="M604.242,415.925a8.153,8.153,0,0,1,.419,5.561c-1.773,5.348-10.766,8.767-21.954,7.269s-18.43-7.122-18.561-12.7c-.072-3.077,1.289-4.627,3.254-6.821" transform="translate(-489.823 -277.745)" fill="none" stroke="#000" stroke-linecap="round" stroke-linejoin="round" stroke-width="3"/>
        </g>
      </g>
    </g>
  </g>
</svg>
