<svg xmlns="http://www.w3.org/2000/svg" width="1088.286" height="731" viewBox="0 0 1088.286 731">
  <g id="Gruppe_2819" data-name="Gruppe 2819" transform="translate(-140 -4260)">
    <g id="Gruppe_162" data-name="Gruppe 162" transform="translate(140.143 4260)">
      <g id="Gruppe_2757" data-name="Gruppe 2757">
        <g id="Gruppe_162-2" data-name="Gruppe 162" transform="translate(0.001)">
          <rect id="Rechteck_45" data-name="Rechteck 45" width="1088.286" height="731" transform="translate(-0.143)" fill="#ededed"/>
        </g>
        <g id="Gruppe_2785" data-name="Gruppe 2785" transform="translate(-48 31)">
          <path id="Pfad_3403" data-name="Pfad 3403" d="M28.512-19.008c0-11.934-3.4-18.792-13.878-18.792H3.78V0H14.526C24.786,0,28.512-6.264,28.512-19.008Zm-6.7.108c0,10.314-2.376,12.636-7.722,12.636H10.26V-31.536h3.834C19.494-31.536,21.816-28.728,21.816-18.9ZM49.032,0V-5.832H45.144V-31.968h3.888V-37.8H34.992v5.832H38.88V-5.832H34.992V0Zm32.13-33.8A16.318,16.318,0,0,0,69.174-38.34c-9.558,0-13.932,7.128-13.932,19.44C55.242-6.966,59.4.54,68.9.54c7.884,0,12.042-4.752,12.042-10.8a12.157,12.157,0,0,0-.594-4.1l-6.426-.7a10.541,10.541,0,0,1,.864,4.1c0,3.294-2,5.238-5.778,5.238-4.7,0-6.7-3.942-7.074-10.854h8.316V-22.41H61.992c.54-6.426,2.646-9.666,7.074-9.666,2.376,0,3.618.27,4.482.756a10.358,10.358,0,0,0-1.134,4.86h6.318A10.6,10.6,0,0,1,81.162-33.8ZM126.468,0V-6.156H110.592v-7.56l8.856-4.158v-6.8l-8.856,4.1v-11.07H126.2V-37.8H104.112V0Zm33.264-27.108c0-6.912-4.428-10.692-12.258-10.692H134.352V0h15.12V-6.264h-8.64V-31.59h6.48c4.05,0,5.94,1.62,5.94,5.022,0,3.618-2.322,5.454-10.584,7.56v6.372C152.928-15.39,159.732-17.82,159.732-27.108ZM179.766,0V-5.832h-3.888V-31.968h3.888V-37.8h-14.04v5.832h3.888V-5.832h-3.888V0Zm37.206-37.8H185.544c1.3,3.51,1.89,7.506,1.89,13.068h5.994a33.357,33.357,0,0,0-.7-7.83h5.292V-5.994H193.7V0h15.12V-5.994H204.5V-32.562h5.292a33.356,33.356,0,0,0-.7,7.83h5.994C215.082-30.294,215.676-34.29,216.972-37.8ZM248.94,0l-8.208-31.806h5.778V-37.8H222.75v5.994h5.67L220.32,0h6.264l2-8.316,5.994,4.59,5.994-4.536L242.676,0Zm-9.882-14.094-4.374,3.348L230.04-14.31l4.374-17.928Zm42.93-13.014c0-6.912-4.428-10.692-12.258-10.692H256.608V0h15.12V-6.264h-8.64V-31.59h6.48c4.05,0,5.94,1.62,5.94,5.022,0,3.618-2.322,5.454-10.584,7.56v6.372C275.184-15.39,281.988-17.82,281.988-27.108ZM314.334,0V-37.8h-6.48v13.824l-6.318,4.914-6.1-4.7V-37.8h-6.48V0h6.48V-16.47l6.048,4.59,6.372-4.86V0Z" transform="translate(235.857 286)"/>
          <path id="Pfad_3404" data-name="Pfad 3404" d="M14.22,0h2.91V-2.97H14.22ZM1.32,0H4.23V-2.97H1.32ZM7.77,0h2.91V-2.97H7.77Zm20.1,0H30.3V-15.51H27.87Zm0-18.45H30.3v-3H27.87ZM40.98.45c3.57,0,6.12-1.59,6.12-4.71,0-3.57-2.61-4.26-5.73-4.89-2.67-.54-4.17-.87-4.17-2.55,0-1.23.9-2.22,3.12-2.22,2.31,0,3.42.9,3.66,2.94h2.49c-.36-3.03-2.25-4.86-6.09-4.86-3.6,0-5.58,1.68-5.58,4.26,0,3.39,2.73,4.02,5.79,4.65,2.85.6,4.05,1.05,4.05,2.79,0,1.44-1.05,2.55-3.6,2.55-2.31,0-4.11-.75-4.44-3.45H34.11C34.35-1.56,36.72.45,40.98.45Zm8.67-13.98H51.9V-2.91c0,2.19,1.44,3,3.42,3a9.472,9.472,0,0,0,1.95-.21v-2.1h-.09a4.612,4.612,0,0,1-1.29.21c-.99,0-1.56-.36-1.56-1.44V-13.53h3v-1.98h-3V-20.4H51.9v4.89H49.65ZM74.25.42A6.31,6.31,0,0,0,80.91-4.8H78.54a4.02,4.02,0,0,1-4.29,3.18c-3.12,0-4.83-2.4-5.01-5.55h12c0-5.13-2.49-8.73-7.14-8.73-4.41,0-7.35,3.66-7.35,8.16S69.51.42,74.25.42Zm-.15-14.4c2.79,0,4.38,1.89,4.53,4.98H69.3C69.66-11.82,71.22-13.98,74.1-13.98ZM85.11,0h2.43V-15.51H85.11Zm0-18.45h2.43v-3H85.11Zm9.66,2.94H92.34V0h2.43V-9.54a4.1,4.1,0,0,1,4.26-4.29c2.19,0,3.51,1.14,3.51,3.15V0h2.43V-10.89c0-3.21-1.98-4.98-5.22-4.98a5.814,5.814,0,0,0-4.92,2.4h-.06ZM116.31.42a6.31,6.31,0,0,0,6.66-5.22H120.6a4.02,4.02,0,0,1-4.29,3.18c-3.12,0-4.83-2.4-5.01-5.55h12c0-5.13-2.49-8.73-7.14-8.73-4.41,0-7.35,3.66-7.35,8.16S111.57.42,116.31.42Zm-.15-14.4c2.79,0,4.38,1.89,4.53,4.98h-9.33C111.72-11.82,113.28-13.98,116.16-13.98ZM137.28,0h2.7l5.58-15.51h-2.52l-3.27,9.84c-.45,1.35-1.02,3.27-1.02,3.27h-.06s-.57-1.89-1.02-3.27l-3.21-9.84h-2.61ZM155.1.42a6.311,6.311,0,0,0,6.66-5.22h-2.37a4.02,4.02,0,0,1-4.29,3.18c-3.12,0-4.83-2.4-5.01-5.55h12c0-5.13-2.49-8.73-7.14-8.73-4.41,0-7.35,3.66-7.35,8.16S150.36.42,155.1.42Zm-.15-14.4c2.79,0,4.38,1.89,4.53,4.98h-9.33C150.51-11.82,152.07-13.98,154.95-13.98Zm13.44-1.53h-2.43V0h2.43V-8.61a4.472,4.472,0,0,1,4.5-4.71,2.939,2.939,0,0,1,1.08.15h.09v-2.34a2.336,2.336,0,0,0-.99-.18,5.5,5.5,0,0,0-4.62,2.76h-.06ZM183.63.45c3.57,0,6.12-1.59,6.12-4.71,0-3.57-2.61-4.26-5.73-4.89-2.67-.54-4.17-.87-4.17-2.55,0-1.23.9-2.22,3.12-2.22,2.31,0,3.42.9,3.66,2.94h2.49c-.36-3.03-2.25-4.86-6.09-4.86-3.6,0-5.58,1.68-5.58,4.26,0,3.39,2.73,4.02,5.79,4.65,2.85.6,4.05,1.05,4.05,2.79,0,1.44-1.05,2.55-3.6,2.55-2.31,0-4.11-.75-4.44-3.45h-2.49C177-1.56,179.37.45,183.63.45Zm9.96,4.53h2.43V-1.83h.06A5.625,5.625,0,0,0,200.97.45c4.2,0,6.75-3.18,6.75-8.16,0-5.16-2.73-8.16-6.66-8.16a5.823,5.823,0,0,0-4.98,2.55h-.06v-2.19h-2.43Zm7.2-6.57c-3.57,0-4.92-2.73-4.92-6.09s1.56-6.12,4.95-6.12c2.94,0,4.41,2.64,4.41,6.12C205.23-4.17,203.76-1.59,200.79-1.59ZM211.65,0h2.43V-15.51h-2.43Zm0-18.45h2.43v-3h-2.43ZM225.51.42a6.311,6.311,0,0,0,6.66-5.22H229.8a4.02,4.02,0,0,1-4.29,3.18c-3.12,0-4.83-2.4-5.01-5.55h12c0-5.13-2.49-8.73-7.14-8.73-4.41,0-7.35,3.66-7.35,8.16S220.77.42,225.51.42Zm-.15-14.4c2.79,0,4.38,1.89,4.53,4.98h-9.33C220.92-11.82,222.48-13.98,225.36-13.98ZM236.46,0h2.43V-21.45h-2.43Zm6.33-13.53h2.25V-2.91c0,2.19,1.44,3,3.42,3a9.471,9.471,0,0,0,1.95-.21v-2.1h-.09a4.612,4.612,0,0,1-1.29.21c-.99,0-1.56-.36-1.56-1.44V-13.53h3v-1.98h-3V-20.4h-2.43v4.89h-2.25ZM260.97.42a6.31,6.31,0,0,0,6.66-5.22h-2.37a4.02,4.02,0,0,1-4.29,3.18c-3.12,0-4.83-2.4-5.01-5.55h12c0-5.13-2.49-8.73-7.14-8.73-4.41,0-7.35,3.66-7.35,8.16S256.23.42,260.97.42Zm-.15-14.4c2.79,0,4.38,1.89,4.53,4.98h-9.33C256.38-11.82,257.94-13.98,260.82-13.98ZM286.26.42c4.62,0,7.89-2.25,7.89-6.27,0-4.83-3.81-5.85-7.98-6.69-3.21-.63-5.61-1.35-5.61-3.78,0-2.22,1.92-3.45,4.83-3.45,3.15,0,5.13,1.53,5.52,4.59h2.55c-.54-3.96-2.76-6.69-8.13-6.69-4.35,0-7.29,2.13-7.29,5.67,0,4.05,3.24,5.13,7.02,5.97,3.84.84,6.42,1.53,6.42,4.47,0,2.67-2.13,4.02-5.1,4.02-4.05,0-6.27-1.89-6.63-5.52h-2.64C277.35-2.94,280.23.42,286.26.42Zm18.75,0c3.87,0,6.3-2.16,6.63-5.88h-2.4a3.891,3.891,0,0,1-4.23,3.84c-3.3,0-5.01-2.7-5.01-6.12s1.71-6.15,5.01-6.15a3.882,3.882,0,0,1,4.17,3.39h2.46c-.54-3.3-2.97-5.4-6.63-5.4-4.62,0-7.5,3.66-7.5,8.16S300.39.42,305.01.42Zm12.87-21.87h-2.43V0h2.43V-9.54a4.1,4.1,0,0,1,4.26-4.29c2.19,0,3.51,1.14,3.51,3.15V0h2.43V-10.89c0-3.21-1.98-4.98-5.22-4.98a5.814,5.814,0,0,0-4.92,2.4h-.06Zm17.34,5.94h-2.43V0h2.43V-8.61a4.472,4.472,0,0,1,4.5-4.71,2.939,2.939,0,0,1,1.08.15h.09v-2.34a2.336,2.336,0,0,0-.99-.18,5.5,5.5,0,0,0-4.62,2.76h-.06ZM344.58,0h2.43V-15.51h-2.43Zm0-18.45h2.43v-3h-2.43Zm6.24,4.92h2.13V0h2.43V-13.53h2.88v-1.98h-2.88v-2.37c0-1.26.57-1.65,2.13-1.65.24,0,.36,0,.78.03v-2.07c-.33-.03-.72-.06-1.23-.06-2.58,0-4.11.96-4.11,3.63v2.49h-2.13Zm10.02,0h2.25V-2.91c0,2.19,1.44,3,3.42,3a9.472,9.472,0,0,0,1.95-.21v-2.1h-.09a4.612,4.612,0,0,1-1.29.21c-.99,0-1.56-.36-1.56-1.44V-13.53h3v-1.98h-3V-20.4h-2.43v4.89h-2.25Zm11.7,17.37A3.45,3.45,0,0,0,375.42.09V-2.97h-2.91V0h1.38c0,1.68-.69,2.25-1.35,2.49ZM389.55,0h2.52l2.61-9.39c.36-1.29.78-3.24.78-3.24h.06s.39,1.95.75,3.24L398.85,0h2.49l5.07-15.51h-2.52l-2.88,9.57c-.39,1.29-.87,3.33-.87,3.33h-.06s-.42-2.01-.75-3.27l-2.52-9.63h-2.55l-2.61,9.63c-.33,1.23-.78,3.27-.78,3.27h-.06s-.48-2.04-.84-3.33l-2.73-9.57h-2.61Zm26.46.42a6.31,6.31,0,0,0,6.66-5.22H420.3a4.02,4.02,0,0,1-4.29,3.18c-3.12,0-4.83-2.4-5.01-5.55h12c0-5.13-2.49-8.73-7.14-8.73-4.41,0-7.35,3.66-7.35,8.16S411.27.42,416.01.42Zm-.15-14.4c2.79,0,4.38,1.89,4.53,4.98h-9.33C411.42-11.82,412.98-13.98,415.86-13.98ZM426.96,0h2.43V-21.45h-2.43Zm13.95.42c3.87,0,6.3-2.16,6.63-5.88h-2.4a3.891,3.891,0,0,1-4.23,3.84c-3.3,0-5.01-2.7-5.01-6.12s1.71-6.15,5.01-6.15a3.882,3.882,0,0,1,4.17,3.39h2.46c-.54-3.3-2.97-5.4-6.63-5.4-4.62,0-7.5,3.66-7.5,8.16S436.29.42,440.91.42Zm12.87-21.87h-2.43V0h2.43V-9.54a4.1,4.1,0,0,1,4.26-4.29c2.19,0,3.51,1.14,3.51,3.15V0h2.43V-10.89c0-3.21-1.98-4.98-5.22-4.98a5.814,5.814,0,0,0-4.92,2.4h-.06ZM475.32.42a6.31,6.31,0,0,0,6.66-5.22h-2.37a4.02,4.02,0,0,1-4.29,3.18c-3.12,0-4.83-2.4-5.01-5.55h12c0-5.13-2.49-8.73-7.14-8.73-4.41,0-7.35,3.66-7.35,8.16S470.58.42,475.32.42Zm-.15-14.4c2.79,0,4.38,1.89,4.53,4.98h-9.33C470.73-11.82,472.29-13.98,475.17-13.98ZM492.45,0h2.43V-9.66a4.208,4.208,0,0,1,3.99-4.17c1.59,0,2.67,1.14,2.67,3.06V0h2.43V-9.66a3.983,3.983,0,0,1,3.81-4.17,2.832,2.832,0,0,1,2.85,3.06V0h2.43V-10.89c0-3.21-1.95-4.98-4.71-4.98a5.429,5.429,0,0,0-4.74,2.76h-.06a4.081,4.081,0,0,0-4.05-2.76,5.438,5.438,0,0,0-4.56,2.58h-.06v-2.22h-2.43Zm25.32,0h2.43V-15.51h-2.43Zm0-18.45h2.43v-3h-2.43Zm6.24,4.92h2.25V-2.91c0,2.19,1.44,3,3.42,3a9.472,9.472,0,0,0,1.95-.21v-2.1h-.09a4.612,4.612,0,0,1-1.29.21c-.99,0-1.56-.36-1.56-1.44V-13.53h3v-1.98h-3V-20.4h-2.43v4.89h-2.25ZM547.98.45a5.625,5.625,0,0,0,4.8-2.34h.06V0h2.43V-21.45h-2.43v8.13h-.06a5.736,5.736,0,0,0-4.86-2.55c-3.84,0-6.81,3-6.81,8.16C541.11-2.73,543.75.45,547.98.45Zm.09-2.04c-2.97,0-4.47-2.58-4.47-6.09,0-3.48,1.5-6.12,4.44-6.12,3.21,0,4.95,2.52,4.95,6.12C552.99-4.17,551.52-1.59,548.07-1.59ZM566.7.42a6.31,6.31,0,0,0,6.66-5.22h-2.37a4.02,4.02,0,0,1-4.29,3.18c-3.12,0-4.83-2.4-5.01-5.55h12c0-5.13-2.49-8.73-7.14-8.73-4.41,0-7.35,3.66-7.35,8.16S561.96.42,566.7.42Zm-.15-14.4c2.79,0,4.38,1.89,4.53,4.98h-9.33C562.11-11.82,563.67-13.98,566.55-13.98Zm13.44-1.53h-2.43V0h2.43V-8.61a4.472,4.472,0,0,1,4.5-4.71,2.938,2.938,0,0,1,1.08.15h.09v-2.34a2.336,2.336,0,0,0-.99-.18,5.5,5.5,0,0,0-4.62,2.76h-.06ZM7.53,36.45c3.57,0,6.12-1.59,6.12-4.71,0-3.57-2.61-4.26-5.73-4.89-2.67-.54-4.17-.87-4.17-2.55,0-1.23.9-2.22,3.12-2.22,2.31,0,3.42.9,3.66,2.94h2.49c-.36-3.03-2.25-4.86-6.09-4.86-3.6,0-5.58,1.68-5.58,4.26,0,3.39,2.73,4.02,5.79,4.65,2.85.6,4.05,1.05,4.05,2.79,0,1.44-1.05,2.55-3.6,2.55-2.31,0-4.11-.75-4.44-3.45H.66C.9,34.44,3.27,36.45,7.53,36.45Zm16.89-.03c3.87,0,6.3-2.16,6.63-5.88h-2.4a3.891,3.891,0,0,1-4.23,3.84c-3.3,0-5.01-2.7-5.01-6.12s1.71-6.15,5.01-6.15a3.882,3.882,0,0,1,4.17,3.39h2.46c-.54-3.3-2.97-5.4-6.63-5.4-4.62,0-7.5,3.66-7.5,8.16S19.8,36.42,24.42,36.42ZM37.29,14.55H34.86V36h2.43V26.46a4.1,4.1,0,0,1,4.26-4.29c2.19,0,3.51,1.14,3.51,3.15V36h2.43V25.11c0-3.21-1.98-4.98-5.22-4.98a5.814,5.814,0,0,0-4.92,2.4h-.06ZM52.29,36h2.43V14.55H52.29Zm7.32,0h2.43V20.49H59.61Zm0-18.45h2.43v-3H59.61ZM73.47,36.42c3.87,0,6.3-2.16,6.63-5.88H77.7a3.891,3.891,0,0,1-4.23,3.84c-3.3,0-5.01-2.7-5.01-6.12s1.71-6.15,5.01-6.15a3.882,3.882,0,0,1,4.17,3.39H80.1c-.54-3.3-2.97-5.4-6.63-5.4-4.62,0-7.5,3.66-7.5,8.16S68.85,36.42,73.47,36.42ZM86.34,14.55H83.91V36h2.43V26.46a4.1,4.1,0,0,1,4.26-4.29c2.19,0,3.51,1.14,3.51,3.15V36h2.43V25.11c0-3.21-1.98-4.98-5.22-4.98a5.814,5.814,0,0,0-4.92,2.4h-.06Zm13.62,7.92h2.25V33.09c0,2.19,1.44,3,3.42,3a9.472,9.472,0,0,0,1.95-.21v-2.1h-.09a4.612,4.612,0,0,1-1.29.21c-.99,0-1.56-.36-1.56-1.44V22.47h3V20.49h-3V15.6h-2.43v4.89H99.96Zm18.18,13.95a6.31,6.31,0,0,0,6.66-5.22h-2.37a4.02,4.02,0,0,1-4.29,3.18c-3.12,0-4.83-2.4-5.01-5.55h12c0-5.13-2.49-8.73-7.14-8.73-4.41,0-7.35,3.66-7.35,8.16S113.4,36.42,118.14,36.42Zm-.15-14.4c2.79,0,4.38,1.89,4.53,4.98h-9.33C113.55,24.18,115.11,22.02,117.99,22.02Zm13.44-1.53H129V36h2.43V26.46a4.1,4.1,0,0,1,4.26-4.29c2.19,0,3.51,1.14,3.51,3.15V36h2.43V25.11c0-3.21-1.98-4.98-5.22-4.98a5.814,5.814,0,0,0-4.92,2.4h-.06ZM152.97,36h2.52V18.39h.06s.9,1.62,1.59,2.67L166.98,36h2.76V14.55h-2.52V32.22h-.06s-.84-1.65-1.56-2.76l-9.78-14.91h-2.85Zm28.56.42a6.311,6.311,0,0,0,6.66-5.22h-2.37a4.02,4.02,0,0,1-4.29,3.18c-3.12,0-4.83-2.4-5.01-5.55h12c0-5.13-2.49-8.73-7.14-8.73-4.41,0-7.35,3.66-7.35,8.16S176.79,36.42,181.53,36.42Zm-.15-14.4c2.79,0,4.38,1.89,4.53,4.98h-9.33C176.94,24.18,178.5,22.02,181.38,22.02ZM204.69,36V20.49h-2.43v9.54a4.013,4.013,0,0,1-4.05,4.32c-2.19,0-3.48-1.17-3.48-3.18V20.49H192.3V31.23c0,3.21,2.04,5.13,5.22,5.13a5.378,5.378,0,0,0,4.68-2.49h.06V36Zm11.43.42a6.311,6.311,0,0,0,6.66-5.22h-2.37a4.02,4.02,0,0,1-4.29,3.18c-3.12,0-4.83-2.4-5.01-5.55h12c0-5.13-2.49-8.73-7.14-8.73-4.41,0-7.35,3.66-7.35,8.16S211.38,36.42,216.12,36.42Zm-.15-14.4c2.79,0,4.38,1.89,4.53,4.98h-9.33C211.53,24.18,213.09,22.02,215.97,22.02ZM233.61,36h2.7V25.86h11.46V36h2.7V14.55h-2.7v9.12H236.31V14.55h-2.7Zm34.2.15a3.326,3.326,0,0,0,1.32-.24V34.14h-.09c-1.35.3-1.65-.39-1.65-1.65V25.11c0-3.69-2.43-4.92-5.73-4.92-4.11,0-6.09,2.25-6.18,5.25h2.34c.09-2.34,1.35-3.42,3.87-3.42,2.22,0,3.48.99,3.48,2.73,0,1.68-1.53,1.89-3.72,2.22-3.87.6-6.75,1.35-6.75,5.01,0,2.94,2.31,4.32,5.25,4.32a6.232,6.232,0,0,0,5.16-2.46h.03A2.383,2.383,0,0,0,267.81,36.15Zm-7.32-1.71c-1.59,0-3.21-.45-3.21-2.52,0-2.28,1.95-2.7,4.38-3.15a11.159,11.159,0,0,0,3.54-1.14v2.64A4.372,4.372,0,0,1,260.49,34.44Zm24.12,1.71a3.326,3.326,0,0,0,1.32-.24V34.14h-.09c-1.35.3-1.65-.39-1.65-1.65V25.11c0-3.69-2.43-4.92-5.73-4.92-4.11,0-6.09,2.25-6.18,5.25h2.34c.09-2.34,1.35-3.42,3.87-3.42,2.22,0,3.48.99,3.48,2.73,0,1.68-1.53,1.89-3.72,2.22-3.87.6-6.75,1.35-6.75,5.01,0,2.94,2.31,4.32,5.25,4.32a6.232,6.232,0,0,0,5.16-2.46h.03A2.383,2.383,0,0,0,284.61,36.15Zm-7.32-1.71c-1.59,0-3.21-.45-3.21-2.52,0-2.28,1.95-2.7,4.38-3.15A11.159,11.159,0,0,0,282,27.63v2.64A4.372,4.372,0,0,1,277.29,34.44Zm17.82,2.01c3.57,0,6.12-1.59,6.12-4.71,0-3.57-2.61-4.26-5.73-4.89-2.67-.54-4.17-.87-4.17-2.55,0-1.23.9-2.22,3.12-2.22,2.31,0,3.42.9,3.66,2.94h2.49c-.36-3.03-2.25-4.86-6.09-4.86-3.6,0-5.58,1.68-5.58,4.26,0,3.39,2.73,4.02,5.79,4.65,2.85.6,4.05,1.05,4.05,2.79,0,1.44-1.05,2.55-3.6,2.55-2.31,0-4.11-.75-4.44-3.45h-2.49C288.48,34.44,290.85,36.45,295.11,36.45ZM328.5,36h1.74V24.66h-9.15V27h6.45v.51c0,3.6-2.07,6.6-6.48,6.6-4.35,0-7.41-3.51-7.41-8.76,0-5.04,2.34-8.91,7.5-8.91,3.39,0,5.4,1.71,6,4.56h2.79c-.69-4.2-3.75-6.9-8.73-6.9-6.75,0-10.32,4.95-10.32,11.25,0,6.51,4.05,11.1,10.08,11.1a7.8,7.8,0,0,0,6.69-3.27h.06Zm9.03-15.51H335.1V36h2.43V27.39a4.472,4.472,0,0,1,4.5-4.71,2.939,2.939,0,0,1,1.08.15h.09V20.49a2.336,2.336,0,0,0-.99-.18,5.5,5.5,0,0,0-4.62,2.76h-.06Zm15.39,15.93c4.65,0,7.47-3.66,7.47-8.16s-2.82-8.16-7.47-8.16c-4.62,0-7.5,3.66-7.5,8.16S348.3,36.42,352.92,36.42Zm0-2.04c-3.3,0-5.01-2.7-5.01-6.12s1.71-6.15,5.01-6.15,4.98,2.73,4.98,6.15S356.22,34.38,352.92,34.38Zm10.11-11.91h2.25V33.09c0,2.19,1.44,3,3.42,3a9.472,9.472,0,0,0,1.95-.21v-2.1h-.09a4.612,4.612,0,0,1-1.29.21c-.99,0-1.56-.36-1.56-1.44V22.47h3V20.49h-3V15.6h-2.43v4.89h-2.25Zm18.18,13.95a6.31,6.31,0,0,0,6.66-5.22H385.5a4.02,4.02,0,0,1-4.29,3.18c-3.12,0-4.83-2.4-5.01-5.55h12c0-5.13-2.49-8.73-7.14-8.73-4.41,0-7.35,3.66-7.35,8.16S376.47,36.42,381.21,36.42Zm-.15-14.4c2.79,0,4.38,1.89,4.53,4.98h-9.33C376.62,24.18,378.18,22.02,381.06,22.02Zm16.89,14.43c3.57,0,6.12-1.59,6.12-4.71,0-3.57-2.61-4.26-5.73-4.89-2.67-.54-4.17-.87-4.17-2.55,0-1.23.9-2.22,3.12-2.22,2.31,0,3.42.9,3.66,2.94h2.49c-.36-3.03-2.25-4.86-6.09-4.86-3.6,0-5.58,1.68-5.58,4.26,0,3.39,2.73,4.02,5.79,4.65,2.85.6,4.05,1.05,4.05,2.79,0,1.44-1.05,2.55-3.6,2.55-2.31,0-4.11-.75-4.44-3.45h-2.49C391.32,34.44,393.69,36.45,397.95,36.45ZM418.11,36h2.85l-6.66-9.93,5.94-5.58h-3.09l-6.81,6.63V14.55h-2.43V36h2.43V29.79l2.28-2.16Zm22.44,0h2.85l-6.66-9.93,5.94-5.58h-3.09l-6.81,6.63V14.55h-2.43V36h2.43V29.79l2.28-2.16Zm11.7.42c4.65,0,7.47-3.66,7.47-8.16s-2.82-8.16-7.47-8.16c-4.62,0-7.5,3.66-7.5,8.16S447.63,36.42,452.25,36.42Zm0-2.04c-3.3,0-5.01-2.7-5.01-6.12s1.71-6.15,5.01-6.15,4.98,2.73,4.98,6.15S455.55,34.38,452.25,34.38ZM463.65,36h2.43V26.34a4.208,4.208,0,0,1,3.99-4.17c1.59,0,2.67,1.14,2.67,3.06V36h2.43V26.34a3.983,3.983,0,0,1,3.81-4.17,2.832,2.832,0,0,1,2.85,3.06V36h2.43V25.11c0-3.21-1.95-4.98-4.71-4.98a5.429,5.429,0,0,0-4.74,2.76h-.06a4.081,4.081,0,0,0-4.05-2.76,5.438,5.438,0,0,0-4.56,2.58h-.06V20.49h-2.43Zm32.7.45c4.2,0,6.69-3.18,6.69-8.16,0-5.16-2.67-8.16-6.6-8.16a5.847,5.847,0,0,0-4.98,2.58h-.06V14.55h-2.43V36h2.43V33.96h.06A5.558,5.558,0,0,0,496.35,36.45Zm-.18-2.04c-3.3,0-4.92-2.61-4.92-6.09,0-3.36,1.56-6.12,4.95-6.12,2.94,0,4.35,2.64,4.35,6.12C500.55,31.83,499.14,34.41,496.17,34.41ZM506.97,36h2.43V20.49h-2.43Zm0-18.45h2.43v-3h-2.43Zm9.66,2.94H514.2V36h2.43V26.46a4.1,4.1,0,0,1,4.26-4.29c2.19,0,3.51,1.14,3.51,3.15V36h2.43V25.11c0-3.21-1.98-4.98-5.22-4.98a5.814,5.814,0,0,0-4.92,2.4h-.06ZM531.54,36h2.43V20.49h-2.43Zm0-18.45h2.43v-3h-2.43ZM545.4,36.42a6.311,6.311,0,0,0,6.66-5.22h-2.37a4.02,4.02,0,0,1-4.29,3.18c-3.12,0-4.83-2.4-5.01-5.55h12c0-5.13-2.49-8.73-7.14-8.73-4.41,0-7.35,3.66-7.35,8.16S540.66,36.42,545.4,36.42Zm-.15-14.4c2.79,0,4.38,1.89,4.53,4.98h-9.33C540.81,24.18,542.37,22.02,545.25,22.02Zm13.44-1.53h-2.43V36h2.43V27.39a4.472,4.472,0,0,1,4.5-4.71,2.938,2.938,0,0,1,1.08.15h.09V20.49a2.336,2.336,0,0,0-.99-.18,5.5,5.5,0,0,0-4.62,2.76h-.06Zm8.37,1.98h2.25V33.09c0,2.19,1.44,3,3.42,3a9.472,9.472,0,0,0,1.95-.21v-2.1h-.09a4.612,4.612,0,0,1-1.29.21c-.99,0-1.56-.36-1.56-1.44V22.47h3V20.49h-3V15.6h-2.43v4.89h-2.25ZM588.42,36h2.52l2.61-9.39c.36-1.29.78-3.24.78-3.24h.06s.39,1.95.75,3.24L597.72,36h2.49l5.07-15.51h-2.52l-2.88,9.57c-.39,1.29-.87,3.33-.87,3.33h-.06s-.42-2.01-.75-3.27l-2.52-9.63h-2.55l-2.61,9.63c-.33,1.23-.78,3.27-.78,3.27h-.06s-.48-2.04-.84-3.33l-2.73-9.57H583.5Zm32.43,0V20.49h-2.43v9.54a4.013,4.013,0,0,1-4.05,4.32c-2.19,0-3.48-1.17-3.48-3.18V20.49h-2.43V31.23c0,3.21,2.04,5.13,5.22,5.13a5.378,5.378,0,0,0,4.68-2.49h.06V36Zm7.23-15.51h-2.43V36h2.43V27.39a4.472,4.472,0,0,1,4.5-4.71,2.938,2.938,0,0,1,1.08.15h.09V20.49a2.336,2.336,0,0,0-.99-.18,5.5,5.5,0,0,0-4.62,2.76h-.06Zm14.76,15.96a5.625,5.625,0,0,0,4.8-2.34h.06V36h2.43V14.55H647.7v8.13h-.06a5.736,5.736,0,0,0-4.86-2.55c-3.84,0-6.81,3-6.81,8.16C635.97,33.27,638.61,36.45,642.84,36.45Zm.09-2.04c-2.97,0-4.47-2.58-4.47-6.09,0-3.48,1.5-6.12,4.44-6.12,3.21,0,4.95,2.52,4.95,6.12C647.85,31.83,646.38,34.41,642.93,34.41Zm18.63,2.01a6.311,6.311,0,0,0,6.66-5.22h-2.37a4.02,4.02,0,0,1-4.29,3.18c-3.12,0-4.83-2.4-5.01-5.55h12c0-5.13-2.49-8.73-7.14-8.73-4.41,0-7.35,3.66-7.35,8.16S656.82,36.42,661.56,36.42Zm-.15-14.4c2.79,0,4.38,1.89,4.53,4.98h-9.33C656.97,24.18,658.53,22.02,661.41,22.02ZM671.79,36h2.91V33.03h-2.91Z" transform="translate(238.857 364)"/>
        </g>
      </g>
    </g>
  </g>
</svg>
