<svg xmlns="http://www.w3.org/2000/svg" width="795" height="534" viewBox="0 0 795 534">
  <g id="Gruppe_2713" data-name="Gruppe 2713" transform="translate(-985 -3406)">
    <rect id="Rechteck_49" data-name="Rechteck 49" width="795" height="534" transform="translate(985 3406)" fill="#ededed"/>
    <g id="Gruppe_139" data-name="Gruppe 139" transform="translate(904.905 3692.546)">
      <path id="Pfad_41" data-name="Pfad 41" d="M281.521-16.9,276.025-25l-5.606,8.035-4.912-3.529,6.069-7.688-9.482-2.893,1.967-5.721,9.135,3.3-.173-9.777h6.068L278.8-33.5l9.135-3.24,1.909,5.721L280.48-28.3l5.953,7.8Z" transform="translate(0 16.413)"/>
      <path id="Pfad_42" data-name="Pfad 42" d="M293.948-1.529H283.194l-13.7-43.365h8.845L288.632-9.565h.231l10.292-35.329h8.5Z" transform="translate(35.41 8.656)"/>
      <path id="Pfad_43" data-name="Pfad 43" d="M292.207.156c-9.713,0-15.782-5.2-15.782-12.542,0-5.727,3.008-9.43,8.151-11.044a10.268,10.268,0,0,1-6.936-10.118c0-7,5.779-11.507,14.682-11.507,6.132,0,10.35,2.43,12.49,5.033l-4.275,5.49a10.369,10.369,0,0,0-7.868-3.3c-4.969,0-7.168,2.256-7.168,5.5,0,3.645,3.124,5.895,8.614,5.895h6.126v7h-6.7c-5.664,0-8.787,2.25-8.787,6.011,0,3.7,2.893,6.242,7.978,6.242,3.413,0,6.016-.868,8.041-3.06l4.1,5.374C303.193-2.557,299.149.156,292.207.156Z" transform="translate(68.57 7.891)"/>
      <path id="Pfad_44" data-name="Pfad 44" d="M297.757.156c-9.713,0-15.782-5.2-15.782-12.542,0-5.727,3.008-9.43,8.151-11.044a10.268,10.268,0,0,1-6.936-10.118c0-7,5.779-11.507,14.682-11.507,6.132,0,10.349,2.43,12.49,5.033l-4.275,5.49a10.378,10.378,0,0,0-7.868-3.3c-4.969,0-7.168,2.256-7.168,5.5,0,3.645,3.118,5.895,8.614,5.895h6.127v7h-6.7c-5.664,0-8.788,2.25-8.788,6.011,0,3.7,2.893,6.242,7.978,6.242,3.413,0,6.017-.868,8.041-3.06l4.1,5.374C308.742-2.557,304.693.156,297.757.156Z" transform="translate(95.127 7.891)"/>
      <path id="Pfad_45" data-name="Pfad 45" d="M287.875-1.529V-44.894h14.74c13.126,0,22.261,8.383,22.261,21.682S315.742-1.529,302.615-1.529Zm28.561-21.74c0-9.135-5.438-14.457-13.821-14.457h-6.537V-8.76h6.537C311-8.76,316.436-14.135,316.436-23.269Z" transform="translate(123.359 8.656)"/>
      <path id="Pfad_46" data-name="Pfad 46" d="M310.862.156c-9.713,0-15.788-5.2-15.788-12.542,0-5.727,3.008-9.43,8.151-11.044a10.268,10.268,0,0,1-6.936-10.118c0-7,5.785-11.507,14.688-11.507,6.126,0,10.35,2.43,12.484,5.033l-4.275,5.49a10.358,10.358,0,0,0-7.862-3.3c-4.975,0-7.168,2.256-7.168,5.5,0,3.645,3.118,5.895,8.614,5.895H318.9v7h-6.7c-5.669,0-8.787,2.25-8.787,6.011,0,3.7,2.887,6.242,7.978,6.242,3.407,0,6.011-.868,8.035-3.06l4.107,5.374C321.847-2.557,317.8.156,310.862.156Z" transform="translate(157.807 7.891)"/>
      <path id="Pfad_47" data-name="Pfad 47" d="M300.974-44.894h8.209V-8.76H324.8v7.231H300.974Z" transform="translate(186.039 8.656)"/>
      <path id="Pfad_48" data-name="Pfad 48" d="M318.515-28.867l7.978,4.859c4.108,2.488,7.463,5.953,7.463,11.738,0,7.515-5.727,12.426-13.994,12.426-8.961,0-13.473-5.49-14.457-12.484l7.231-2.661c.4,3.471,2.655,7.8,7.457,7.8,3.529,0,5.432-2.2,5.432-4.854,0-1.967-.8-3.818-3.523-5.438l-7.226-4.275c-3.934-2.314-7.868-4.917-7.868-11.564,0-6.248,4.859-11.738,12.9-11.738,7.572,0,11.853,3.818,13.589,10.06l-7.052,2.545c-1.394-3.992-3.76-5.438-6.768-5.438-2.719,0-4.628,1.62-4.628,4.107C315.044-31.407,316.258-30.2,318.515-28.867Z" transform="translate(207.715 7.891)"/>
      <path id="Pfad_49" data-name="Pfad 49" d="M328.475-1.529H311.594V-44.894h16.077c7.8,0,13.121,4.622,13.121,11.507a9.906,9.906,0,0,1-6.358,9.482,10.9,10.9,0,0,1,7.341,10.7C341.775-6.736,336.4-1.529,328.475-1.529ZM319.8-26.74h7.052a5.4,5.4,0,0,0,5.669-5.548c0-3.124-2.14-5.554-5.785-5.554H319.8ZM333.45-14.366a5.562,5.562,0,0,0-5.779-5.669H319.8V-8.7h7.752A5.493,5.493,0,0,0,333.45-14.366Z" transform="translate(236.857 8.656)"/>
      <path id="Pfad_50" data-name="Pfad 50" d="M330.464-18.3h-4.281V-1.529h-8.209V-44.894h16.539c8.435,0,14.567,5.837,14.567,13.358a12.9,12.9,0,0,1-9.945,12.6L349.775-1.529h-9.308Zm10.349-13.121c0-3.529-2.719-6.306-7.116-6.306h-7.515v12.664H333.7C338.094-25.063,340.813-28.013,340.813-31.421Z" transform="translate(267.385 8.656)"/>
      <path id="Pfad_51" data-name="Pfad 51" d="M337.519-36.238h10.754l13.7,43.365h-8.851L350.24-2.707H335.2l-2.887,9.835h-8.5Zm-5.317-6.19a4.318,4.318,0,0,1,4.333-4.275,4.258,4.258,0,0,1,4.223,4.275,4.259,4.259,0,0,1-4.223,4.281A4.32,4.32,0,0,1,332.2-42.428Zm5.085,32.553h10.87L342.841-28.2H342.6Zm7.573-32.553a4.307,4.307,0,0,1,4.281-4.275,4.27,4.27,0,0,1,4.281,4.275,4.271,4.271,0,0,1-4.281,4.281A4.309,4.309,0,0,1,344.86-42.428Z" transform="translate(295.33 0)"/>
      <path id="Pfad_52" data-name="Pfad 52" d="M364.049-16.969c0,9.6-6.421,16.36-16.482,16.36-10.176,0-16.534-6.763-16.534-16.36V-44.894h8.209v28.619a7.954,7.954,0,0,0,8.325,8.325,7.936,7.936,0,0,0,8.267-8.325V-44.894h8.215Z" transform="translate(329.878 8.656)"/>
    </g>
  </g>
</svg>
