<svg xmlns="http://www.w3.org/2000/svg" width="795" height="534" viewBox="0 0 795 534">
  <g id="Gruppe_2712" data-name="Gruppe 2712" transform="translate(-140 -3406)">
    <rect id="Rechteck_48" data-name="Rechteck 48" width="795" height="534" transform="translate(140 3406)" fill="#ededed"/>
    <g id="Gruppe_137" data-name="Gruppe 137" transform="translate(165.564 3539.905)">
      <g id="Gruppe_138" data-name="Gruppe 138" transform="translate(266.495 33.589)">
        <path id="Pfad_40" data-name="Pfad 40" d="M433.957,151.882l-37.843-11.233c-1-.219-4.425-.967-5.739-1.2-1.223-.221-4.991-.758-4.991-.758V138.3s3.769-.534,4.991-.754c1.285-.232,4.572-.949,5.656-1.188l69.71-21.1-4.7-15.531-73.284,22.177c-1.227.524-3.944,1.689-5.032,2.2-1.124.529-4.506,2.275-4.506,2.275l-.224-.315s2.762-2.617,3.631-3.506c.808-.828,2.684-2.887,3.622-3.918l26.962-37.1L399.082,72l-26.023,35.81c-.475.8-2.325,3.944-2.974,5.144-.592,1.094-2.278,4.506-2.278,4.506l-.367-.12s.67-3.746.842-4.976c.182-1.3.529-4.683.638-5.767V33.589H352.693v73.58c.127,1.311.419,4.287.579,5.486.166,1.232.808,4.983.808,4.983l-.367.118s-1.661-3.424-2.247-4.52-2.122-3.745-2.765-4.847l-26.571-36.4-13.109,9.567,26.933,36.9c.581.641,2.984,3.281,3.953,4.271.87.888,3.631,3.506,3.631,3.506l-.222.313s-3.381-1.746-4.506-2.273c-1.144-.537-4.077-1.785-5.194-2.259l-73.2-21.726L255.8,115.838l70.137,20.819c1.41.307,3.951.853,5.043,1.051,1.223.221,4.991.758,4.991.758v.385s-3.768.534-4.991.755c-1.118.2-3.759.774-5.145,1.077l-38.331,11.6,4.7,15.533,41.49-12.555c1.058-.451,4.089-1.747,5.255-2.3,1.125-.529,4.506-2.275,4.506-2.275l.224.315s-2.762,2.617-3.631,3.506c-1.071,1.1-3.995,4.331-4.134,4.485l-46.723,64.3,13.128,9.541,46.306-63.726c.647-1.1,2.205-3.748,2.791-4.832s2.278-4.506,2.278-4.506l.367.12s-.67,3.746-.842,4.976-.495,4.363-.62,5.6V211.1h16.227V169.808c-.136-1.407-.406-4.116-.557-5.247-.165-1.232-.808-4.983-.808-4.983l.367-.117s1.662,3.422,2.247,4.519c.547,1.027,1.962,3.467,2.659,4.665l46.864,64.2,13.107-9.567-47.27-64.758c-.847-.931-2.9-3.182-3.769-4.068s-3.631-3.506-3.631-3.506l.222-.315s3.381,1.746,4.506,2.273,3.948,1.73,5.119,2.228l41.455,12.3Z" transform="translate(-255.8 -33.589)" fill="#ffb14a"/>
      </g>
    </g>
  </g>
</svg>
