<svg xmlns="http://www.w3.org/2000/svg" width="1088.286" height="731" viewBox="0 0 1088.286 731">
  <g id="Gruppe_2708" data-name="Gruppe 2708" transform="translate(-140 -4040)">
    <g id="Gruppe_144" data-name="Gruppe 144" transform="translate(140.143 4040)">
      <rect id="Rechteck_45" data-name="Rechteck 45" width="1088.286" height="731" transform="translate(-0.143)" fill="#ededed"/>
    </g>
    <g id="Gruppe_2787" data-name="Gruppe 2787" transform="translate(-1473.605 1856.204)">
      <g id="Gruppe_2787-2" data-name="Gruppe 2787">
        <path id="Pfad_3244" data-name="Pfad 3244" d="M1824.506,2573.109v-22.5h7.319c6.96,0,11.52,4.32,11.52,11.22,0,6.959-4.56,11.279-11.52,11.279Zm16.319-11.279c0-5.67-3.511-9.06-9-9.06h-4.86v18.149h4.86C1837.314,2570.919,1840.825,2567.5,1840.825,2561.83Z"/>
        <path id="Pfad_3245" data-name="Pfad 3245" d="M1846.615,2553.28a1.493,1.493,0,0,1,1.531-1.5,1.53,1.53,0,1,1-1.531,1.5Zm.33,19.829V2557.72h2.4v15.389Z"/>
        <path id="Pfad_3246" data-name="Pfad 3246" d="M1861.075,2573.589a8.175,8.175,0,0,1-.03-16.349c4.5,0,7.59,3.51,7.59,8.159,0,.3-.031.81-.061,1.05h-13.109a5.514,5.514,0,0,0,5.639,4.981,6.012,6.012,0,0,0,4.89-2.37l1.41,1.439A7.6,7.6,0,0,1,1861.075,2573.589Zm-5.61-9.18h10.769a5.108,5.108,0,0,0-5.219-5.039A5.476,5.476,0,0,0,1855.465,2564.409Z"/>
        <path id="Pfad_3247" data-name="Pfad 3247" d="M1885.015,2559.55l3.45,2.04c2.639,1.559,4.17,3.33,4.17,5.939,0,3.66-2.67,6.06-6.84,6.06-4.38,0-6.72-2.85-7.17-6.539l2.189-.631c.331,2.49,1.92,4.92,5.1,4.92,2.67,0,4.2-1.529,4.2-3.749,0-1.471-.809-2.79-2.969-4.021l-3.21-1.889c-2.581-1.5-4.47-2.88-4.47-6,0-3.06,2.34-5.55,6.269-5.55,3.721,0,5.941,1.95,6.661,5.25l-2.13.63a4.417,4.417,0,0,0-4.62-3.69c-2.31,0-3.72,1.35-3.72,3.24C1881.925,2557.42,1882.975,2558.41,1885.015,2559.55Z"/>
        <path id="Pfad_3248" data-name="Pfad 3248" d="M1908.3,2561.89a5.768,5.768,0,0,0-10.529,3.509,5.769,5.769,0,0,0,10.649,3.33l1.47,1.44a7.516,7.516,0,0,1-6.39,3.42,8.175,8.175,0,1,1,0-16.349,7.6,7.6,0,0,1,6.3,3.15Z"/>
        <path id="Pfad_3249" data-name="Pfad 3249" d="M1912.975,2573.109v-22.5h2.4v7.11h10.26v15.389h-2.4v-13.29h-7.86v13.29Z"/>
        <path id="Pfad_3250" data-name="Pfad 3250" d="M1937.273,2557.72v2.13h-4.5v13.259h-2.4V2557.72Z"/>
        <path id="Pfad_3251" data-name="Pfad 3251" d="M1939.734,2553.28a1.493,1.493,0,0,1,1.531-1.5,1.53,1.53,0,1,1-1.531,1.5Zm.33,19.829V2557.72h2.4v15.389Z"/>
        <path id="Pfad_3252" data-name="Pfad 3252" d="M1946,2557.72h1.8v-7.11h6.87v2.1h-4.47v5.01h4.29v2.1h-4.29v13.29h-2.4v-13.29H1946Z"/>
        <path id="Pfad_3253" data-name="Pfad 3253" d="M1957.674,2559.819H1955.9v-2.1h1.771v-4.11h2.4v4.11h4.74v2.1h-4.74v11.16h4.29v2.13h-6.689Z"/>
        <path id="Pfad_3254" data-name="Pfad 3254" d="M1979.333,2563.9l2.04.93c1.98.9,3.329,2.1,3.329,4.351,0,2.579-2.039,4.409-5.249,4.409a5.179,5.179,0,0,1-5.4-4.02l1.89-1.019a3.665,3.665,0,0,0,3.66,2.939c1.589,0,2.7-.809,2.7-2.309,0-1.08-.75-1.8-2.34-2.521l-1.89-.87c-1.98-.9-3.36-2.039-3.36-4.35,0-2.4,2.01-4.2,4.8-4.2a5.219,5.219,0,0,1,5.189,3.48l-1.8.99a3.447,3.447,0,0,0-3.329-2.431,2.252,2.252,0,0,0-2.52,2.13C1977.053,2562.55,1977.772,2563.18,1979.333,2563.9Z"/>
        <path id="Pfad_3255" data-name="Pfad 3255" d="M1996.643,2573.589c-2.76,0-5.071-1.2-5.911-3h-.089a10.459,10.459,0,0,1,.089,1.62v7.8h-2.4V2557.72h2.25v1.05a11.583,11.583,0,0,1-.09,1.62h.09a7.015,7.015,0,0,1,6.18-3.15c4.59,0,7.859,3.449,7.859,8.159C2004.622,2570.14,2001.322,2573.589,1996.643,2573.589Zm-6-8.19a5.766,5.766,0,1,0,5.79-6.029A5.725,5.725,0,0,0,1990.643,2565.4Z"/>
        <path id="Pfad_3256" data-name="Pfad 3256" d="M2007.893,2553.28a1.492,1.492,0,0,1,1.53-1.5,1.53,1.53,0,1,1-1.53,1.5Zm.33,19.829V2557.72h2.4v15.389Z"/>
        <path id="Pfad_3257" data-name="Pfad 3257" d="M2022.353,2573.589a8.175,8.175,0,0,1-.031-16.349c4.5,0,7.59,3.51,7.59,8.159,0,.3-.03.81-.06,1.05h-13.11a5.516,5.516,0,0,0,5.64,4.981,6.011,6.011,0,0,0,4.889-2.37l1.411,1.439A7.6,7.6,0,0,1,2022.353,2573.589Zm-5.611-9.18h10.77a5.109,5.109,0,0,0-5.22-5.039A5.477,5.477,0,0,0,2016.742,2564.409Z"/>
        <path id="Pfad_3258" data-name="Pfad 3258" d="M2039.9,2557.24c3.061,0,5.311,1.44,6.061,3.239h.09c-.031-.479-.061-.929-.061-1.62v-1.139h2.221v22.289h-11.55v-2.13h9.15v-6.359a12.563,12.563,0,0,1,.089-1.651h-.089c-.661,1.74-2.85,3.27-5.82,3.27a7.632,7.632,0,0,1-7.77-7.95C2032.223,2560.569,2035.433,2557.24,2039.9,2557.24Zm-5.219,7.919a5.627,5.627,0,1,0,5.61-5.789A5.535,5.535,0,0,0,2034.683,2565.159Z"/>
        <path id="Pfad_3259" data-name="Pfad 3259" d="M2059.913,2573.589a8.175,8.175,0,0,1-.03-16.349c4.5,0,7.59,3.51,7.59,8.159,0,.3-.031.81-.061,1.05H2054.3a5.514,5.514,0,0,0,5.639,4.981,6.012,6.012,0,0,0,4.89-2.37l1.41,1.439A7.6,7.6,0,0,1,2059.913,2573.589Zm-5.61-9.18h10.769a5.108,5.108,0,0,0-5.219-5.039A5.476,5.476,0,0,0,2054.3,2564.409Z"/>
        <path id="Pfad_3260" data-name="Pfad 3260" d="M2070.923,2550.61h2.4v20.369h4.441v2.13h-6.84Z"/>
        <path id="Pfad_3261" data-name="Pfad 3261" d="M2080.283,2567.949v-8.13h-1.86v-2.1h1.86v-4.11h2.4v4.11h5.16v2.1h-5.16v7.89c0,2.34,1.29,3.51,3.42,3.51a3.921,3.921,0,0,0,1.379-.21v2.1a4.886,4.886,0,0,1-1.74.3C2082.263,2573.409,2080.283,2571.459,2080.283,2567.949Z"/>
        <path id="Pfad_3262" data-name="Pfad 3262" d="M2119.431,2573.109h-2.4v-10.2a3.48,3.48,0,1,0-6.96,0v10.2h-2.4v-10.2a3.5,3.5,0,1,0-6.99,0v10.2h-2.4v-10.2a5.589,5.589,0,0,1,5.88-5.669,5.231,5.231,0,0,1,4.739,2.55,5.287,5.287,0,0,1,4.71-2.55,5.489,5.489,0,0,1,5.82,5.669Z"/>
        <path id="Pfad_3263" data-name="Pfad 3263" d="M2123.662,2553.28a1.492,1.492,0,0,1,1.53-1.5,1.53,1.53,0,1,1-1.53,1.5Zm.33,19.829V2557.72h2.4v15.389Z"/>
        <path id="Pfad_3264" data-name="Pfad 3264" d="M2131.7,2559.819h-1.77v-2.1h1.77v-4.11h2.4v4.11h4.74v2.1h-4.74v11.16h4.29v2.13h-6.69Z"/>
        <path id="Pfad_3265" data-name="Pfad 3265" d="M2149.191,2553.28a1.493,1.493,0,0,1,1.531-1.5,1.53,1.53,0,1,1-1.531,1.5Zm.33,19.829V2557.72h2.4v15.389Z"/>
        <path id="Pfad_3266" data-name="Pfad 3266" d="M2156.691,2573.109v-22.5h2.4v7.11h10.26v15.389h-2.4v-13.29h-7.86v13.29Z"/>
        <path id="Pfad_3267" data-name="Pfad 3267" d="M2180.99,2557.72v2.13h-4.5v13.259h-2.4V2557.72Z"/>
        <path id="Pfad_3268" data-name="Pfad 3268" d="M2190.321,2573.589a8.175,8.175,0,0,1-.03-16.349c4.5,0,7.59,3.51,7.59,8.159,0,.3-.03.81-.061,1.05h-13.109a5.515,5.515,0,0,0,5.64,4.981,6.011,6.011,0,0,0,4.889-2.37l1.41,1.439A7.6,7.6,0,0,1,2190.321,2573.589Zm-5.61-9.18h10.769a5.108,5.108,0,0,0-5.219-5.039A5.477,5.477,0,0,0,2184.711,2564.409Z"/>
        <path id="Pfad_3269" data-name="Pfad 3269" d="M2213.99,2557.72v15.389h-2.4v-13.29h-7.861v13.29h-2.4V2557.72Z"/>
        <path id="Pfad_3270" data-name="Pfad 3270" d="M2242.79,2573.109h-3.51l-3.659-13.29h-.12l-3.66,13.29h-3.361l-4.168-15.389h2.549l3.27,13.259h.12l3.54-13.259h3.63l3.539,13.259h.12l3.271-13.259h2.489Z"/>
        <path id="Pfad_3271" data-name="Pfad 3271" d="M2256.74,2573.589a8.175,8.175,0,0,1-.03-16.349c4.5,0,7.59,3.51,7.59,8.159,0,.3-.03.81-.061,1.05H2251.13a5.515,5.515,0,0,0,5.64,4.981,6.011,6.011,0,0,0,4.889-2.37l1.41,1.439A7.6,7.6,0,0,1,2256.74,2573.589Zm-5.61-9.18H2261.9a5.108,5.108,0,0,0-5.219-5.039A5.477,5.477,0,0,0,2251.13,2564.409Z"/>
        <path id="Pfad_3272" data-name="Pfad 3272" d="M2279.57,2561.89a5.768,5.768,0,0,0-10.529,3.509,5.769,5.769,0,0,0,10.649,3.33l1.47,1.44a7.514,7.514,0,0,1-6.389,3.42,8.175,8.175,0,1,1,0-16.349,7.6,7.6,0,0,1,6.3,3.15Z"/>
        <path id="Pfad_3273" data-name="Pfad 3273" d="M2286.649,2573.109h-2.4V2550.64h2.4v8.73h.121a5.061,5.061,0,0,1,4.379-2.13c3.81,0,5.79,2.55,5.79,5.879v9.99h-2.4v-9.75a3.78,3.78,0,0,0-3.93-3.989,3.82,3.82,0,0,0-3.96,3.989Z"/>
        <path id="Pfad_3274" data-name="Pfad 3274" d="M2305.34,2563.9l2.04.93c1.979.9,3.329,2.1,3.329,4.351,0,2.579-2.039,4.409-5.249,4.409a5.179,5.179,0,0,1-5.4-4.02l1.89-1.019a3.663,3.663,0,0,0,3.659,2.939c1.59,0,2.7-.809,2.7-2.309,0-1.08-.75-1.8-2.34-2.521l-1.89-.87c-1.98-.9-3.36-2.039-3.36-4.35,0-2.4,2.009-4.2,4.8-4.2a5.219,5.219,0,0,1,5.189,3.48l-1.8.99a3.447,3.447,0,0,0-3.329-2.431,2.252,2.252,0,0,0-2.52,2.13C2303.06,2562.55,2303.779,2563.18,2305.34,2563.9Z"/>
        <path id="Pfad_3275" data-name="Pfad 3275" d="M2321.3,2573.589a8.175,8.175,0,0,1-.03-16.349c4.5,0,7.589,3.51,7.589,8.159,0,.3-.03.81-.06,1.05h-13.11a5.515,5.515,0,0,0,5.64,4.981,6.013,6.013,0,0,0,4.89-2.37l1.41,1.439A7.6,7.6,0,0,1,2321.3,2573.589Zm-5.611-9.18h10.77a5.109,5.109,0,0,0-5.22-5.039A5.478,5.478,0,0,0,2315.689,2564.409Z"/>
        <path id="Pfad_3276" data-name="Pfad 3276" d="M2332.31,2550.61h2.4v20.369h4.44v2.13h-6.839Z"/>
        <path id="Pfad_3277" data-name="Pfad 3277" d="M2347.939,2557.24a6,6,0,0,1,6.36,6.15v9.719h-2.4v-9.75a3.96,3.96,0,1,0-7.92,0v9.75h-2.4v-9.78C2341.58,2559.729,2344.22,2557.24,2347.939,2557.24Z"/>
        <path id="Pfad_3278" data-name="Pfad 3278" d="M2369.689,2557.72v-7.11h2.4v22.5H2358.83V2557.72Zm0,2.1h-8.46v11.16h8.46Z"/>
        <path id="Pfad_3279" data-name="Pfad 3279" d="M2383.819,2573.589a8.175,8.175,0,0,1-.03-16.349c4.5,0,7.59,3.51,7.59,8.159,0,.3-.03.81-.061,1.05h-13.109a5.515,5.515,0,0,0,5.64,4.981,6.011,6.011,0,0,0,4.889-2.37l1.41,1.439A7.6,7.6,0,0,1,2383.819,2573.589Zm-5.61-9.18h10.77a5.109,5.109,0,0,0-5.22-5.039A5.477,5.477,0,0,0,2378.209,2564.409Z"/>
        <path id="Pfad_3280" data-name="Pfad 3280" d="M2407.488,2557.72v15.389h-2.4v-13.29h-7.86v13.29h-2.4V2557.72Z"/>
        <path id="Pfad_3281" data-name="Pfad 3281" d="M1832.725,2609.109h-8.219v-22.5h7.8c3.81,0,6.39,2.46,6.39,5.789a5.255,5.255,0,0,1-3.75,5.1,5.6,5.6,0,0,1,4.32,5.669C1839.265,2606.439,1836.625,2609.109,1832.725,2609.109Zm-5.76-12.479h5.25a3.934,3.934,0,1,0-.18-7.86h-5.07Zm9.78,6.21a4.052,4.052,0,0,0-4.11-4.08h-5.67v8.189h5.49A4.052,4.052,0,0,0,1836.745,2602.84Z"/>
        <path id="Pfad_3282" data-name="Pfad 3282" d="M1842.926,2609.109V2593.72h2.4v13.259h7.68V2593.72h2.4v15.389Z"/>
        <path id="Pfad_3283" data-name="Pfad 3283" d="M1871.965,2597.89a5.768,5.768,0,0,0-10.529,3.509,5.769,5.769,0,0,0,10.649,3.33l1.47,1.44a7.516,7.516,0,0,1-6.39,3.42,8.175,8.175,0,1,1,0-16.349,7.6,7.6,0,0,1,6.3,3.15Z"/>
        <path id="Pfad_3284" data-name="Pfad 3284" d="M1876.646,2609.109v-22.5h2.4v7.11h10.26v15.389h-2.4v-13.29h-7.86v13.29Z"/>
        <path id="Pfad_3285" data-name="Pfad 3285" d="M1897.885,2599.9l2.04.93c1.979.9,3.329,2.1,3.329,4.351,0,2.579-2.039,4.409-5.249,4.409a5.181,5.181,0,0,1-5.4-4.02l1.891-1.019a3.663,3.663,0,0,0,3.659,2.939c1.59,0,2.7-.809,2.7-2.309,0-1.08-.75-1.8-2.339-2.521l-1.89-.87c-1.98-.9-3.36-2.039-3.36-4.35,0-2.4,2.009-4.2,4.8-4.2a5.22,5.22,0,0,1,5.19,3.48l-1.8.99a3.447,3.447,0,0,0-3.329-2.431,2.253,2.253,0,0,0-2.521,2.13C1895.6,2598.55,1896.324,2599.18,1897.885,2599.9Z"/>
        <path id="Pfad_3286" data-name="Pfad 3286" d="M1907.425,2595.819h-1.771v-2.1h1.771v-4.11h2.4v4.11h4.74v2.1h-4.74v11.16h4.29v2.13h-6.689Z"/>
        <path id="Pfad_3287" data-name="Pfad 3287" d="M1924.225,2593.24c3.059,0,5.25,1.56,5.939,3.239h.061c-.031-.45-.061-.87-.061-1.649v-1.11h2.25v15.389h-2.25v-1.41c0-.69.03-1.2.061-1.679h-.061c-.75,2.009-3.029,3.54-6,3.569-4.89,0-8.01-3.51-8.01-8.19A7.823,7.823,0,0,1,1924.225,2593.24Zm5.879,8.159a5.766,5.766,0,1,0-5.79,6.031A5.707,5.707,0,0,0,1930.1,2601.4Z"/>
        <path id="Pfad_3288" data-name="Pfad 3288" d="M1945.494,2609.589c-2.7,0-5.1-1.17-6.09-3.18h-.09a13.161,13.161,0,0,1,.09,1.68v1.02h-2.25v-22.5h2.4v8.01a11.345,11.345,0,0,1-.09,1.68h.09a6.863,6.863,0,0,1,5.91-3.06c4.8,0,7.979,3.449,7.979,8.159C1953.443,2606.14,1950.294,2609.589,1945.494,2609.589Zm5.489-8.19a5.766,5.766,0,1,0-5.759,6.031A5.718,5.718,0,0,0,1950.983,2601.4Z"/>
        <path id="Pfad_3289" data-name="Pfad 3289" d="M1964,2609.589a8.175,8.175,0,0,1-.03-16.349c4.5,0,7.589,3.51,7.589,8.159,0,.3-.03.81-.06,1.05h-13.109a5.514,5.514,0,0,0,5.639,4.981,6.012,6.012,0,0,0,4.89-2.37l1.41,1.439A7.6,7.6,0,0,1,1964,2609.589Zm-5.61-9.18h10.769a5.109,5.109,0,0,0-5.22-5.039A5.476,5.476,0,0,0,1958.394,2600.409Z"/>
        <path id="Pfad_3290" data-name="Pfad 3290" d="M1987.673,2593.72v15.389h-2.4v-13.29h-7.86v13.29h-2.4V2593.72Z"/>
        <path id="Pfad_3291" data-name="Pfad 3291" d="M1996.4,2609.109l-5.819-15.389h2.67l4.649,13.259h.12l4.68-13.259h2.61l-5.79,15.389Z"/>
        <path id="Pfad_3292" data-name="Pfad 3292" d="M2014.793,2593.24c3.06,0,5.25,1.56,5.939,3.239h.061c-.03-.45-.061-.87-.061-1.649v-1.11h2.25v15.389h-2.25v-1.41c0-.69.031-1.2.061-1.679h-.061c-.75,2.009-3.029,3.54-6,3.569-4.889,0-8.009-3.51-8.009-8.19A7.823,7.823,0,0,1,2014.793,2593.24Zm5.88,8.159a5.766,5.766,0,1,0-5.79,6.031A5.707,5.707,0,0,0,2020.673,2601.4Z"/>
        <path id="Pfad_3293" data-name="Pfad 3293" d="M2034.623,2593.72v2.13h-4.5v13.259h-2.4V2593.72Z"/>
        <path id="Pfad_3294" data-name="Pfad 3294" d="M2037.083,2589.28a1.492,1.492,0,0,1,1.53-1.5,1.53,1.53,0,1,1-1.53,1.5Zm.33,19.829V2593.72h2.4v15.389Z"/>
        <path id="Pfad_3295" data-name="Pfad 3295" d="M2051.513,2593.24c3.059,0,5.25,1.56,5.939,3.239h.061c-.031-.45-.061-.87-.061-1.649v-1.11h2.25v15.389h-2.25v-1.41c0-.69.03-1.2.061-1.679h-.061c-.75,2.009-3.029,3.54-6,3.569-4.889,0-8.01-3.51-8.01-8.19A7.823,7.823,0,0,1,2051.513,2593.24Zm5.88,8.159a5.766,5.766,0,1,0-5.79,6.031A5.708,5.708,0,0,0,2057.393,2601.4Z"/>
        <path id="Pfad_3296" data-name="Pfad 3296" d="M2077.1,2593.72v15.389h-2.4v-13.29h-7.86v13.29h-2.4V2593.72Z"/>
        <path id="Pfad_3297" data-name="Pfad 3297" d="M2082.383,2595.819h-1.771v-2.1h1.771v-4.11h2.4v4.11h4.74v2.1h-4.74v11.16h4.29v2.13h-6.689Z"/>
        <path id="Pfad_3298" data-name="Pfad 3298" d="M2099.212,2609.589a8.175,8.175,0,0,1-.03-16.349c4.5,0,7.589,3.51,7.589,8.159,0,.3-.03.81-.06,1.05H2093.6a5.514,5.514,0,0,0,5.639,4.981,6.012,6.012,0,0,0,4.89-2.37l1.41,1.439A7.6,7.6,0,0,1,2099.212,2609.589Zm-5.61-9.18h10.769a5.109,5.109,0,0,0-5.22-5.039A5.476,5.476,0,0,0,2093.6,2600.409Z"/>
        <path id="Pfad_3299" data-name="Pfad 3299" d="M2122.882,2593.72v15.389h-2.4v-13.29h-7.86v13.29h-2.4V2593.72Z"/>
        <path id="Pfad_3300" data-name="Pfad 3300" d="M2128.941,2610.789l-1.289,2.91-1.08-.39,1.14-2.88c.15-.33.269-.659.39-.99a1.517,1.517,0,0,1-1.29-1.589,1.445,1.445,0,0,1,1.44-1.531,1.426,1.426,0,0,1,1.53,1.56A7.35,7.35,0,0,1,2128.941,2610.789Z"/>
        <path id="Pfad_3301" data-name="Pfad 3301" d="M2148.561,2593.24c2.49,0,4.919,1.079,5.879,2.88h.09c-.029-.421-.059-.841-.059-1.65v-7.86h2.37v22.5h-2.22v-1.259a12.179,12.179,0,0,1,.09-1.651h-.09c-1.051,2.22-3.391,3.39-6.09,3.39-4.8,0-7.95-3.449-7.95-8.19C2140.581,2596.689,2143.761,2593.24,2148.561,2593.24Zm6,8.159a5.765,5.765,0,1,0-5.76,6A5.7,5.7,0,0,0,2154.561,2601.4Z"/>
        <path id="Pfad_3302" data-name="Pfad 3302" d="M2161.281,2589.28a1.493,1.493,0,0,1,1.531-1.5,1.53,1.53,0,1,1-1.531,1.5Zm.33,19.829V2593.72h2.4v15.389Z"/>
        <path id="Pfad_3303" data-name="Pfad 3303" d="M2175.741,2609.589a8.175,8.175,0,0,1-.03-16.349c4.5,0,7.59,3.51,7.59,8.159,0,.3-.03.81-.061,1.05h-13.109a5.515,5.515,0,0,0,5.64,4.981,6.011,6.011,0,0,0,4.889-2.37l1.41,1.439A7.6,7.6,0,0,1,2175.741,2609.589Zm-5.61-9.18H2180.9a5.108,5.108,0,0,0-5.219-5.039A5.477,5.477,0,0,0,2170.131,2600.409Z"/>
        <path id="Pfad_3304" data-name="Pfad 3304" d="M2194.491,2593.72h12.659v15.389h-12.659Zm10.26,13.259v-11.16h-7.86v11.16Z"/>
        <path id="Pfad_3305" data-name="Pfad 3305" d="M2210.66,2593.72h1.8v-7.11h6.87v2.1h-4.47v5.01h4.29v2.1h-4.29v13.29h-2.4v-13.29h-1.8Z"/>
        <path id="Pfad_3306" data-name="Pfad 3306" d="M2220.53,2593.72h1.829v-2.01c0-3.51,1.891-5.28,5.191-5.28a7.464,7.464,0,0,1,1.769.18v2.13a3.947,3.947,0,0,0-1.38-.18c-1.979,0-3.179,1.08-3.179,3.36v1.8h4.109v2.1h-4.109v13.29h-2.4v-13.29h-1.829Z"/>
        <path id="Pfad_3307" data-name="Pfad 3307" d="M2238.08,2609.589a8.175,8.175,0,0,1-.03-16.349c4.5,0,7.59,3.51,7.59,8.159,0,.3-.031.81-.061,1.05H2232.47a5.514,5.514,0,0,0,5.639,4.981,6.012,6.012,0,0,0,4.89-2.37l1.41,1.439A7.6,7.6,0,0,1,2238.08,2609.589Zm-5.61-9.18h10.769a5.108,5.108,0,0,0-5.219-5.039A5.476,5.476,0,0,0,2232.47,2600.409Z"/>
        <path id="Pfad_3308" data-name="Pfad 3308" d="M2261.75,2593.72v15.389h-2.4v-13.29h-7.861v13.29h-2.4V2593.72Z"/>
        <path id="Pfad_3309" data-name="Pfad 3309" d="M2273.45,2609.589a8.175,8.175,0,0,1-.03-16.349c4.5,0,7.59,3.51,7.59,8.159,0,.3-.031.81-.061,1.05H2267.84a5.514,5.514,0,0,0,5.639,4.981,6.012,6.012,0,0,0,4.89-2.37l1.41,1.439A7.6,7.6,0,0,1,2273.45,2609.589Zm-5.61-9.18h10.769a5.108,5.108,0,0,0-5.219-5.039A5.476,5.476,0,0,0,2267.84,2600.409Z"/>
        <path id="Pfad_3310" data-name="Pfad 3310" d="M2292.2,2609.109V2593.72h2.4v13.259h7.679V2593.72h2.4v15.389Z"/>
        <path id="Pfad_3311" data-name="Pfad 3311" d="M2322.079,2593.72v15.389h-2.4v-13.29h-7.861v13.29h-2.4V2593.72Z"/>
        <path id="Pfad_3312" data-name="Pfad 3312" d="M2333.688,2593.24c2.491,0,4.92,1.079,5.88,2.88h.09c-.029-.421-.059-.841-.059-1.65v-7.86h2.37v22.5h-2.22v-1.259a12.174,12.174,0,0,1,.09-1.651h-.09c-1.051,2.22-3.391,3.39-6.09,3.39-4.8,0-7.95-3.449-7.95-8.19C2325.709,2596.689,2328.889,2593.24,2333.688,2593.24Zm6,8.159a5.764,5.764,0,1,0-5.759,6A5.7,5.7,0,0,0,2339.688,2601.4Z"/>
        <path id="Pfad_3313" data-name="Pfad 3313" d="M2357.928,2609.109l-5.82-15.389h2.67l4.65,13.259h.12l4.68-13.259h2.61l-5.79,15.389Z"/>
        <path id="Pfad_3314" data-name="Pfad 3314" d="M2369.419,2589.28a1.492,1.492,0,0,1,1.53-1.5,1.53,1.53,0,1,1-1.53,1.5Zm.33,19.829V2593.72h2.4v15.389Z"/>
        <path id="Pfad_3315" data-name="Pfad 3315" d="M2383.879,2609.589a8.175,8.175,0,0,1-.03-16.349c4.5,0,7.589,3.51,7.589,8.159,0,.3-.03.81-.06,1.05h-13.109a5.514,5.514,0,0,0,5.639,4.981,6.012,6.012,0,0,0,4.89-2.37l1.41,1.439A7.6,7.6,0,0,1,2383.879,2609.589Zm-5.61-9.18h10.769a5.109,5.109,0,0,0-5.22-5.039A5.476,5.476,0,0,0,2378.269,2600.409Z"/>
        <path id="Pfad_3316" data-name="Pfad 3316" d="M2394.889,2586.61h2.4v20.369h4.441v2.13h-6.84Z"/>
        <path id="Pfad_3317" data-name="Pfad 3317" d="M2402.929,2593.72h1.8v-7.11h6.87v2.1h-4.47v5.01h4.29v2.1h-4.29v13.29h-2.4v-13.29h-1.8Z"/>
        <path id="Pfad_3318" data-name="Pfad 3318" d="M2420.6,2593.24c3.059,0,5.25,1.56,5.939,3.239h.061c-.031-.45-.061-.87-.061-1.649v-1.11h2.25v15.389h-2.25v-1.41c0-.69.03-1.2.061-1.679h-.061c-.75,2.009-3.029,3.54-6,3.569-4.89,0-8.01-3.51-8.01-8.19A7.823,7.823,0,0,1,2420.6,2593.24Zm5.88,8.159a5.766,5.766,0,1,0-5.791,6.031A5.708,5.708,0,0,0,2426.479,2601.4Zm-10.2-12.179a1.621,1.621,0,0,1,1.62-1.56,1.59,1.59,0,0,1,0,3.18A1.633,1.633,0,0,1,2416.278,2589.22Zm6.3,0a1.615,1.615,0,0,1,1.59-1.56,1.59,1.59,0,1,1,0,3.18A1.627,1.627,0,0,1,2422.578,2589.22Z"/>
        <path id="Pfad_3319" data-name="Pfad 3319" d="M2433.528,2586.61h2.4v20.369h4.44v2.13h-6.84Z"/>
        <path id="Pfad_3320" data-name="Pfad 3320" d="M2443.339,2595.819h-1.771v-2.1h1.771v-4.11h2.4v4.11h4.741v2.1h-4.741v11.16h4.29v2.13h-6.689Z"/>
        <path id="Pfad_3321" data-name="Pfad 3321" d="M2453.088,2589.28a1.492,1.492,0,0,1,1.53-1.5,1.53,1.53,0,1,1-1.53,1.5Zm.33,19.829V2593.72h2.4v15.389Z"/>
        <path id="Pfad_3322" data-name="Pfad 3322" d="M2460.107,2607.069l2.04-3.389a5.388,5.388,0,0,1-2.609-4.8c0-3.51,2.76-5.88,6.629-5.88a8.842,8.842,0,0,1,2.221.27l2.279-3.69,2.01,1.14-2.22,3.509a5.565,5.565,0,0,1,2.37,4.651c0,3.63-2.82,5.819-6.66,5.819a7.816,7.816,0,0,1-1.92-.21l-1.529,2.58h9.51v8.94h-12.121Zm1.861-8.16c0,2.34,1.889,3.691,4.2,3.691,2.37,0,4.2-1.321,4.2-3.691,0-2.4-1.769-3.779-4.2-3.779C2463.8,2595.13,2461.968,2596.51,2461.968,2598.909Zm7.889,15v-4.77h-7.41v4.77Z"/>
        <path id="Pfad_3323" data-name="Pfad 3323" d="M2483.358,2609.589a8.175,8.175,0,0,1-.03-16.349c4.5,0,7.59,3.51,7.59,8.159,0,.3-.03.81-.061,1.05h-13.109a5.515,5.515,0,0,0,5.64,4.981,6.012,6.012,0,0,0,4.889-2.37l1.411,1.439A7.6,7.6,0,0,1,2483.358,2609.589Zm-5.61-9.18h10.77a5.109,5.109,0,0,0-5.22-5.039A5.477,5.477,0,0,0,2477.748,2600.409Z"/>
        <path id="Pfad_3324" data-name="Pfad 3324" d="M1838.575,2622.61l1.98,22.5h-2.55l-.6-7.08h-10.679l-.6,7.08h-2.52l1.98-22.5Zm-11.67,13.23h10.32l-.96-11.07h-8.4Z"/>
        <path id="Pfad_3325" data-name="Pfad 3325" d="M1851.534,2629.72v2.13h-4.5v13.259h-2.4V2629.72Z"/>
        <path id="Pfad_3326" data-name="Pfad 3326" d="M1854.865,2631.819h-1.77v-2.1h1.77v-4.11h2.4v4.11h4.74v2.1h-4.74v11.16h4.29v2.13h-6.69Z"/>
        <path id="Pfad_3327" data-name="Pfad 3327" d="M1879.554,2629.24c2.49,0,4.92,1.079,5.88,2.88h.089c-.029-.421-.059-.841-.059-1.65v-7.86h2.37v22.5h-2.22v-1.259a12.359,12.359,0,0,1,.09-1.651h-.09c-1.051,2.22-3.39,3.39-6.09,3.39-4.8,0-7.95-3.449-7.95-8.19C1871.574,2632.689,1874.754,2629.24,1879.554,2629.24Zm6,8.159a5.765,5.765,0,1,0-5.76,6A5.7,5.7,0,0,0,1885.554,2637.4Z"/>
        <path id="Pfad_3328" data-name="Pfad 3328" d="M1899.564,2645.589a8.175,8.175,0,0,1-.03-16.349c4.5,0,7.59,3.51,7.59,8.159,0,.3-.03.81-.061,1.05h-13.109a5.515,5.515,0,0,0,5.64,4.981,6.011,6.011,0,0,0,4.889-2.37l1.411,1.439A7.6,7.6,0,0,1,1899.564,2645.589Zm-5.61-9.18h10.77a5.109,5.109,0,0,0-5.22-5.039A5.477,5.477,0,0,0,1893.954,2636.409Z"/>
        <path id="Pfad_3329" data-name="Pfad 3329" d="M1914.414,2635.9l2.04.93c1.98.9,3.329,2.1,3.329,4.351,0,2.579-2.039,4.409-5.249,4.409a5.179,5.179,0,0,1-5.4-4.02l1.89-1.019a3.664,3.664,0,0,0,3.66,2.939c1.589,0,2.7-.809,2.7-2.309,0-1.08-.75-1.8-2.34-2.521l-1.89-.87c-1.98-.9-3.36-2.039-3.36-4.35,0-2.4,2.01-4.2,4.8-4.2a5.218,5.218,0,0,1,5.189,3.48l-1.8.99a3.447,3.447,0,0,0-3.329-2.431,2.252,2.252,0,0,0-2.52,2.13C1912.134,2634.55,1912.854,2635.18,1914.414,2635.9Z"/>
        <path id="Pfad_3330" data-name="Pfad 3330" d="M1931.4,2622.61h2.459v10.35a14.534,14.534,0,0,0,2.37.149c4.32,0,7.41-2.79,7.41-7.229,0-1.02-.03-2.28-.12-3.27h2.46c.089,1.08.12,2.22.12,3.18,0,4.56-2.34,7.71-6.21,8.939l7.05,10.38h-3l-6.661-9.87c-.449.031-.9.061-1.379.061a15.2,15.2,0,0,1-2.04-.12v9.929H1931.4Z"/>
        <path id="Pfad_3331" data-name="Pfad 3331" d="M1947.924,2637.4a8.13,8.13,0,1,1,8.13,8.19A7.94,7.94,0,0,1,1947.924,2637.4Zm13.829,0a5.687,5.687,0,0,0-5.7-6.029c-3.3,0-5.67,2.55-5.67,6.029,0,3.451,2.369,6.031,5.67,6.031A5.705,5.705,0,0,0,1961.753,2637.4Zm-10.44-12.179a1.622,1.622,0,0,1,1.621-1.56,1.59,1.59,0,0,1,0,3.18A1.633,1.633,0,0,1,1951.313,2625.22Zm6.3,0a1.615,1.615,0,0,1,1.59-1.56,1.59,1.59,0,1,1,0,3.18A1.627,1.627,0,0,1,1957.613,2625.22Z"/>
        <path id="Pfad_3332" data-name="Pfad 3332" d="M1967.754,2622.61h2.4v20.369h4.441v2.13h-6.84Z"/>
        <path id="Pfad_3333" data-name="Pfad 3333" d="M1983.383,2629.24a6,6,0,0,1,6.359,6.15v9.719h-2.4v-9.75a3.96,3.96,0,1,0-7.92,0v9.75h-2.4v-9.78C1977.023,2631.729,1979.663,2629.24,1983.383,2629.24Z"/>
        <path id="Pfad_3334" data-name="Pfad 3334" d="M2001.233,2645.589a8.175,8.175,0,0,1-.03-16.349c4.5,0,7.59,3.51,7.59,8.159,0,.3-.03.81-.061,1.05h-13.109a5.515,5.515,0,0,0,5.64,4.981,6.011,6.011,0,0,0,4.889-2.37l1.411,1.439A7.6,7.6,0,0,1,2001.233,2645.589Zm-5.61-9.18h10.77a5.109,5.109,0,0,0-5.22-5.039A5.477,5.477,0,0,0,1995.623,2636.409Z"/>
        <path id="Pfad_3335" data-name="Pfad 3335" d="M2019.143,2629.72v2.13h-4.5v13.259h-2.4V2629.72Z"/>
        <path id="Pfad_3336" data-name="Pfad 3336" d="M2025.653,2635.9l2.04.93c1.98.9,3.329,2.1,3.329,4.351,0,2.579-2.039,4.409-5.249,4.409a5.181,5.181,0,0,1-5.4-4.02l1.891-1.019a3.662,3.662,0,0,0,3.659,2.939c1.59,0,2.7-.809,2.7-2.309,0-1.08-.75-1.8-2.34-2.521l-1.889-.87c-1.981-.9-3.361-2.039-3.361-4.35,0-2.4,2.01-4.2,4.8-4.2a5.217,5.217,0,0,1,5.189,3.48l-1.8.99a3.449,3.449,0,0,0-3.329-2.431,2.253,2.253,0,0,0-2.521,2.13C2023.373,2634.55,2024.093,2635.18,2025.653,2635.9Z"/>
        <path id="Pfad_3337" data-name="Pfad 3337" d="M2058.712,2645.109h-3.51l-3.659-13.29h-.12l-3.66,13.29H2044.4l-4.169-15.389h2.55l3.27,13.259h.12l3.54-13.259h3.63l3.539,13.259h.12l3.27-13.259h2.49Z"/>
        <path id="Pfad_3338" data-name="Pfad 3338" d="M2065.522,2625.28a1.493,1.493,0,0,1,1.531-1.5,1.53,1.53,0,1,1-1.531,1.5Zm.331,19.829V2629.72h2.4v15.389Z"/>
        <path id="Pfad_3339" data-name="Pfad 3339" d="M2079.982,2645.589a8.175,8.175,0,0,1-.03-16.349c4.5,0,7.59,3.51,7.59,8.159,0,.3-.03.81-.061,1.05h-13.109a5.515,5.515,0,0,0,5.64,4.981,6.011,6.011,0,0,0,4.889-2.37l1.411,1.439A7.6,7.6,0,0,1,2079.982,2645.589Zm-5.61-9.18h10.77a5.109,5.109,0,0,0-5.22-5.039A5.477,5.477,0,0,0,2074.372,2636.409Z"/>
        <path id="Pfad_3340" data-name="Pfad 3340" d="M2097.861,2629.24c2.491,0,4.92,1.079,5.88,2.88h.09c-.029-.421-.06-.841-.06-1.65v-7.86h2.371v22.5h-2.22v-1.259a12.179,12.179,0,0,1,.09-1.651h-.09c-1.051,2.22-3.391,3.39-6.09,3.39-4.8,0-7.95-3.449-7.95-8.19C2089.882,2632.689,2093.062,2629.24,2097.861,2629.24Zm6,8.159a5.764,5.764,0,1,0-5.759,6A5.7,5.7,0,0,0,2103.861,2637.4Z"/>
        <path id="Pfad_3341" data-name="Pfad 3341" d="M2117.872,2645.589a8.175,8.175,0,0,1-.03-16.349c4.5,0,7.59,3.51,7.59,8.159,0,.3-.031.81-.061,1.05h-13.109a5.514,5.514,0,0,0,5.639,4.981,6.012,6.012,0,0,0,4.89-2.37l1.41,1.439A7.6,7.6,0,0,1,2117.872,2645.589Zm-5.61-9.18h10.769a5.108,5.108,0,0,0-5.219-5.039A5.476,5.476,0,0,0,2112.262,2636.409Z"/>
        <path id="Pfad_3342" data-name="Pfad 3342" d="M2135.661,2629.42v2.13a5.358,5.358,0,0,0-1.26-.151c-2.04,0-3.3,1.141-3.3,3.54v10.17h-2.4v-10.38c0-3.509,2.011-5.489,5.431-5.489A5.334,5.334,0,0,1,2135.661,2629.42Z"/>
        <path id="Pfad_3343" data-name="Pfad 3343" d="M2136.2,2643.819a1.5,1.5,0,1,1,1.5,1.5A1.505,1.505,0,0,1,2136.2,2643.819Z"/>
      </g>
      <g id="Gruppe_2788" data-name="Gruppe 2788">
        <path id="Pfad_3344" data-name="Pfad 3344" d="M1824,2494.16v-40.5h13.77c12.258,0,20.791,7.83,20.791,20.25s-8.533,20.25-20.791,20.25Zm26.676-20.3c0-8.532-5.076-13.5-12.906-13.5h-6.1v27.055h6.1C1845.6,2487.41,1850.676,2482.389,1850.676,2473.856Z"/>
        <path id="Pfad_3345" data-name="Pfad 3345" d="M1863.312,2458.088a4.482,4.482,0,1,1,4.482,4.428A4.425,4.425,0,0,1,1863.312,2458.088Zm.755,36.072v-27.972h7.561v27.972Z"/>
        <path id="Pfad_3346" data-name="Pfad 3346" d="M1892.147,2495.024c-8.856,0-15.012-6.263-15.012-14.85,0-8.694,6.21-14.85,14.9-14.85,8.208,0,13.716,6.21,13.716,14.85a11.424,11.424,0,0,1-.216,2.376h-20.574a6.864,6.864,0,0,0,7.236,5.778,8.054,8.054,0,0,0,7.021-3.294l4.374,4.59A13.571,13.571,0,0,1,1892.147,2495.024Zm-7.182-17.28h13.392c-.54-3.51-2.97-5.832-6.48-5.832C1888.2,2471.912,1885.721,2474.126,1884.965,2477.744Z"/>
        <path id="Pfad_3347" data-name="Pfad 3347" d="M1954.354,2465.54a13.347,13.347,0,0,0-11.286-5.886c-7.614,0-12.852,5.832-12.852,14.2,0,8.478,5.238,14.256,12.852,14.256a13.385,13.385,0,0,0,11.233-5.885l5.076,4.536c-3.511,5.183-9.127,8.261-16.309,8.261-12.474,0-20.682-8.8-20.682-21.114s8.64-21.114,20.682-21.114c7.182,0,13.015,3.185,16.525,8.37Z"/>
        <path id="Pfad_3348" data-name="Pfad 3348" d="M1966.451,2499.992h13.122v-5.508c0-1.08.054-1.889.108-2.484h-.216c-.54.973-2.322,2.376-6.048,2.376-5.832,0-10.1-4.644-10.1-11.016v-17.172h7.561v17.172a4.347,4.347,0,0,0,8.694,0v-17.172h7.56v40.393h-20.682Z"/>
      </g>
    </g>
  </g>
</svg>
