<svg xmlns="http://www.w3.org/2000/svg" viewBox="0 0 35763 393" width="35763" height="393"><path d="M0 0h393v393H0zM393 0h393v393H393zM786 0h393v393H786zM1179 0h393v393h-393zM1572 0h393v393h-393zM1965 0h393v393h-393zM2358 0h393v393h-393zM2751 0h393v393h-393zM3144 0h393v393h-393zM3537 0h393v393h-393zM3930 0h393v393h-393zM4323 0h393v393h-393zM4716 0h393v393h-393zM5109 0h393v393h-393zM5502 0h393v393h-393zM5895 0h393v393h-393zM6288 0h393v393h-393zM6681 0h393v393h-393zM7467 0v393h-393V0h393M7841.782 0l18.172 393h-357.84l-35.068-356.564L7841.782 0M8217.45 0l35.46 393h-324.391L7860.09 71.1 8217.45 0M8594.004 0l51.864 393h-292.651l-100.085-289.009L8594.004 0M8971.445 0l67.383 393h-262.621l-130.035-257.89L8971.445 0M9349.771 0l82.02 393h-234.302l-158.28-228.542L9349.771 0M9728.984 0l95.772 393h-207.692l-184.82-200.967L9728.984 0M10109.082 0l108.641 393h-182.793l-209.653-175.165L10109.082 0M10490.067 0l120.625 393h-159.603l-232.781-151.134L10490.067 0M10871.938 0l131.726 393h-138.125l-254.203-128.876L10871.938 0M11254.695 0l141.943 393h-118.356l-273.92-108.389L11254.695 0M11638.338 0l151.276 393h-100.297l-291.931-89.675L11638.338 0M12022.867 0l159.726 393h-83.949l-308.237-72.733L12022.867 0M12408.282 0l167.291 393h-69.309l-322.837-57.563L12408.282 0M12794.583 0l173.973 393h-56.381l-335.731-44.166L12794.583 0M13181.77 0l179.771 393h-45.162l-346.92-32.54L13181.77 0M13569.843 0l184.686 393h-35.655l-356.403-22.687L13569.843 0M13958.803 0l188.716 393h-27.857l-364.181-14.606L13958.803 0M14348.648 0l191.863 393h-21.769l-370.253-8.297L14348.648 0M14739.38 0l194.125 393h-17.391l-374.619-3.76L14739.38 0M15130.998 0l195.503 393h-14.723l-377.279-.996L15130.998 0M15523.502 0l195.998 393h-13.765l-378.235-.003L15523.502 0M15916.5 0l196 393h-392l196-393M16309.5 0l196 393h-392l196-393M16702.5 0l196 393h-392l196-393M17095.5 0l196 393h-392l196-393M17488.5 0l196 393h-392l196-393M17881.5 0l196 393h-392l196-393M18274.5 0l196 393h-392l196-393M18667.5 0l196 393h-392l196-393M19060.5 0l196 393h-392l196-393M19453.5 0l196 393h-392l196-393M19846.5 0l196 393h-392l196-393M20239.5 0l196 393h-392l196-393M20632.5 0l196 393h-392l196-393M21025.5 0l196 393h-392l196-393M21418.5 0l196 393h-392l196-393M21811.5 0l196 393h-392l196-393M22204.5 0l196 393h-392l196-393M22597.5 0c33.58 67.331 67.16 134.663 100.74 201.994 30.996 62.149 61.991 124.298 92.987 186.448.757 1.519 1.515 3.039 2.273 4.558h-392c49.255-98.761 98.51-197.523 147.765-296.284 15.235-30.547 30.469-61.094 45.704-91.641L22597.5 0M22990.5 0c4.843 0 9.493 1.926 12.918 5.351 33.883 64.496 66.267 130.217 96.725 196.132 28.114 61.215 54.302 122.236 78.991 182.032-2.738 4.803-6.7 8.107-10.856 9.485-64.103 0-128.012-1.926-190.696-5.351-62.684-3.424-123.869-8.074-183.128-12.918 44.675-94.422 91.277-188.652 139.378-281.656 17.243-31.132 35.711-60.765 54.372-88.472L22990.5 0M23383.5 0c9.45 0 18.523 3.758 25.206 10.441 34.17 61.799 65.417 125.989 92.905 190.556 25.373 60.326 46.988 120.274 65.678 177.831-6.062 7.926-14.515 12.928-23.345 14.172-62.931 0-125.486-3.758-185.65-10.441-60.164-6.682-117.403-15.755-170.885-25.205 40.32-90.296 84.398-180.214 131.401-267.742 19.153-31.688 40.697-60.452 62.618-85.458L23383.5 0M23776.5 0c13.821 0 27.09 5.496 36.863 15.269 34.444 59.241 64.612 121.978 89.283 185.267 22.772 59.482 40.048 118.412 53.047 173.846-9.216 10.889-21.929 17.502-35.193 18.618-61.821 0-123.09-5.496-180.863-15.269-57.773-9.773-111.27-23.043-159.27-36.864 36.188-86.38 77.871-172.209 123.832-254.541 20.966-32.216 45.428-60.155 70.442-82.598L23776.5 0M24169.5 0c17.956 0 35.194 7.141 47.891 19.837 34.702 56.821 63.849 118.184 85.855 180.263 20.312 58.684 33.484 116.651 41.099 170.076-12.199 13.692-28.942 21.828-46.401 22.824-60.77 0-120.824-7.141-176.335-19.837-55.511-12.697-105.467-29.935-148.281-47.891 32.278-82.677 71.697-164.637 116.672-242.054 22.68-32.715 49.902-59.874 77.841-79.893L24169.5 0M24562.5 0c21.854 0 42.835 8.691 58.288 24.144 34.946 54.538 63.13 114.606 82.623 175.545 17.993 57.932 27.295 114.991 29.835 166.521-15.013 16.335-35.554 25.908-56.968 26.79-59.78 0-118.687-8.691-172.066-24.144-53.379-15.453-99.996-36.434-137.922-58.288 28.593-79.185 65.876-157.497 109.922-230.28 24.296-33.186 54.121-59.61 84.819-77.342L24562.5 0M24955.5 0c25.516 0 50.013 10.147 68.055 28.19 35.175 52.395 62.455 111.244 79.588 171.113 15.814 57.225 21.481 113.431 19.252 163.182-17.655 18.817-41.766 29.74-66.895 30.515-58.849 0-116.68-10.147-168.055-28.19-51.376-18.042-94.857-42.539-128.19-68.055 25.13-75.904 60.407-150.79 103.58-219.22 25.815-33.628 58.085-59.361 91.374-74.946L24955.5 0M25348.5 0c28.942 0 56.728 11.509 77.192 31.974 35.39 50.39 61.824 108.101 76.748 166.968 13.776 56.563 16.042 111.971 9.353 160.058-20.128 21.14-47.577 33.325-76.182 34-57.979 0-114.802-11.509-164.303-31.974-49.502-20.465-90.049-48.251-119.086-77.193 21.891-72.835 55.292-144.515 97.648-208.874 27.235-34.041 61.793-59.127 97.505-72.704L25348.5 0M25741.5 0c32.131 0 62.979 12.778 85.699 35.498 35.589 48.523 61.235 105.174 74.104 163.107 11.878 55.948 10.978 110.613.136 157.15-22.429 23.303-52.987 36.663-84.828 37.245-57.168 0-113.053-12.778-160.81-35.498-47.757-22.72-85.572-53.568-110.609-85.699 18.875-69.979 50.528-138.674 92.124-199.241 28.558-34.427 65.245-58.911 103.214-70.617l.97-1.945M26134.5 0c35.084 0 68.768 13.952 93.576 38.761 35.773 46.794 60.691 102.463 71.655 159.533 10.121 55.378 6.29 109.355-8.397 154.457-24.561 25.304-57.997 39.753-92.834 40.249-56.418 0-111.435-13.952-157.576-38.761-46.142-24.808-81.427-58.491-102.761-93.576 16.084-67.333 46.119-133.265 87.011-190.321 29.782-34.784 68.441-58.71 108.5-68.685L26134.5 0M26527.5 0c37.801 0 74.093 15.033 100.822 41.763 35.944 45.203 60.19 99.969 69.404 156.244 8.504 54.854 1.976 108.198-16.249 151.98-26.522 27.146-62.606 42.596-100.199 43.013-55.728 0-109.945-15.033-154.6-41.763-44.656-26.729-77.615-63.021-95.541-100.822 13.515-64.899 42.062-128.289 82.306-182.116 30.909-35.111 71.381-58.525 113.363-66.907L26527.5 0M26920.5 0c40.282 0 78.956 16.019 107.439 44.503 36.098 43.751 59.732 97.693 67.347 153.243 7.028 54.375-1.963 107.141-23.418 149.717-28.311 28.829-66.813 45.192-106.924 45.537-55.096 0-108.585-16.019-151.883-44.503-43.299-28.483-74.133-67.157-88.948-107.439 11.169-62.677 38.358-123.746 78.01-174.624 31.938-35.41 74.066-58.357 117.803-65.283L26920.5 0M27313.5 0c42.527 0 83.355 16.912 113.425 46.983 36.239 42.437 59.319 95.633 65.486 150.526 5.693 53.942-5.525 106.186-29.903 147.671-29.931 30.35-70.621 47.541-113.008 47.82-54.527 0-107.355-16.912-149.425-46.983-42.071-30.07-70.983-70.899-82.983-113.425 9.047-60.667 35.005-119.635 74.123-167.845 32.869-35.682 76.495-58.204 121.82-63.815l.465-.932M27706.5 0c44.535 0 87.291 17.71 118.782 49.201 36.364 41.262 58.948 93.79 63.821 148.096 4.498 53.554-8.714 105.33-35.707 145.84-31.38 31.712-74.027 49.642-118.452 49.863-54.016 0-106.254-17.71-147.226-49.201-40.972-31.491-68.164-74.247-77.645-118.782 7.148-58.867 32.006-115.957 70.645-161.78 33.702-35.924 78.669-58.067 125.415-62.501l.367-.736M28099.5 0c46.307 0 90.764 18.415 123.508 51.159 36.475 40.224 58.621 92.164 62.352 145.951 3.444 53.213-11.527 104.576-40.827 144.224-32.659 32.913-77.033 51.497-123.255 51.666-53.566 0-105.283-18.415-145.286-51.159-40.003-32.743-65.677-77.201-72.936-123.508 5.472-57.28 29.36-112.711 67.577-156.428 34.436-36.138 80.586-57.947 128.586-61.341l.281-.564M28492.5 0c47.842 0 93.774 19.026 127.603 52.856 36.572 39.325 58.339 90.754 61.08 144.092 2.53 52.916-13.965 103.922-45.265 142.824-33.767 33.954-79.638 53.104-127.418 53.228-53.176 0-104.441-19.026-143.603-52.856-39.164-33.829-63.523-79.761-68.856-127.603 4.021-55.905 27.067-109.899 64.918-151.79 35.073-36.324 82.248-57.843 131.334-60.337l.207-.414" fill="#f7f7f7"/><path d="M28885.5 0c49.142 0 96.321 19.543 131.069 54.291 36.653 38.565 58.099 89.562 60.002 142.52 1.758 52.665-16.028 103.368-49.02 141.639-34.704 34.835-81.841 54.464-130.94 54.55-52.845 0-103.729-19.543-142.18-54.291-38.453-34.748-61.699-81.928-65.403-131.07 2.793-54.74 25.127-107.518 62.668-147.865 35.612-36.48 83.655-57.755 133.661-59.486l.143-.288" fill="#f7f7f6"/><path d="M29278.5 0c50.205 0 98.405 19.965 133.905 55.466 36.719 37.942 57.902 88.586 59.121 141.233 1.124 52.46-17.717 102.915-52.092 140.67-35.473 35.555-83.645 55.576-133.823 55.631-52.575 0-103.146-19.965-141.016-55.466-37.871-35.499-60.206-83.7-62.577-133.905 1.787-53.788 23.54-105.571 60.827-144.654 36.052-36.609 84.806-57.683 135.563-58.791l.092-.184" fill="#f7f6f1"/><path d="M29671.5 0c51.032 0 100.026 20.294 136.11 56.379 36.771 37.459 57.75 87.827 58.436 140.233.632 52.3-19.029 102.563-54.482 139.916-36.069 36.116-85.048 56.441-136.064 56.472-52.365 0-102.693-20.294-140.11-56.379-37.419-36.085-59.046-85.079-60.38-136.111 1.005-53.047 22.305-104.057 59.395-142.157 36.395-36.708 85.701-57.626 137.043-58.249l.052-.104" fill="#f8f3e9"/><path d="M30064.5 0c51.622 0 101.184 20.529 137.686 57.032 36.807 37.113 57.641 87.285 57.945 139.518.282 52.186-19.966 102.311-56.188 139.377-36.495 36.516-86.05 57.059-137.665 57.073-52.215 0-102.369-20.529-139.464-57.032-37.095-36.502-58.217-86.063-58.809-137.686.446-52.518 21.422-102.975 58.372-140.373 36.64-36.78 86.339-57.586 138.1-57.863l.023-.046" fill="#f8efda"/><path d="M30457.5 0c51.977 0 101.878 20.67 138.631 57.423 36.83 36.906 57.576 86.96 57.652 139.089.07 52.118-20.53 102.161-57.213 139.054-36.751 36.757-86.65 57.431-138.626 57.434-52.125 0-102.174-20.67-139.075-57.423-36.902-36.753-57.72-86.655-57.868-138.631.112-52.201 20.894-102.327 57.759-139.303 36.787-36.823 86.723-57.562 138.734-57.631l.006-.012" fill="#f9e9c3"/><path d="M30850.5 0c52.095 0 102.11 20.717 138.946 57.554C31026.283 94.39 31047 144.405 31047 196.5s-20.717 102.11-57.554 138.946C30952.61 372.283 30902.595 393 30850.5 393s-102.11-20.717-138.946-57.554C30674.717 298.61 30654 248.595 30654 196.5s20.717-102.11 57.554-138.946C30748.39 20.717 30798.405 0 30850.5 0" fill="#fae3aa"/><path d="M31243.5 0c52.095 0 102.11 20.717 138.946 57.554C31419.283 94.39 31440 144.405 31440 196.5s-20.717 102.11-57.554 138.946C31345.61 372.283 31295.595 393 31243.5 393s-102.11-20.717-138.946-57.554C31067.717 298.61 31047 248.595 31047 196.5s20.717-102.11 57.554-138.946C31141.39 20.717 31191.405 0 31243.5 0" fill="#fbdd94"/><path d="M31636.5 0c52.095 0 102.11 20.717 138.946 57.554C31812.283 94.39 31833 144.405 31833 196.5s-20.717 102.11-57.554 138.946C31738.61 372.283 31688.595 393 31636.5 393s-102.11-20.717-138.946-57.554C31460.717 298.61 31440 248.595 31440 196.5s20.717-102.11 57.554-138.946C31534.39 20.717 31584.405 0 31636.5 0" fill="#fcd882"/><path d="M32029.5 0c52.095 0 102.11 20.717 138.946 57.554C32205.283 94.39 32226 144.405 32226 196.5s-20.717 102.11-57.554 138.946C32131.61 372.283 32081.595 393 32029.5 393s-102.11-20.717-138.946-57.554C31853.717 298.61 31833 248.595 31833 196.5s20.717-102.11 57.554-138.946C31927.39 20.717 31977.405 0 32029.5 0" fill="#fcd575"/><path d="M32422.5 0c52.095 0 102.11 20.717 138.946 57.554C32598.283 94.39 32619 144.405 32619 196.5s-20.717 102.11-57.554 138.946C32524.61 372.283 32474.595 393 32422.5 393s-102.11-20.717-138.946-57.554C32246.717 298.61 32226 248.595 32226 196.5s20.717-102.11 57.554-138.946C32320.39 20.717 32370.405 0 32422.5 0" fill="#fdd26a"/><path d="M32815.5 0c52.095 0 102.11 20.717 138.946 57.554C32991.283 94.39 33012 144.405 33012 196.5s-20.717 102.11-57.554 138.946C32917.61 372.283 32867.595 393 32815.5 393s-102.11-20.717-138.946-57.554C32639.717 298.61 32619 248.595 32619 196.5s20.717-102.11 57.554-138.946C32713.39 20.717 32763.405 0 32815.5 0" fill="#fdd062"/><path d="M33208.5 0c52.095 0 102.11 20.717 138.946 57.554C33384.283 94.39 33405 144.405 33405 196.5s-20.717 102.11-57.554 138.946C33310.61 372.283 33260.595 393 33208.5 393s-102.11-20.717-138.946-57.554C33032.717 298.61 33012 248.595 33012 196.5s20.717-102.11 57.554-138.946C33106.39 20.717 33156.405 0 33208.5 0" fill="#fdce5c"/><path d="M33601.5 0c52.095 0 102.11 20.717 138.946 57.554C33777.283 94.39 33798 144.405 33798 196.5s-20.717 102.11-57.554 138.946C33703.61 372.283 33653.595 393 33601.5 393s-102.11-20.717-138.946-57.554C33425.717 298.61 33405 248.595 33405 196.5s20.717-102.11 57.554-138.946C33499.39 20.717 33549.405 0 33601.5 0" fill="#fecd58"/><path d="M33994.5 0c52.095 0 102.11 20.717 138.946 57.554C34170.283 94.39 34191 144.405 34191 196.5s-20.717 102.11-57.554 138.946C34096.61 372.283 34046.595 393 33994.5 393s-102.11-20.717-138.946-57.554C33818.717 298.61 33798 248.595 33798 196.5s20.717-102.11 57.554-138.946C33892.39 20.717 33942.405 0 33994.5 0" fill="#fecc54"/><path d="M34387.5 0c52.095 0 102.11 20.717 138.946 57.554C34563.283 94.39 34584 144.405 34584 196.5s-20.717 102.11-57.554 138.946C34489.61 372.283 34439.595 393 34387.5 393s-102.11-20.717-138.946-57.554C34211.717 298.61 34191 248.595 34191 196.5s20.717-102.11 57.554-138.946C34285.39 20.717 34335.405 0 34387.5 0" fill="#fecc52"/><path d="M34780.5 0c52.095 0 102.11 20.717 138.946 57.554C34956.283 94.39 34977 144.405 34977 196.5s-20.717 102.11-57.554 138.946C34882.61 372.283 34832.595 393 34780.5 393s-102.11-20.717-138.946-57.554C34604.717 298.61 34584 248.595 34584 196.5s20.717-102.11 57.554-138.946C34678.39 20.717 34728.405 0 34780.5 0" fill="#fecb50"/><path d="M35173.5 0c52.095 0 102.11 20.717 138.946 57.554C35349.283 94.39 35370 144.405 35370 196.5s-20.717 102.11-57.554 138.946C35275.61 372.283 35225.595 393 35173.5 393s-102.11-20.717-138.946-57.554C34997.717 298.61 34977 248.595 34977 196.5s20.717-102.11 57.554-138.946C35071.39 20.717 35121.405 0 35173.5 0M35566.5 0c52.095 0 102.11 20.717 138.946 57.554C35742.283 94.39 35763 144.405 35763 196.5s-20.717 102.11-57.554 138.946C35668.61 372.283 35618.595 393 35566.5 393s-102.11-20.717-138.946-57.554C35390.717 298.61 35370 248.595 35370 196.5s20.717-102.11 57.554-138.946C35464.39 20.717 35514.405 0 35566.5 0" fill="#fecb4f"/></svg>