<svg xmlns="http://www.w3.org/2000/svg" width="795.286" height="534.192" viewBox="0 0 795.286 534.192">
  <g id="Gruppe_2756" data-name="Gruppe 2756" transform="translate(-140 -3338)">
    <g id="Gruppe_2743" data-name="Gruppe 2743" transform="translate(140.143 3338)">
      <rect id="Rechteck_45" data-name="Rechteck 45" width="795.286" height="534.192" transform="translate(-0.143)" fill="#ededed"/>
    </g>
    <g id="Gruppe_2744" data-name="Gruppe 2744" transform="translate(232.322 3333.559)">
      <g id="Gruppe_2714" data-name="Gruppe 2714">
        <path id="Pfad_3185" data-name="Pfad 3185" d="M10.241,0V-13H22.708v-5.477H10.241V-25.6H24.177v-5.477H3.562V0ZM40.072.534C47.241.534,51.6-4.052,51.6-11.487S47.241-23.509,40.072-23.509,28.54-18.923,28.54-11.487,32.9.534,40.072.534Zm0-4.9c-2.939,0-4.72-1.915-4.72-5.3v-3.651c0-3.384,1.781-5.3,4.72-5.3s4.72,1.915,4.72,5.3v3.651C44.792-6.278,43.011-4.363,40.072-4.363ZM66.787.534c7.168,0,11.532-4.586,11.532-12.022S73.955-23.509,66.787-23.509,55.255-18.923,55.255-11.487,59.618.534,66.787.534Zm0-4.9c-2.939,0-4.72-1.915-4.72-5.3v-3.651c0-3.384,1.781-5.3,4.72-5.3s4.72,1.915,4.72,5.3v3.651C71.506-6.278,69.725-4.363,66.787-4.363ZM97.642,0h6.59V-32.948h-6.59v14.159h-.312c-1.158-2.761-3.117-4.72-6.812-4.72-5.076,0-8.638,3.7-8.638,12.022S85.443.534,90.518.534c3.7,0,5.655-1.959,6.812-4.72h.312ZM93.368-4.586c-2.939,0-4.631-1.915-4.631-5.12v-3.562c0-3.206,1.692-5.12,4.631-5.12,2.315,0,4.274,1.113,4.274,3.517V-8.1C97.642-5.7,95.683-4.586,93.368-4.586ZM109.887,0h20.659V-5.12h-7.035V-32.948H109.887v5.12h7.035V-5.12h-7.035Zm39.4-13.313-2,6.679h-.356l-2.093-6.679L141.5-22.975H134.42L143.681-.134l-1.425,3.918h-5.521V8.9h4.542c3.918,0,6.011-1.87,7.347-5.209l10.819-26.67h-6.723Z" transform="translate(224.678 286.508)"/>
        <line id="Linie_50" data-name="Linie 50" x2="156.727" transform="translate(227.584 308.796)" fill="none" stroke="#000" stroke-miterlimit="10" stroke-width="4"/>
        <line id="Linie_51" data-name="Linie 51" x2="156.727" transform="translate(227.584 234.441)" fill="none" stroke="#000" stroke-miterlimit="10" stroke-width="2"/>
      </g>
    </g>
  </g>
</svg>
