<svg xmlns="http://www.w3.org/2000/svg" width="1088.286" height="731" viewBox="0 0 1088.286 731">
  <g id="Gruppe_2828" data-name="Gruppe 2828" transform="translate(-140 -10910)">
    <g id="Gruppe_2813" data-name="Gruppe 2813">
      <g id="Gruppe_2759" data-name="Gruppe 2759" transform="translate(0 3298)">
        <g id="Gruppe_162" data-name="Gruppe 162" transform="translate(140.143 7612)">
          <g id="Gruppe_162-2" data-name="Gruppe 162">
            <rect id="Rechteck_45" data-name="Rechteck 45" width="1088.286" height="731" transform="translate(-0.143)" fill="#ededed"/>
          </g>
        </g>
        <g id="Gruppe_2754" data-name="Gruppe 2754" transform="translate(0 -20)">
          <line id="Linie_53" data-name="Linie 53" x2="260" transform="translate(554 7828)" fill="none" stroke="#000" stroke-width="2"/>
          <line id="Linie_54" data-name="Linie 54" x2="260" transform="translate(554 8127)" fill="none" stroke="#000" stroke-width="4"/>
          <g id="Gruppe_2827" data-name="Gruppe 2827" transform="translate(166.346 7692.376)">
            <path id="Pfad_3355" data-name="Pfad 3355" d="M508.845,464.23q0-11.587,0-23.176c0-2.118.508-2.61,2.671-2.612,1.763,0,3.527-.014,5.291,0,1.572.015,2.265.686,2.3,2.261.032,1.5.007,3.008.008,4.512,0,2.953.551,3.491,3.571,3.492q7.072,0,14.144,0c2.444,0,3.11.684,3.115,3.157,0,1.608-.023,3.216.008,4.823a2.175,2.175,0,0,0,2.408,2.377c1.815.018,3.631.015,5.445,0a2.18,2.18,0,0,0,2.49-2.438c.019-1.711-.012-3.423.009-5.134.024-1.976.782-2.755,2.716-2.782,1.711-.024,3.423-.031,5.134,0,1.762.035,2.551.823,2.587,2.594.036,1.814-.011,3.631.016,5.446a2.132,2.132,0,0,0,2.3,2.31c1.867.024,3.735.019,5.6,0a2.2,2.2,0,0,0,2.44-2.5c.016-5.031,0-10.062.008-15.092,0-2.493.535-3.034,2.97-3.035,1.608,0,3.215,0,4.823,0,1.951.006,2.586.621,2.617,2.6.027,1.711,0,3.423.01,5.134a2.2,2.2,0,0,0,2.3,2.506c1.916.069,3.839.066,5.756,0a2.219,2.219,0,0,0,2.347-2.507q.03-7.852,0-15.7c-.008-1.86-.912-2.614-3.054-2.615q-17.573-.008-35.145,0c-2.891,0-3.428-.538-3.43-3.441,0-1.4-.021-2.8.006-4.2.035-1.891.777-2.624,2.653-2.625q12.6-.008,25.2,0c2.775,0,3.506-.729,3.507-3.472,0-1.452.014-2.9,0-4.357a2.561,2.561,0,0,0-2.68-2.739c-1.814-.042-3.631,0-5.446-.015a2.114,2.114,0,0,1-2.422-2.351c-.04-1.762-.029-3.527,0-5.289.026-1.836.819-2.615,2.7-2.621,4.974-.016,9.949,0,14.922-.007,2.539,0,3.206-.681,3.207-3.237q0-7.383,0-14.767c0-2.042.745-2.79,2.816-2.82,1.659-.024,3.319.012,4.979-.011,1.753-.024,2.538-.82,2.549-2.562.011-1.815.021-3.631,0-5.446A2.129,2.129,0,0,0,600,365.562q-2.877-.044-5.757,0a2.154,2.154,0,0,0-2.31,2.325c-.037,1.814.011,3.631-.017,5.445-.027,1.755-.823,2.531-2.593,2.553-1.659.02-3.319-.011-4.979.009-2.046.025-2.815.8-2.821,2.793,0,1.555.01,3.111,0,4.668-.019,2.228-.669,2.95-2.851,2.961-5.808.029-11.616.007-17.425.007-2.85,0-5.7-.007-8.549.012a2.3,2.3,0,0,0-2.452,2.382c-.039,1.763-.006,3.527-.012,5.29-.006,1.982-.694,2.708-2.705,2.715-5.757.019-11.513.006-17.27.006-6.322,0-12.643-.011-18.965.011-1.742.006-2.515.838-2.526,2.59-.011,1.712.022,3.423-.011,5.134-.035,1.821-.772,2.544-2.553,2.546q-7.857.011-15.712,0c-1.786,0-2.474-.658-2.493-2.386q-.031-2.722,0-5.445a2.137,2.137,0,0,1,2.366-2.426c1.711-.039,3.423,0,5.134-.014,2.065-.024,2.809-.774,2.816-2.8.006-1.555-.008-3.112,0-4.668.016-2.164.637-2.793,2.748-2.793h35.455c2.758,0,3.443-.7,3.444-3.515q0-7.312,0-14.625c0-2.059.641-2.7,2.662-2.709q2.489-.008,4.979,0c2.063.006,2.622.581,2.627,2.7,0,1.66-.015,3.319.006,4.979a2.336,2.336,0,0,0,2.581,2.6q7.855.032,15.711,0c1.813-.006,2.568-.822,2.571-2.717.009-5.029,0-10.058.006-15.087,0-2.208.755-2.985,3-2.988q17.8-.022,35.6,0c2.291,0,3.026.792,3.029,3.13.006,4.977,0,9.954,0,14.932,0,1.96.75,2.719,2.7,2.735,1.66.014,3.32-.024,4.979.012,1.9.041,2.63.8,2.644,2.658.011,1.5,0,3.008,0,4.513,0,2.689-.545,3.232-3.309,3.237-4.77.009-9.539,0-14.308,0-2.52,0-3.229.7-3.233,3.177q0,2.023,0,4.046c0,2.389.769,3.182,3.132,3.186q9.023.018,18.045.012,13.918,0,27.836-.008c2.4,0,2.956.551,2.958,2.882q0,2.645,0,5.29a1.862,1.862,0,0,1-2.113,2.1c-1.764,0-3.527-.013-5.291,0-1.991.019-2.861.863-2.866,2.813q-.019,7.7,0,15.4c0,1.852.8,2.642,2.636,2.658,1.712.015,3.424-.032,5.134.015,1.817.05,2.5.781,2.5,2.6q.007,12.987,0,25.973c0,1.953-.547,2.5-2.465,2.511-1.763.008-3.527-.029-5.29.012a2.358,2.358,0,0,0-2.51,2.539c-.034,1.815-.028,3.631,0,5.446a2.3,2.3,0,0,0,2.46,2.571q2.721.072,5.445,0a2.285,2.285,0,0,0,2.454-2.542c.015-1.711-.015-3.423.009-5.134.027-1.942.782-2.727,2.741-2.784q2.487-.073,4.978,0c1.945.06,2.7.859,2.716,2.806.018,1.712-.012,3.423.009,5.134a2.278,2.278,0,0,0,2.489,2.521c1.814.043,3.631,0,5.446.017,1.63.019,2.349.74,2.368,2.375.021,1.815-.017,3.631.013,5.446a2.283,2.283,0,0,0,2.525,2.477c1.763.022,3.528-.031,5.29.017,1.838.05,2.612.863,2.648,2.716.028,1.451.009,2.9.006,4.356-.006,2.727-.635,3.35-3.428,3.354q-7.778.01-15.557,0-9.481,0-18.963,0c-3.128,0-3.65-.515-3.651-3.566,0-1.452.024-2.9-.007-4.356a2.309,2.309,0,0,0-2.495-2.543c-1.814-.046-3.631,0-5.445-.017-1.681-.021-2.308-.671-2.32-2.373-.011-1.763.011-3.527-.007-5.291a2.4,2.4,0,0,0-2.7-2.641c-1.712-.016-3.424.029-5.134-.014-1.928-.049-2.708-.863-2.713-2.8-.014-5.08,0-10.16-.007-15.239,0-1.958-.756-2.728-2.7-2.754q-2.489-.033-4.979,0c-1.883.027-2.659.794-2.662,2.625q-.013,7.774,0,15.549c0,1.806.825,2.639,2.653,2.67,1.763.029,3.527-.009,5.29.012a2.087,2.087,0,0,1,2.371,2.382c.022,1.867.029,3.735,0,5.6a2.059,2.059,0,0,1-2.325,2.274q-8.012.027-16.023,0c-1.672-.006-2.4-.838-2.409-2.722-.017-4.978-.006-9.956-.007-14.934,0-2.441-.71-3.181-3.094-3.184q-7.313-.011-14.626,0c-2.267,0-3.038.8-3.041,3.075,0,1.608-.007,3.215,0,4.823a2.35,2.35,0,0,0,2.64,2.672c1.711.032,3.423,0,5.134.011,1.806.011,2.587.743,2.617,2.5s.031,3.527,0,5.29a2.186,2.186,0,0,1-2.49,2.473q-7.927.021-15.856,0c-1.646,0-2.43-.811-2.459-2.508-.03-1.763.009-3.527-.012-5.29a2.207,2.207,0,0,0-2.455-2.5q-7.932-.022-15.865,0a2.332,2.332,0,0,0-2.541,2.627c-.018,1.815.015,3.631-.011,5.446a1.977,1.977,0,0,1-2.183,2.224c-1.918.035-3.838.03-5.757,0a2.08,2.08,0,0,1-2.315-2.294c-.033-1.815.009-3.631-.014-5.445a2.286,2.286,0,0,0-2.585-2.562c-1.608-.016-3.215.01-4.823-.007-2.264-.025-3-.751-3.022-2.969-.015-1.659.007-3.319-.007-4.979a2.352,2.352,0,0,0-2.44-2.572c-1.866-.047-3.735-.05-5.6.006a2.338,2.338,0,0,0-2.353,2.385c-.05,1.918-.047,3.838,0,5.756a2.3,2.3,0,0,0,2.478,2.406c1.814.047,3.63,0,5.445.017,1.708.017,2.32.639,2.331,2.345q.017,2.8,0,5.6c-.012,1.677-.645,2.3-2.369,2.315-1.763.017-3.527-.024-5.29.014a2.344,2.344,0,0,0-2.6,2.6c-.027,1.763-.032,3.527,0,5.29a2.142,2.142,0,0,1-2.15,2.506,59.839,59.839,0,0,1-6.061,0c-1.487-.075-2.094-.992-2.086-2.518C508.868,479.892,508.845,472.061,508.845,464.23Zm93.363-41.5c0,4.249-.006,8.5,0,12.749,0,1.981.954,2.957,2.93,2.96q12.748.019,25.5,0c2.052,0,3-.985,3-3.054q.007-12.671,0-25.341c0-2.094-.912-3.024-3.018-3.027q-12.749-.017-25.5,0c-2.005,0-2.909.943-2.913,2.964Q602.2,416.354,602.208,422.727Z" transform="translate(-37.882 -75.695)"/>
            <path id="Pfad_3356" data-name="Pfad 3356" d="M589.054,171.5q11.428,0,22.855,0c2.432,0,2.949.5,2.949,2.863q0,12.675,0,25.351c0,2.322-.584,2.9-2.957,2.905-1.5.006-3.008-.014-4.512.006-2.056.027-2.807.781-2.81,2.826-.007,4.974,0,9.949,0,14.923,0,2.323-.728,3.047-3.072,3.067-1.5.012-3.008,0-4.512,0-2.07.01-2.808.736-2.815,2.757-.005,1.66.024,3.32-.01,4.979-.039,1.848-.749,2.546-2.546,2.558-1.815.012-3.63.017-5.445,0a2.148,2.148,0,0,1-2.409-2.383c-.04-1.762,0-3.526-.014-5.289-.016-1.831-.8-2.6-2.666-2.618-1.711-.013-3.423-.018-5.134,0-1.753.019-2.547.81-2.548,2.557q-.012,12.674-.006,25.347c0,2.591-.638,3.235-3.186,3.24-1.556,0-3.112.021-4.668-.006-1.761-.029-2.551-.808-2.587-2.582s0-3.527-.013-5.289a2.19,2.19,0,0,0-2.461-2.468c-1.659-.016-3.319.019-4.979-.01-2.185-.039-2.884-.756-2.89-2.9-.005-1.608-.01-3.215,0-4.823.012-1.876.727-2.648,2.612-2.705,1.71-.052,3.423,0,5.134-.016,1.773-.012,2.568-.781,2.582-2.508.016-1.815.021-3.631,0-5.445a2.167,2.167,0,0,0-2.4-2.388c-1.763-.029-3.527.024-5.289-.018-1.884-.044-2.622-.818-2.636-2.678-.012-1.711.016-3.423-.008-5.134a2.46,2.46,0,0,0-2.67-2.724c-1.659-.031-3.319-.024-4.978,0a2.647,2.647,0,0,0-2.925,2.979c-.009,1.712.007,3.423,0,5.134-.011,1.638-.664,2.358-2.334,2.416-1.761.062-3.527,0-5.289.022-1.819.017-2.622.828-2.64,2.67-.017,1.711.012,3.423-.008,5.134-.021,1.727-.75,2.472-2.433,2.487q-2.722.025-5.445,0c-1.755-.015-2.382-.662-2.385-2.472q-.011-7.856,0-15.712c0-1.738.637-2.444,2.414-2.516,1.813-.073,3.629-.011,5.444-.03a2.192,2.192,0,0,0,2.412-2.378c.034-1.814.025-3.63,0-5.445a2.238,2.238,0,0,0-2.451-2.551c-1.761-.05-3.526.007-5.289-.021-1.839-.029-2.525-.731-2.534-2.544s-.016-3.631,0-5.446c.016-1.625.639-2.254,2.243-2.27,1.763-.018,3.527.014,5.289-.01,1.867-.025,2.726-.9,2.742-2.778.015-1.711-.017-3.423.009-5.134.026-1.682.772-2.528,2.432-2.595,1.864-.075,3.736-.078,5.6,0,1.578.068,2.206.81,2.218,2.372.013,1.659,0,3.319,0,4.979.006,2.251.911,3.144,3.213,3.157,1.555.009,3.111,0,4.667,0,2,.006,2.662.673,2.678,2.717.013,1.659-.011,3.319.007,4.978.019,1.745.8,2.537,2.577,2.571,1.607.031,3.215,0,4.823.01,2.25.019,2.882.649,2.886,2.845,0,1.659-.017,3.319.006,4.978a2.337,2.337,0,0,0,2.595,2.557q13.064.011,26.128,0a2.4,2.4,0,0,0,2.7-2.625c.019-1.608.009-3.215,0-4.823-.008-2.033-.862-2.926-2.918-2.933-6.169-.021-12.339-.011-18.51-.012-2.437,0-4.875.026-7.312,0-1.775-.021-2.579-.809-2.617-2.562s-.042-3.527,0-5.289c.042-1.7.808-2.4,2.524-2.408,1.763-.009,3.527.024,5.29-.011a2.5,2.5,0,0,0,2.686-2.724q.032-2.567,0-5.134a2.442,2.442,0,0,0-2.685-2.705c-1.762-.037-3.526,0-5.289-.013a2.206,2.206,0,0,1-2.526-2.444c-.044-1.762-.039-3.527,0-5.289s.827-2.528,2.6-2.53Q577.31,171.491,589.054,171.5Zm5.054,20.849c2.64,0,5.281.027,7.92-.01a2.38,2.38,0,0,0,2.55-2.509q.061-2.8,0-5.6a2.277,2.277,0,0,0-2.432-2.445q-8-.054-16,0a2.289,2.289,0,0,0-2.4,2.48c-.036,1.761-.024,3.524,0,5.286a2.472,2.472,0,0,0,2.755,2.787C589.034,192.369,591.571,192.35,594.108,192.348Z" transform="translate(-50.533 -6.371)"/>
            <path id="Pfad_3357" data-name="Pfad 3357" d="M413.667,288.5q11.586,0,23.173,0c2.244,0,2.688.457,2.69,2.747,0,1.659-.016,3.319.006,4.978a2.365,2.365,0,0,0,2.5,2.544c1.761.048,3.526-.011,5.289.019,1.958.034,2.736.817,2.757,2.75.019,1.711.032,3.423,0,5.133-.036,1.659-.753,2.352-2.38,2.365-1.763.014-3.527-.014-5.289.009a2.606,2.606,0,0,0-2.87,2.871q-.018,7.7,0,15.4a2.383,2.383,0,0,0,2.693,2.634c4.978.01,9.956,0,14.933.006,2.612,0,3.219.612,3.22,3.164q0,2.1,0,4.2c0,2.445-.631,3.075-3.147,3.081-4.978.01-9.956-.016-14.933.027a2.638,2.638,0,0,0-1.816.561,3.93,3.93,0,0,0-.916,2.292c-.063,8.5-.038,17-.04,25.5,0,2.139-.611,2.768-2.75,2.8-1.5.019-3.008.014-4.511,0-2.264-.02-2.992-.743-3-2.968-.007-1.608.015-3.215-.006-4.823-.024-1.814-.836-2.6-2.663-2.606-1.763-.007-3.526-.013-5.289,0a2.176,2.176,0,0,0-2.406,2.358c-.023,1.763.014,3.526-.012,5.289-.03,1.937-.81,2.709-2.771,2.744-1.606.028-3.215.024-4.822,0-2.051-.029-2.835-.8-2.84-2.828q-.022-7.535,0-15.07c0-2.127.771-2.9,2.92-2.909,4.976-.018,9.951,0,14.927-.007,2.251,0,2.959-.713,2.961-2.968q.007-7.465,0-14.931c0-2.168-.808-2.956-3.019-2.97-1.711-.01-3.423,0-5.134,0a1.875,1.875,0,0,1-2.118-2.1c0-1.815.009-3.63,0-5.445-.013-1.86-.878-2.734-2.766-2.739-4.978-.015-9.955,0-14.933-.007-2.516,0-3.146-.631-3.149-3.085,0-1.608-.013-3.215,0-4.823.017-1.644.669-2.4,2.316-2.474,1.863-.083,3.733-.019,5.6-.04a2.179,2.179,0,0,0,2.387-2.387q.039-2.8,0-5.6a2.17,2.17,0,0,0-2.269-2.4c-1.916-.066-3.838-.065-5.755,0a2.2,2.2,0,0,0-2.315,2.512c-.019,1.763.02,3.527-.012,5.289s-.732,2.434-2.462,2.444c-1.867.011-3.735-.044-5.6.017a1.98,1.98,0,0,1-2.332-2.1q-.094-8.167,0-16.334c.016-1.476.884-2.119,2.482-2.12Q401.923,288.493,413.667,288.5Zm10.449,20.682c.879,0,1.757.007,2.635,0a2.229,2.229,0,0,0,2.505-2.434c.034-1.859.022-3.72,0-5.58a2.128,2.128,0,0,0-2.152-2.353c-2.01-.1-4.032-.1-6.042,0a2.081,2.081,0,0,0-2.172,2.3c.011,1.912-.016,3.824.009,5.736a2.173,2.173,0,0,0,2.422,2.328C422.256,309.191,423.186,309.181,424.116,309.181Z" transform="translate(0 -50.548)"/>
            <path id="Pfad_3358" data-name="Pfad 3358" d="M688.7,154.813h72.609v72.5H688.7Zm10.441,10.432v51.785H750.9V165.245Z" transform="translate(-113.667 -0.071)"/>
            <path id="Pfad_3359" data-name="Pfad 3359" d="M460.445,528.21H388.1V455.659h72.348ZM398.434,465.9v51.825h51.747V465.9Z" transform="translate(-0.167 -113.665)"/>
            <path id="Pfad_3360" data-name="Pfad 3360" d="M388.006,227.355V154.864H460.4v72.491Zm62.174-10.233V165.3h-51.75v51.825Z" transform="translate(-0.133 -0.091)"/>
            <path id="Pfad_3361" data-name="Pfad 3361" d="M786.375,407.288q0,8.785,0,17.572c0,2.315-.678,2.993-2.936,2.993q-12.678,0-25.356,0c-2.2,0-2.913-.683-2.936-2.839-.017-1.607-.027-3.215,0-4.823.037-1.9.767-2.6,2.669-2.6,5.029-.007,10.059,0,15.089,0,2.31,0,3.027-.747,3.028-3.092q0-7.543,0-15.084c0-1.861-.772-2.654-2.608-2.68-1.659-.022-3.319.016-4.978-.011-2-.032-2.709-.756-2.717-2.724-.006-1.711.019-3.423-.008-5.134a2.32,2.32,0,0,0-2.608-2.534c-1.763-.012-3.528.039-5.289-.024-1.8-.063-2.538-.83-2.575-2.612q-.053-2.567,0-5.134c.039-1.831.835-2.6,2.715-2.643,1.5-.034,3.008-.007,4.512-.008,2.568,0,3.249-.668,3.25-3.181q0-7.465,0-14.931c0-1.884.7-2.662,2.612-2.678q7.7-.063,15.4,0c1.934.014,2.719.853,2.726,2.795q.029,7.619,0,15.239c-.009,1.989-.766,2.719-2.734,2.735-1.712.013-3.423-.029-5.134.014a2.352,2.352,0,0,0-2.6,2.609c-.024,1.711-.02,3.423,0,5.134.019,1.859.992,2.8,2.894,2.823,1.608.016,3.215,0,4.823,0,2.066,0,2.743.613,2.747,2.63.014,5.912-.006,11.823-.016,17.735a4.4,4.4,0,0,1-.046.457Z" transform="translate(-138.749 -75.689)"/>
            <path id="Pfad_3362" data-name="Pfad 3362" d="M705.044,354.013q0-6.216,0-12.432c0-2.393.675-3.078,3.006-3.084,1.606,0,3.213-.016,4.819,0,1.781.022,2.55.762,2.594,2.552.04,1.658.007,3.316.012,4.974,0,2.082.7,2.8,2.747,2.8q7.228.008,14.457,0c2.963,0,3.457.485,3.457,3.364,0,1.451,0,2.9,0,4.353-.006,1.991-.661,2.678-2.688,2.726-1.606.037-3.213,0-4.819.01-2.018.007-2.762.756-2.765,2.818-.007,4.974,0,9.949,0,14.923,0,2.271-.684,2.983-2.935,3.024-1.554.028-3.11.035-4.663,0-2.093-.052-2.661-.653-2.665-2.714,0-1.658.011-3.317,0-4.974a2.465,2.465,0,0,0-2.656-2.729c-1.657-.044-3.316-.006-4.974-.013-2.175-.009-2.911-.718-2.916-2.861C705.036,362.508,705.044,358.26,705.044,354.013Z" transform="translate(-119.839 -69.424)"/>
            <path id="Pfad_3363" data-name="Pfad 3363" d="M508.68,292.364q-8.856,0-17.711,0c-2.326,0-2.966-.636-2.97-2.918,0-1.554-.006-3.108,0-4.662.008-2.072.612-2.686,2.659-2.687q12.583,0,25.167,0c2.631,0,3.3-.677,3.306-3.3,0-1.5-.015-3,0-4.506.022-1.786.751-2.627,2.488-2.7,1.81-.072,3.628-.072,5.438,0,1.724.07,2.325.792,2.326,2.579q.007,7.845,0,15.69c0,1.846-.639,2.495-2.528,2.5C520.8,292.373,514.739,292.364,508.68,292.364Z" transform="translate(-37.887 -44.143)"/>
            <path id="Pfad_3364" data-name="Pfad 3364" d="M398.105,392.677q0,8.853,0,17.7c0,2.412-.607,3.007-3.022,3.009q-2.253,0-4.506,0c-2.289,0-2.9-.616-2.907-2.969q-.013-8,0-16.006,0-9.618,0-19.237c0-2.629.556-3.179,3.173-3.179,1.5,0,3,0,4.507,0,2.053.006,2.752.7,2.755,2.816Q398.116,383.746,398.105,392.677Z" transform="translate(-0.003 -82.076)"/>
            <path id="Pfad_3365" data-name="Pfad 3365" d="M503.523,332.141c-4.2,0-8.39.011-12.585,0-2.263-.009-2.935-.711-2.939-2.985,0-1.554-.006-3.108,0-4.663.009-2,.669-2.72,2.687-2.752,2.95-.047,5.9-.014,8.852-.015,5.487,0,10.974-.011,16.461.005,2.5.007,3.116.649,3.12,3.128q0,2.1,0,4.2c0,2.423-.672,3.083-3.169,3.088Q509.736,332.151,503.523,332.141Z" transform="translate(-37.887 -63.089)"/>
            <path id="Pfad_3366" data-name="Pfad 3366" d="M782.356,505.5c2.536,0,5.073-.016,7.61,0,1.974.016,2.757.764,2.765,2.717q.035,7.68,0,15.361c-.009,1.845-.809,2.659-2.644,2.712q-2.56.075-5.124,0c-1.843-.052-2.632-.873-2.657-2.7-.025-1.76.013-3.52-.012-5.281a2.34,2.34,0,0,0-2.489-2.535c-1.863-.042-3.728.005-5.591-.017-1.488-.017-2.187-.69-2.213-2.163-.032-1.863-.019-3.728,0-5.591.013-1.7.734-2.475,2.439-2.5C777.075,505.469,779.716,505.5,782.356,505.5Z" transform="translate(-145.114 -132.479)"/>
            <path id="Pfad_3367" data-name="Pfad 3367" d="M631.954,288.495c2.642,0,5.284-.01,7.926,0,1.693.008,2.429.74,2.457,2.469q.042,2.644,0,5.289a2.237,2.237,0,0,1-2.495,2.5c-1.762.032-3.526-.019-5.288.017-1.827.038-2.6.858-2.608,2.684-.007,1.711.027,3.423-.012,5.132-.041,1.8-.7,2.434-2.453,2.442-1.918.01-3.837-.017-5.755.009a1.927,1.927,0,0,1-2.172-2.091q-.081-8.165,0-16.331a2.017,2.017,0,0,1,2.319-2.133C626.567,288.518,629.261,288.495,631.954,288.495Z" transform="translate(-88.3 -50.543)"/>
            <path id="Pfad_3368" data-name="Pfad 3368" d="M521.5,448.977c0-2.589-.006-5.178,0-7.767.005-1.7.6-2.52,2.218-2.541q8.078-.1,16.157,0c1.58.021,2.15.8,2.16,2.409q.016,2.72,0,5.438c-.007,1.753-.629,2.462-2.374,2.534-1.6.066-3.21.017-4.816.02-2.422,0-3.074.668-3.077,3.149,0,1.554.015,3.108-.005,4.661-.022,1.71-.769,2.484-2.436,2.506q-2.719.037-5.438,0c-1.723-.021-2.382-.715-2.389-2.49C521.491,454.259,521.5,451.618,521.5,448.977Z" transform="translate(-50.536 -107.23)"/>
            <path id="Pfad_3369" data-name="Pfad 3369" d="M548.405,355.1c2.478,0,4.958-.02,7.437.006,2.233.022,2.976.786,2.987,2.992.008,1.6.021,3.209,0,4.813-.027,1.686-.754,2.585-2.409,2.6q-7.981.1-15.963,0c-1.667-.019-2.408-.906-2.434-2.579-.027-1.707-.022-3.415,0-5.122.022-1.882.814-2.676,2.8-2.707C543.342,355.07,545.875,355.1,548.405,355.1Z" transform="translate(-56.767 -75.691)"/>
            <path id="Pfad_3370" data-name="Pfad 3370" d="M682.121,332.144c-2.487,0-4.973.012-7.46,0-2.311-.014-3.029-.756-3.039-3.105-.007-1.555-.026-3.11.006-4.664.036-1.724.744-2.589,2.405-2.607q8-.088,16,0c1.7.019,2.34.838,2.353,2.6q.018,2.565,0,5.13c-.013,1.848-.756,2.617-2.653,2.643C687.2,332.17,684.66,332.143,682.121,332.144Z" transform="translate(-107.216 -63.092)"/>
            <path id="Pfad_3371" data-name="Pfad 3371" d="M705.042,298.657c0-2.537-.019-5.075.006-7.611.018-1.814.759-2.537,2.539-2.547q2.718-.016,5.436,0c1.639.012,2.417.687,2.43,2.332q.062,7.922,0,15.843c-.011,1.687-.738,2.347-2.376,2.358q-2.8.02-5.591,0c-1.715-.01-2.421-.7-2.44-2.456C705.02,303.938,705.042,301.3,705.042,298.657Z" transform="translate(-119.836 -50.545)"/>
            <path id="Pfad_3372" data-name="Pfad 3372" d="M515.042,372c2.642,0,5.285-.011,7.927,0a2.087,2.087,0,0,1,2.392,2.356c.029,1.865.034,3.731,0,5.6a2.113,2.113,0,0,1-2.335,2.3q-8,.038-16.009,0a2.191,2.191,0,0,1-2.429-2.4c-.049-1.865-.057-3.733,0-5.6A2.109,2.109,0,0,1,506.96,372C509.654,371.985,512.348,372,515.042,372Z" transform="translate(-44.136 -82.074)"/>
            <path id="Pfad_3373" data-name="Pfad 3373" d="M605,332c0-2.589-.009-5.178,0-7.767.008-1.672.627-2.411,2.281-2.478,1.912-.079,3.833-.08,5.744.012a2.084,2.084,0,0,1,2.234,2.4q.027,7.923,0,15.844c-.005,1.715-.734,2.4-2.476,2.416-1.864.012-3.728.022-5.593,0A1.929,1.929,0,0,1,605,340.231C604.979,337.486,605,334.742,605,332Z" transform="translate(-82.062 -63.083)"/>
            <path id="Pfad_3374" data-name="Pfad 3374" d="M665.267,265.346c0,2.641.009,5.282,0,7.922-.008,1.649-.638,2.389-2.306,2.465-1.86.084-3.731.087-5.591,0-1.677-.08-2.361-.9-2.365-2.622q-.018-7.768,0-15.535c0-1.8.758-2.556,2.524-2.575s3.522-.018,5.282,0,2.447.689,2.455,2.424C665.276,260.064,665.267,262.705,665.267,265.346Z" transform="translate(-100.942 -37.894)"/>
            <path id="Pfad_3375" data-name="Pfad 3375" d="M760.364,332.133c-5.215,0-5.215,0-5.215-5.258,0-.775-.011-1.55,0-2.325.035-1.994.728-2.759,2.673-2.819q2.554-.078,5.114,0c1.867.059,2.622.846,2.649,2.681.025,1.653.022,3.307,0,4.959-.024,1.925-.8,2.7-2.745,2.757C762.017,332.152,761.19,332.133,760.364,332.133Z" transform="translate(-138.757 -63.082)"/>
            <path id="Pfad_3376" data-name="Pfad 3376" d="M565.136,326.992c0,.674,0,1.348,0,2.022-.008,2.363-.711,3.095-3.023,3.115-1.556.014-3.112.028-4.668,0-1.9-.039-2.68-.792-2.717-2.631-.037-1.763-.043-3.527,0-5.289a2.189,2.189,0,0,1,2.389-2.458c1.813-.078,3.632-.073,5.444-.012,1.841.062,2.544.87,2.569,2.768C565.145,325.332,565.136,326.161,565.136,326.992Z" transform="translate(-63.072 -63.08)"/>
            <path id="Pfad_3377" data-name="Pfad 3377" d="M565.137,560.77c0,.83.012,1.66,0,2.49-.033,1.846-.771,2.643-2.645,2.708-1.71.059-3.425.059-5.134,0-1.87-.065-2.6-.845-2.63-2.72-.028-1.711-.037-3.424,0-5.134a2.263,2.263,0,0,1,2.483-2.548c1.761-.065,3.527-.057,5.289-.007,1.844.052,2.6.872,2.632,2.724C565.149,559.11,565.137,559.94,565.137,560.77Z" transform="translate(-63.074 -151.369)"/>
            <path id="Pfad_3378" data-name="Pfad 3378" d="M598.547,360.251c0,.672,0,1.344,0,2.015-.007,2.529-.7,3.25-3.186,3.271-1.5.012-3,.034-4.5-.007-1.944-.055-2.736-.853-2.764-2.751q-.037-2.479,0-4.959c.03-1.833.8-2.653,2.639-2.715,1.7-.057,3.411-.054,5.114,0,1.907.058,2.657.881,2.69,2.824C598.558,358.7,598.547,359.476,598.547,360.251Z" transform="translate(-75.678 -75.682)"/>
            <path id="Pfad_3379" data-name="Pfad 3379" d="M793.692,315.263c-.933,0-1.868-.039-2.8.009a1.987,1.987,0,0,1-2.324-2.1c-.091-1.966-.075-3.94-.006-5.907a2.157,2.157,0,0,1,2.307-2.231c1.916-.062,3.837-.069,5.752,0a2.181,2.181,0,0,1,2.337,2.363c.059,1.915.077,3.837-.012,5.751a1.983,1.983,0,0,1-2.3,2.127C795.663,315.224,794.677,315.263,793.692,315.263Z" transform="translate(-151.354 -56.772)"/>
            <path id="Pfad_3380" data-name="Pfad 3380" d="M676.91,288.5c.934,0,1.868.027,2.8-.006a2.032,2.032,0,0,1,2.317,2.144c.1,1.966.09,3.944,0,5.911a2.13,2.13,0,0,1-2.312,2.211c-1.919.027-3.839.043-5.757,0a2.162,2.162,0,0,1-2.332-2.353q-.088-2.8,0-5.6c.049-1.586.854-2.284,2.479-2.3C675.043,288.488,675.976,288.5,676.91,288.5Z" transform="translate(-107.207 -50.544)"/>
            <path id="Pfad_3381" data-name="Pfad 3381" d="M559.8,465.762c-.881,0-1.764.017-2.645,0a2.153,2.153,0,0,1-2.424-2.387c-.052-1.866-.058-3.736,0-5.6a2.072,2.072,0,0,1,2.351-2.272c1.919-.022,3.838-.026,5.757,0a2.09,2.09,0,0,1,2.272,2.2c.057,1.917.052,3.838,0,5.756a2.162,2.162,0,0,1-2.36,2.3C561.774,465.784,560.788,465.762,559.8,465.762Z" transform="translate(-63.07 -113.598)"/>
            <path id="Pfad_3382" data-name="Pfad 3382" d="M559.857,265.264c-.934,0-1.868-.017-2.8,0a2.034,2.034,0,0,1-2.308-2.157c-.083-1.967-.076-3.942,0-5.91a2.075,2.075,0,0,1,2.286-2.2c1.92-.007,3.839-.027,5.757.007a2.149,2.149,0,0,1,2.331,2.327q.071,2.8,0,5.6c-.038,1.566-.86,2.307-2.462,2.33C561.724,265.275,560.79,265.264,559.857,265.264Z" transform="translate(-63.069 -37.894)"/>
            <path id="Pfad_3383" data-name="Pfad 3383" d="M604.993,560.758c0-.933-.012-1.866,0-2.8.024-1.525.7-2.32,2.239-2.386,1.913-.082,3.836-.083,5.749,0a2.135,2.135,0,0,1,2.272,2.393c.027,1.865,0,3.731.01,5.6a2.078,2.078,0,0,1-2.137,2.346c-2.015.1-4.041.1-6.055,0a2.011,2.011,0,0,1-2.088-2.356C605.027,562.624,604.993,561.69,604.993,560.758Z" transform="translate(-82.058 -151.367)"/>
            <path id="Pfad_3384" data-name="Pfad 3384" d="M404.5,360.2c0-.881-.013-1.762,0-2.643.029-1.54.675-2.346,2.215-2.427,1.912-.1,3.837-.1,5.749-.009,1.635.075,2.286.86,2.3,2.5q.023,2.721,0,5.441c-.016,1.547-.664,2.345-2.208,2.427-1.911.1-3.836.1-5.749.01-1.633-.075-2.282-.865-2.306-2.5C404.486,362.067,404.5,361.134,404.5,360.2Z" transform="translate(-6.358 -75.679)"/>
            <path id="Pfad_3385" data-name="Pfad 3385" d="M581.763,193.328c0,.881.008,1.762,0,2.643-.018,1.614-.584,2.379-2.136,2.465a55.233,55.233,0,0,1-5.9.007c-1.541-.079-2.2-.889-2.224-2.426-.024-1.813-.021-3.627,0-5.441.017-1.549.682-2.4,2.177-2.477,1.963-.1,3.939-.1,5.9-.008,1.522.072,2.162.883,2.182,2.437C581.773,191.462,581.763,192.4,581.763,193.328Z" transform="translate(-69.41 -12.611)"/>
            <path id="Pfad_3386" data-name="Pfad 3386" d="M559.917,171.5c.93,0,1.86-.016,2.79,0a2.149,2.149,0,0,1,2.407,2.226c.058,1.961.081,3.929-.011,5.887a2.068,2.068,0,0,1-2.311,2.155c-1.911-.011-3.822-.014-5.734,0a2.05,2.05,0,0,1-2.309-2.149c-.085-1.959-.077-3.926-.011-5.887.052-1.511.852-2.2,2.389-2.233C558.058,171.481,558.987,171.5,559.917,171.5Z" transform="translate(-63.068 -6.369)"/>
            <path id="Pfad_3387" data-name="Pfad 3387" d="M548.267,159.905c0,.932-.049,1.868.011,2.8a1.98,1.98,0,0,1-2.084,2.34c-1.962.1-3.937.1-5.9.011a2.186,2.186,0,0,1-2.273-2.419c-.039-1.812-.034-3.626,0-5.438a2.2,2.2,0,0,1,2.345-2.5,57.45,57.45,0,0,1,5.746.006c1.611.085,2.142.773,2.157,2.409C548.274,158.04,548.267,158.973,548.267,159.905Z" transform="translate(-56.764)"/>
            <path id="Pfad_3388" data-name="Pfad 3388" d="M498.267,393.692c0,.933.012,1.866,0,2.8-.025,1.571-.642,2.327-2.21,2.4-1.964.086-3.937.071-5.9-.01A2.054,2.054,0,0,1,488,396.561c.01-1.865-.015-3.731.008-5.6a2.129,2.129,0,0,1,2.232-2.419c1.914-.082,3.836-.077,5.75-.006,1.587.06,2.262.872,2.281,2.509C498.276,391.931,498.267,392.811,498.267,393.692Z" transform="translate(-37.886 -88.302)"/>
            <path id="Pfad_3389" data-name="Pfad 3389" d="M548.271,477.3c0,.932-.044,1.867.01,2.8a1.9,1.9,0,0,1-1.95,2.279c-2.065.1-4.141.1-6.206,0a2.11,2.11,0,0,1-2.108-2.389c-.01-1.813-.029-3.626.005-5.439a2.226,2.226,0,0,1,2.364-2.492c1.913-.075,3.835-.083,5.747.009a1.983,1.983,0,0,1,2.147,2.281C548.23,475.328,548.271,476.314,548.271,477.3Z" transform="translate(-56.768 -119.834)"/>
            <path id="Pfad_3390" data-name="Pfad 3390" d="M581.763,477.194c0,.933.01,1.866,0,2.8-.021,1.59-.607,2.338-2.184,2.416a57.254,57.254,0,0,1-5.9-.01c-1.532-.083-2.16-.883-2.177-2.455-.021-1.814-.024-3.627,0-5.441a2.183,2.183,0,0,1,2.379-2.449c1.759-.069,3.523-.051,5.284-.013,1.9.041,2.589.777,2.6,2.666C581.767,475.536,581.763,476.365,581.763,477.194Z" transform="translate(-69.41 -119.837)"/>
            <path id="Pfad_3391" data-name="Pfad 3391" d="M581.767,443.847c0,.932-.035,1.867.008,2.8A2.031,2.031,0,0,1,579.669,449a54.617,54.617,0,0,1-6.057-.006,2.1,2.1,0,0,1-2.121-2.374c.022-1.814-.009-3.627.009-5.441.017-1.633.682-2.446,2.293-2.526a57.116,57.116,0,0,1,5.749,0c1.616.083,2.209.86,2.223,2.552C581.772,442.085,581.767,442.965,581.767,443.847Z" transform="translate(-69.413 -107.215)"/>
            <path id="Pfad_3392" data-name="Pfad 3392" d="M732.258,326.95c0,.881.019,1.762,0,2.642a2.267,2.267,0,0,1-2.473,2.546q-2.717.089-5.438,0c-1.67-.053-2.336-.775-2.347-2.405-.013-1.917.024-3.834-.012-5.75a1.868,1.868,0,0,1,1.911-2.159c2.066-.1,4.142-.1,6.209-.021a2.106,2.106,0,0,1,2.149,2.349C732.271,325.085,732.258,326.017,732.258,326.95Z" transform="translate(-126.237 -63.103)"/>
            <path id="Pfad_3393" data-name="Pfad 3393" d="M443.044,432.252c-1.036,0-2.073.024-3.108-.007A1.784,1.784,0,0,1,438,430.3c-.025-2.072-.009-4.144-.006-6.216a1.9,1.9,0,0,1,2.028-2.068c2.017-.078,4.041-.072,6.059-.008a2.053,2.053,0,0,1,2.164,2.167c.058,1.966.052,3.937,0,5.9A2.018,2.018,0,0,1,446,432.249C445.012,432.269,444.028,432.253,443.044,432.252Z" transform="translate(-19.006 -100.939)"/>
            <path id="Pfad_3394" data-name="Pfad 3394" d="M748.754,293.492c0,.984.014,1.969,0,2.953-.024,1.489-.68,2.26-2.112,2.3-1.966.06-3.937.057-5.9,0a2.094,2.094,0,0,1-2.239-2.257c-.04-1.967-.062-3.938.011-5.9a1.964,1.964,0,0,1,2.177-2.093c2.02,0,4.041-.014,6.06.007a1.822,1.822,0,0,1,2.006,2.036C748.762,291.524,748.754,292.508,748.754,293.492Z" transform="translate(-132.457 -50.547)"/>
            <path id="Pfad_3395" data-name="Pfad 3395" d="M581.754,343.88c.1,5.043.085,4.962-4.955,4.88-1.036-.017-2.073,0-3.109,0a1.952,1.952,0,0,1-2.187-2.075c-.062-2.019-.056-4.042,0-6.061a2.012,2.012,0,0,1,2.186-2.119c1.968-.044,3.939-.048,5.906,0a2.012,2.012,0,0,1,2.157,2.27C581.771,341.807,581.754,342.844,581.754,343.88Z" transform="translate(-69.401 -69.415)"/>
            <path id="Pfad_3396" data-name="Pfad 3396" d="M782.26,293.7q0,1.4,0,2.8a2,2,0,0,1-2.061,2.234c-2.068.087-4.147.09-6.214-.006a1.948,1.948,0,0,1-1.99-2.135c-.013-2.02-.034-4.041.009-6.061a1.863,1.863,0,0,1,2.042-2.03c2.072-.017,4.145-.022,6.217,0a1.85,1.85,0,0,1,1.981,1.934C782.312,291.521,782.259,292.612,782.26,293.7Z" transform="translate(-145.114 -50.544)"/>
            <path id="Pfad_3397" data-name="Pfad 3397" d="M521.5,176.583c0-1.036-.025-2.073.007-3.109a1.841,1.841,0,0,1,1.95-1.967c2.071-.059,4.146-.049,6.217,0a1.954,1.954,0,0,1,2.071,2.058c.07,2.018.063,4.042,0,6.061a1.988,1.988,0,0,1-2.16,2.129c-2.02.025-4.043.037-6.062-.006a1.873,1.873,0,0,1-2.024-2.052C521.483,178.656,521.5,177.619,521.5,176.583Z" transform="translate(-50.533 -6.359)"/>
            <path id="Pfad_3398" data-name="Pfad 3398" d="M660.178,315.263c-1.036,0-2.071-.007-3.106,0a1.862,1.862,0,0,1-2.064-2.007c-.07-2.017-.047-4.038-.011-6.056a2.01,2.01,0,0,1,2.028-2.135,60.205,60.205,0,0,1,6.207-.008,1.98,1.98,0,0,1,2.032,2.248c-.034,1.967,0,3.934-.011,5.9a1.832,1.832,0,0,1-2.124,2.058C662.146,315.249,661.162,315.264,660.178,315.263Z" transform="translate(-100.931 -56.773)"/>
            <path id="Pfad_3399" data-name="Pfad 3399" d="M688.495,460.632c0-1.036-.032-2.074.009-3.108a1.89,1.89,0,0,1,2.061-2.022q3.031-.039,6.063,0a1.957,1.957,0,0,1,2.124,2.14c.042,1.968.027,3.938.006,5.907a1.987,1.987,0,0,1-2.091,2.2c-2.019.06-4.042.053-6.062,0a1.959,1.959,0,0,1-2.107-2.162C688.484,462.6,688.494,461.616,688.495,460.632Z" transform="translate(-113.587 -113.598)"/>
            <path id="Pfad_3400" data-name="Pfad 3400" d="M752.991,188.225v30.968h-31V188.225Z" transform="translate(-126.239 -12.687)"/>
            <path id="Pfad_3401" data-name="Pfad 3401" d="M452.239,519.991H421.266v-31h30.973Z" transform="translate(-12.691 -126.251)"/>
            <path id="Pfad_3402" data-name="Pfad 3402" d="M421.2,219.24V188.266h31V219.24Z" transform="translate(-12.668 -12.703)"/>
          </g>
        </g>
      </g>
    </g>
    <path id="Pfad_3405" data-name="Pfad 3405" d="M8.67.36c5.25,0,8.01-2.88,8.01-6.81,0-3.3-1.95-5.28-5.31-5.88l-2.19-.39c-2.04-.36-2.88-.99-2.88-2.43,0-1.65,1.02-2.49,3.03-2.49a5.989,5.989,0,0,1,4.56,1.98l2.55-2.85c-1.47-1.71-3.93-2.79-7.14-2.79-4.74,0-7.53,2.34-7.53,6.36,0,3.06,1.59,5.37,5.34,6l2.19.36c2.04.33,2.82,1.02,2.82,2.49,0,1.8-1.17,2.79-3.3,2.79A7.1,7.1,0,0,1,3.54-5.76L.93-2.88C2.52-.9,5.19.36,8.67.36Zm19.86,0c4.32,0,6.57-2.37,7.41-6.03l-4.2-1.02c-.45,1.98-1.2,3.42-3.3,3.42-2.43,0-3.36-2.04-3.36-5.37V-12.3c0-3.33.93-5.37,3.36-5.37,2.1,0,2.85,1.44,3.3,3.42l4.2-1.02c-.84-3.66-3.09-6.03-7.41-6.03-5.61,0-8.25,3.96-8.25,10.83S22.92.36,28.53.36ZM55.95,0,50.28-20.94H43.92L38.25,0h4.56L44.1-5.04h5.73L51.15,0ZM49.14-8.67H44.82l2.04-7.92h.24ZM67.92,0h5.4V-20.94H69.48V-7.02h-.33L64.38-20.94h-5.4V0h3.84V-13.92h.33Zm40.26,0h3.9V-20.94h-4.95l-2.58,7.05h-.24l-2.58-7.05H96.42V0h3.9V-9.33l-.24-5.85h.27l3.9,10.77,3.9-10.77h.27l-.24,5.85Zm21.87,0V-3.33h-4.5V-17.61h4.5v-3.33h-13.5v3.33h4.5V-3.33h-4.5V0Zm12.78.36c4.32,0,6.57-2.37,7.41-6.03l-4.2-1.02c-.45,1.98-1.2,3.42-3.3,3.42-2.43,0-3.36-2.04-3.36-5.37V-12.3c0-3.33.93-5.37,3.36-5.37,2.1,0,2.85,1.44,3.3,3.42l4.2-1.02c-.84-3.66-3.09-6.03-7.41-6.03-5.61,0-8.25,3.96-8.25,10.83S137.22.36,142.83.36ZM164.04,0h4.53V-20.94h-4.53v8.49h-5.28v-8.49h-4.53V0h4.53V-8.76h5.28Z" transform="translate(599 11460)"/>
  </g>
</svg>
