<svg xmlns="http://www.w3.org/2000/svg" width="1088.286" height="731" viewBox="0 0 1088.286 731">
  <g id="Gruppe_162" data-name="Gruppe 162" transform="translate(0.143)">
    <g id="Gruppe_2757" data-name="Gruppe 2757">
      <g id="Gruppe_162-2" data-name="Gruppe 162">
        <rect id="Rechteck_45" data-name="Rechteck 45" width="1088.286" height="731" transform="translate(-0.143)" fill="#ededed"/>
      </g>
      <path id="Pfad_3187" data-name="Pfad 3187" d="M9.96-18.9c1.38,0,1.89-.66,1.89-1.53v-.48c0-.87-.51-1.53-1.89-1.53s-1.89.66-1.89,1.53v.48C8.07-19.56,8.58-18.9,9.96-18.9ZM3.18,0h13.2V-2.04H11.16V-15.48H3.18v2.04H8.76v11.4H3.18Zm24,.36c3.96,0,6.54-1.77,6.54-4.83,0-3.36-3.09-3.96-5.31-4.29l-2.43-.36c-1.38-.21-2.73-.63-2.73-2.25,0-1.59,1.35-2.46,3.78-2.46a5.837,5.837,0,0,1,4.83,1.95l1.56-1.47a8.226,8.226,0,0,0-6.3-2.49c-3.6,0-6.24,1.53-6.24,4.62,0,3.36,3.12,3.96,5.31,4.29l2.43.36c1.41.21,2.73.63,2.73,2.25,0,1.83-1.71,2.67-4.11,2.67a7.161,7.161,0,0,1-5.61-2.43L20.01-2.67A9.109,9.109,0,0,0,27.18.36ZM51.78,0V-2.04H44.73v-11.4h7.05v-2.04H44.73v-5.46H42.42v4.05c0,1.05-.39,1.41-1.41,1.41H37.17v2.04h5.16v9.9C42.33-1.47,43.41,0,45.75,0ZM81.27.36a6.487,6.487,0,0,0,6.21-3.57l-1.77-1.2a4.7,4.7,0,0,1-4.44,2.7,4.48,4.48,0,0,1-4.74-4.71v-.72H87.99V-8.28c0-4.38-2.7-7.56-6.87-7.56-4.2,0-7.11,3.18-7.11,8.13C74.01-2.82,76.83.36,81.27.36Zm-.15-14.22c2.55,0,4.29,1.86,4.29,4.59v.33H76.53v-.21A4.527,4.527,0,0,1,81.12-13.86ZM99.96-18.9c1.38,0,1.89-.66,1.89-1.53v-.48c0-.87-.51-1.53-1.89-1.53s-1.89.66-1.89,1.53v.48C98.07-19.56,98.58-18.9,99.96-18.9ZM93.18,0h13.2V-2.04h-5.22V-15.48H93.18v2.04h5.58v11.4H93.18Zm20.16,0V-10.74c0-2.04,1.92-2.97,3.84-2.97,2.37,0,3.66,1.38,3.66,4.2V0h2.4V-9.93c0-3.75-2.13-5.91-5.37-5.91a4.393,4.393,0,0,0-4.41,2.88h-.12v-2.52h-2.4V0Zm21.93.36a6.487,6.487,0,0,0,6.21-3.57l-1.77-1.2a4.7,4.7,0,0,1-4.44,2.7,4.48,4.48,0,0,1-4.74-4.71v-.72h11.46V-8.28c0-4.38-2.7-7.56-6.87-7.56-4.2,0-7.11,3.18-7.11,8.13C128.01-2.82,130.83.36,135.27.36Zm-.15-14.22c2.55,0,4.29,1.86,4.29,4.59v.33h-8.88v-.21A4.527,4.527,0,0,1,135.12-13.86ZM170.94.36c4.65,0,7.32-2.34,7.32-6.21,0-2.73-1.35-5.01-5.46-5.73l-2.25-.39c-2.97-.51-3.93-1.71-3.93-3.57,0-2.37,1.59-3.6,4.41-3.6a6.081,6.081,0,0,1,5.28,2.58l1.77-1.53c-1.41-2.01-3.69-3.21-7.02-3.21-4.26,0-6.99,1.98-6.99,5.82,0,2.64,1.29,5.01,5.4,5.7l2.34.39c2.85.48,3.9,1.56,3.9,3.6,0,2.52-1.65,3.99-4.68,3.99a6.917,6.917,0,0,1-5.85-3.03l-1.83,1.5A8.671,8.671,0,0,0,170.94.36Zm18.6,0a6.046,6.046,0,0,0,5.94-3.6l-1.71-1.17a4.33,4.33,0,0,1-4.2,2.7c-2.91,0-4.47-1.98-4.47-4.71V-9.06c0-2.73,1.59-4.71,4.41-4.71a3.743,3.743,0,0,1,3.81,2.52l1.92-1.02a5.743,5.743,0,0,0-5.73-3.57c-4.38,0-6.99,3.18-6.99,8.1C182.52-2.85,185.1.36,189.54.36ZM200.94,0h2.4V-10.74c0-2.04,1.92-2.97,3.84-2.97,2.37,0,3.66,1.38,3.66,4.2V0h2.4V-9.93c0-3.75-2.13-5.91-5.37-5.91a4.393,4.393,0,0,0-4.41,2.88h-.12V-22.2h-2.4Zm17.37,0h12.93V-2.04h-6V-8.73c0-2.4,1.59-4.35,4.62-4.35h2.91v-2.4h-2.16a4.97,4.97,0,0,0-5.22,3.9h-.15v-3.9h-6.93v2.04h4.53v11.4h-4.53Zm25.65-18.9c1.38,0,1.89-.66,1.89-1.53v-.48c0-.87-.51-1.53-1.89-1.53s-1.89.66-1.89,1.53v.48C242.07-19.56,242.58-18.9,243.96-18.9ZM237.18,0h13.2V-2.04h-5.22V-15.48h-7.98v2.04h5.58v11.4h-5.58Zm17.31,0h13.14V-2.04h-5.52v-11.4h6.21v-2.04h-6.21v-4.68h6.21V-22.2h-5.19c-2.34,0-3.42,1.47-3.42,3.54v3.18h-5.52v2.04h5.52v11.4h-5.22Zm31.29,0V-2.04h-7.05v-11.4h7.05v-2.04h-7.05v-5.46h-2.31v4.05c0,1.05-.39,1.41-1.41,1.41h-3.84v2.04h5.16v9.9c0,2.07,1.08,3.54,3.42,3.54Zm11.4.36c3.96,0,6.54-1.77,6.54-4.83,0-3.36-3.09-3.96-5.31-4.29l-2.43-.36c-1.38-.21-2.73-.63-2.73-2.25,0-1.59,1.35-2.46,3.78-2.46a5.837,5.837,0,0,1,4.83,1.95l1.56-1.47a8.226,8.226,0,0,0-6.3-2.49c-3.6,0-6.24,1.53-6.24,4.62,0,3.36,3.12,3.96,5.31,4.29l2.43.36c1.41.21,2.73.63,2.73,2.25,0,1.83-1.71,2.67-4.11,2.67a7.161,7.161,0,0,1-5.61-2.43l-1.62,1.41A9.109,9.109,0,0,0,297.18.36ZM315.96-18.9c1.38,0,1.89-.66,1.89-1.53v-.48c0-.87-.51-1.53-1.89-1.53s-1.89.66-1.89,1.53v.48C314.07-19.56,314.58-18.9,315.96-18.9ZM309.18,0h13.2V-2.04h-5.22V-15.48h-7.98v2.04h5.58v11.4h-5.58Zm17.67,6h2.4V-2.52h.12A5.073,5.073,0,0,0,334.14.36c3.78,0,6.06-3.03,6.06-8.1s-2.28-8.1-6.06-8.1a5.073,5.073,0,0,0-4.77,2.88h-.12v-2.52h-2.4Zm6.36-7.77c-2.13,0-3.96-1.11-3.96-3.18v-5.58c0-2.07,1.83-3.18,3.96-3.18,2.79,0,4.41,1.86,4.41,4.65v2.64C337.62-3.63,336-1.77,333.21-1.77ZM344.85,6h2.4V-2.52h.12A5.073,5.073,0,0,0,352.14.36c3.78,0,6.06-3.03,6.06-8.1s-2.28-8.1-6.06-8.1a5.073,5.073,0,0,0-4.77,2.88h-.12v-2.52h-2.4Zm6.36-7.77c-2.13,0-3.96-1.11-3.96-3.18v-5.58c0-2.07,1.83-3.18,3.96-3.18,2.79,0,4.41,1.86,4.41,4.65v2.64C355.62-3.63,354-1.77,351.21-1.77ZM369.27.36a6.487,6.487,0,0,0,6.21-3.57l-1.77-1.2a4.7,4.7,0,0,1-4.44,2.7,4.48,4.48,0,0,1-4.74-4.71v-.72h11.46V-8.28c0-4.38-2.7-7.56-6.87-7.56-4.2,0-7.11,3.18-7.11,8.13C362.01-2.82,364.83.36,369.27.36Zm-.15-14.22c2.55,0,4.29,1.86,4.29,4.59v.33h-8.88v-.21A4.527,4.527,0,0,1,369.12-13.86Zm15,18.09h2.01l3.45-8.31h-3.87ZM426.75,0h2.4V-22.2h-2.4v9.24h-.12a5.073,5.073,0,0,0-4.77-2.88c-3.78,0-6.06,3.03-6.06,8.1s2.28,8.1,6.06,8.1a5.073,5.073,0,0,0,4.77-2.88h.12Zm-3.96-1.77c-2.79,0-4.41-1.86-4.41-4.65V-9.06c0-2.79,1.62-4.65,4.41-4.65,2.13,0,3.96,1.11,3.96,3.18v5.58C426.75-2.88,424.92-1.77,422.79-1.77ZM441.96-18.9c1.38,0,1.89-.66,1.89-1.53v-.48c0-.87-.51-1.53-1.89-1.53s-1.89.66-1.89,1.53v.48C440.07-19.56,440.58-18.9,441.96-18.9ZM435.18,0h13.2V-2.04h-5.22V-15.48h-7.98v2.04h5.58v11.4h-5.58Zm24.09.36a6.487,6.487,0,0,0,6.21-3.57l-1.77-1.2a4.7,4.7,0,0,1-4.44,2.7,4.48,4.48,0,0,1-4.74-4.71v-.72h11.46V-8.28c0-4.38-2.7-7.56-6.87-7.56-4.2,0-7.11,3.18-7.11,8.13C452.01-2.82,454.83.36,459.27.36Zm-.15-14.22c2.55,0,4.29,1.86,4.29,4.59v.33h-8.88v-.21A4.527,4.527,0,0,1,459.12-13.86ZM488.49,0h13.14V-2.04h-5.52v-11.4h6.21v-2.04h-6.21v-4.68h6.21V-22.2h-5.19c-2.34,0-3.42,1.47-3.42,3.54v3.18h-5.52v2.04h5.52v11.4h-5.22Zm21.63-18.54c1.23,0,1.71-.6,1.71-1.38v-.42c0-.78-.48-1.38-1.71-1.38s-1.71.6-1.71,1.38v.42C508.41-19.14,508.89-18.54,510.12-18.54Zm5.58,0c1.23,0,1.71-.6,1.71-1.38v-.42c0-.78-.48-1.38-1.71-1.38s-1.71.6-1.71,1.38v.42C513.99-19.14,514.47-18.54,515.7-18.54ZM516.66,0h2.4V-15.48h-2.4V-4.74c0,2.04-1.92,2.97-3.84,2.97-2.37,0-3.66-1.38-3.66-4.2v-9.51h-2.4v9.93c0,3.75,2.13,5.91,5.37,5.91a4.393,4.393,0,0,0,4.41-2.88h.12Zm7.65,0h12.93V-2.04h-6V-8.73c0-2.4,1.59-4.35,4.62-4.35h2.91v-2.4h-2.16a4.97,4.97,0,0,0-5.22,3.9h-.15v-3.9h-6.93v2.04h4.53v11.4h-4.53Zm46.44,0h2.4V-22.2h-2.4v9.24h-.12a5.073,5.073,0,0,0-4.77-2.88c-3.78,0-6.06,3.03-6.06,8.1s2.28,8.1,6.06,8.1a5.073,5.073,0,0,0,4.77-2.88h.12Zm-3.96-1.77c-2.79,0-4.41-1.86-4.41-4.65V-9.06c0-2.79,1.62-4.65,4.41-4.65,2.13,0,3.96,1.11,3.96,3.18v5.58C570.75-2.88,568.92-1.77,566.79-1.77ZM585.27.36a6.487,6.487,0,0,0,6.21-3.57l-1.77-1.2a4.7,4.7,0,0,1-4.44,2.7,4.48,4.48,0,0,1-4.74-4.71v-.72h11.46V-8.28c0-4.38-2.7-7.56-6.87-7.56-4.2,0-7.11,3.18-7.11,8.13C578.01-2.82,580.83.36,585.27.36Zm-.15-14.22c2.55,0,4.29,1.86,4.29,4.59v.33h-8.88v-.21A4.527,4.527,0,0,1,585.12-13.86ZM599.34,0V-10.74c0-2.04,1.92-2.97,3.84-2.97,2.37,0,3.66,1.38,3.66,4.2V0h2.4V-9.93c0-3.75-2.13-5.91-5.37-5.91a4.393,4.393,0,0,0-4.41,2.88h-.12v-2.52h-2.4V0ZM12.75,36h2.4V13.8h-2.4v9.24h-.12a5.073,5.073,0,0,0-4.77-2.88c-3.78,0-6.06,3.03-6.06,8.1s2.28,8.1,6.06,8.1a5.073,5.073,0,0,0,4.77-2.88h.12ZM8.79,34.23c-2.79,0-4.41-1.86-4.41-4.65V26.94c0-2.79,1.62-4.65,4.41-4.65,2.13,0,3.96,1.11,3.96,3.18v5.58C12.75,33.12,10.92,34.23,8.79,34.23ZM27.96,17.1c1.38,0,1.89-.66,1.89-1.53v-.48c0-.87-.51-1.53-1.89-1.53s-1.89.66-1.89,1.53v.48C26.07,16.44,26.58,17.1,27.96,17.1ZM21.18,36h13.2V33.96H29.16V20.52H21.18v2.04h5.58v11.4H21.18Zm31.65,1.77c0-2.52-1.71-4.14-5.7-4.14H43.71c-1.47,0-2.49-.21-2.49-1.14,0-1.05,1.29-1.59,2.22-1.77a7.886,7.886,0,0,0,1.47.12c3.63,0,6.03-2.19,6.03-5.34a5.04,5.04,0,0,0-1.74-3.93V20.52h3.48v-2.1H49.83c-1.35,0-1.86.9-1.86,2.1v.27a6.966,6.966,0,0,0-3.06-.63c-3.63,0-6,2.19-6,5.34a4.982,4.982,0,0,0,3.03,4.74v.12c-1.59.39-2.79,1.11-2.79,2.7a2.2,2.2,0,0,0,1.38,2.13v.36a2.894,2.894,0,0,0-2.52,2.97c0,2.46,2.04,3.84,7.02,3.84C50.19,42.36,52.83,40.89,52.83,37.77Zm-2.25.12c0,1.68-1.65,2.55-4.44,2.55H43.8c-2.52,0-3.51-1.14-3.51-2.49a2.183,2.183,0,0,1,1.56-2.1h5.37C49.71,35.85,50.58,36.66,50.58,37.89Zm-5.67-8.91c-2.37,0-3.48-1.23-3.48-3.06v-.87c0-1.83,1.11-3.03,3.48-3.03,2.4,0,3.51,1.2,3.51,3.03v.87C48.42,27.75,47.31,28.98,44.91,28.98ZM63.96,17.1c1.38,0,1.89-.66,1.89-1.53v-.48c0-.87-.51-1.53-1.89-1.53s-1.89.66-1.89,1.53v.48C62.07,16.44,62.58,17.1,63.96,17.1ZM57.18,36h13.2V33.96H65.16V20.52H57.18v2.04h5.58v11.4H57.18Zm30.6,0V33.96H80.73V22.56h7.05V20.52H80.73V15.06H78.42v4.05c0,1.05-.39,1.41-1.41,1.41H73.17v2.04h5.16v9.9c0,2.07,1.08,3.54,3.42,3.54Zm18.72,0V33.9h-2.16V25.38c0-3.27-2.31-5.22-5.94-5.22-3.15,0-5.13,1.5-5.91,3.12l1.62,1.2a4.371,4.371,0,0,1,4.14-2.28c2.34,0,3.69,1.17,3.69,3.42v1.53h-3.3c-4.65,0-6.66,1.65-6.66,4.5,0,2.91,2.07,4.71,5.31,4.71,2.52,0,3.99-1.11,4.65-2.88h.15A2.528,2.528,0,0,0,104.85,36Zm-8.79-1.65c-1.98,0-3.21-.84-3.21-2.43v-.63c0-1.5,1.29-2.34,4.14-2.34h3.3V31.5C101.94,33.09,100.17,34.35,97.71,34.35ZM110.4,36h13.2V33.96h-5.4V13.8h-7.8v2.04h5.4V33.96h-5.4Zm24.87.36a6.487,6.487,0,0,0,6.21-3.57l-1.77-1.2a4.7,4.7,0,0,1-4.44,2.7,4.48,4.48,0,0,1-4.74-4.71v-.72h11.46V27.72c0-4.38-2.7-7.56-6.87-7.56-4.2,0-7.11,3.18-7.11,8.13C128.01,33.18,130.83,36.36,135.27,36.36Zm-.15-14.22c2.55,0,4.29,1.86,4.29,4.59v.33h-8.88v-.21A4.527,4.527,0,0,1,135.12,22.14ZM149.34,36V25.26c0-2.04,1.92-2.97,3.84-2.97,2.37,0,3.66,1.38,3.66,4.2V36h2.4V26.07c0-3.75-2.13-5.91-5.37-5.91a4.393,4.393,0,0,0-4.41,2.88h-.12V20.52h-2.4V36Zm35.88-8.94h3.33l5.1,8.94h2.82l-5.34-9.06c3.33-.33,5.16-2.49,5.16-5.85,0-3.78-2.1-6.03-5.97-6.03H182.7V36h2.52Zm0-2.13V17.25h5.04c2.1,0,3.36,1.11,3.36,3.06v1.56c0,1.95-1.26,3.06-3.36,3.06ZM214.5,36V33.9h-2.16V25.38c0-3.27-2.31-5.22-5.94-5.22-3.15,0-5.13,1.5-5.91,3.12l1.62,1.2a4.371,4.371,0,0,1,4.14-2.28c2.34,0,3.69,1.17,3.69,3.42v1.53h-3.3c-4.65,0-6.66,1.65-6.66,4.5,0,2.91,2.07,4.71,5.31,4.71,2.52,0,3.99-1.11,4.65-2.88h.15A2.528,2.528,0,0,0,212.85,36Zm-8.79-1.65c-1.98,0-3.21-.84-3.21-2.43v-.63c0-1.5,1.29-2.34,4.14-2.34h3.3V31.5C209.94,33.09,208.17,34.35,205.71,34.35ZM228.66,36h2.4V20.52h-2.4V31.26c0,2.04-1.92,2.97-3.84,2.97-2.37,0-3.66-1.38-3.66-4.2V20.52h-2.4v9.93c0,3.75,2.13,5.91,5.37,5.91a4.393,4.393,0,0,0,4.41-2.88h.12Zm9.18,0V24.63c0-1.65.9-2.49,2.19-2.49,1.41,0,1.86.87,1.86,3.51V36h2.22V24.63c0-1.65.9-2.49,2.16-2.49,1.44,0,1.89.87,1.89,3.51V36h2.22V25.26c0-3.27-.66-5.1-3.18-5.1a3.4,3.4,0,0,0-3.36,2.43h-.09a2.565,2.565,0,0,0-2.82-2.43,2.964,2.964,0,0,0-2.97,2.16h-.12v-1.8h-2.22V36Zm48.99,1.77c0-2.52-1.71-4.14-5.7-4.14h-3.42c-1.47,0-2.49-.21-2.49-1.14,0-1.05,1.29-1.59,2.22-1.77a7.886,7.886,0,0,0,1.47.12c3.63,0,6.03-2.19,6.03-5.34a5.04,5.04,0,0,0-1.74-3.93V20.52h3.48v-2.1h-2.85c-1.35,0-1.86.9-1.86,2.1v.27a6.966,6.966,0,0,0-3.06-.63c-3.63,0-6,2.19-6,5.34a4.982,4.982,0,0,0,3.03,4.74v.12c-1.59.39-2.79,1.11-2.79,2.7a2.2,2.2,0,0,0,1.38,2.13v.36a2.894,2.894,0,0,0-2.52,2.97c0,2.46,2.04,3.84,7.02,3.84C284.19,42.36,286.83,40.89,286.83,37.77Zm-2.25.12c0,1.68-1.65,2.55-4.44,2.55H277.8c-2.52,0-3.51-1.14-3.51-2.49a2.183,2.183,0,0,1,1.56-2.1h5.37C283.71,35.85,284.58,36.66,284.58,37.89Zm-5.67-8.91c-2.37,0-3.48-1.23-3.48-3.06v-.87c0-1.83,1.11-3.03,3.48-3.03,2.4,0,3.51,1.2,3.51,3.03v.87C282.42,27.75,281.31,28.98,278.91,28.98Zm18.36,7.38a6.487,6.487,0,0,0,6.21-3.57l-1.77-1.2a4.7,4.7,0,0,1-4.44,2.7,4.48,4.48,0,0,1-4.74-4.71v-.72h11.46V27.72c0-4.38-2.7-7.56-6.87-7.56-4.2,0-7.11,3.18-7.11,8.13C290.01,33.18,292.83,36.36,297.27,36.36Zm-.15-14.22c2.55,0,4.29,1.86,4.29,4.59v.33h-8.88v-.21A4.527,4.527,0,0,1,297.12,22.14Zm18.06,14.22c3.96,0,6.54-1.77,6.54-4.83,0-3.36-3.09-3.96-5.31-4.29l-2.43-.36c-1.38-.21-2.73-.63-2.73-2.25,0-1.59,1.35-2.46,3.78-2.46a5.837,5.837,0,0,1,4.83,1.95l1.56-1.47a8.226,8.226,0,0,0-6.3-2.49c-3.6,0-6.24,1.53-6.24,4.62,0,3.36,3.12,3.96,5.31,4.29l2.43.36c1.41.21,2.73.63,2.73,2.25,0,1.83-1.71,2.67-4.11,2.67a7.161,7.161,0,0,1-5.61-2.43l-1.62,1.41A9.109,9.109,0,0,0,315.18,36.36Zm24.6-.36V33.96h-7.05V22.56h7.05V20.52h-7.05V15.06h-2.31v4.05c0,1.05-.39,1.41-1.41,1.41h-3.84v2.04h5.16v9.9c0,2.07,1.08,3.54,3.42,3.54Zm18.72,0V33.9h-2.16V25.38c0-3.27-2.31-5.22-5.94-5.22-3.15,0-5.13,1.5-5.91,3.12l1.62,1.2a4.371,4.371,0,0,1,4.14-2.28c2.34,0,3.69,1.17,3.69,3.42v1.53h-3.3c-4.65,0-6.66,1.65-6.66,4.5,0,2.91,2.07,4.71,5.31,4.71,2.52,0,3.99-1.11,4.65-2.88h.15A2.528,2.528,0,0,0,356.85,36Zm-8.79-1.65c-1.98,0-3.21-.84-3.21-2.43v-.63c0-1.5,1.29-2.34,4.14-2.34h3.3V31.5C353.94,33.09,352.17,34.35,349.71,34.35ZM362.4,36h13.2V33.96h-5.4V13.8h-7.8v2.04h5.4V33.96h-5.4Zm31.38,0V33.96h-7.05V22.56h7.05V20.52h-7.05V15.06h-2.31v4.05c0,1.05-.39,1.41-1.41,1.41h-3.84v2.04h5.16v9.9c0,2.07,1.08,3.54,3.42,3.54Zm11.49.36a6.487,6.487,0,0,0,6.21-3.57l-1.77-1.2a4.7,4.7,0,0,1-4.44,2.7,4.48,4.48,0,0,1-4.74-4.71v-.72h11.46V27.72c0-4.38-2.7-7.56-6.87-7.56-4.2,0-7.11,3.18-7.11,8.13C398.01,33.18,400.83,36.36,405.27,36.36Zm-.15-14.22c2.55,0,4.29,1.86,4.29,4.59v.33h-8.88v-.21A4.527,4.527,0,0,1,405.12,22.14ZM429.78,36V33.96h-7.05V22.56h7.05V20.52h-7.05V15.06h-2.31v4.05c0,1.05-.39,1.41-1.41,1.41h-3.84v2.04h5.16v9.9c0,2.07,1.08,3.54,3.42,3.54Zm11.49.36a6.487,6.487,0,0,0,6.21-3.57l-1.77-1.2a4.7,4.7,0,0,1-4.44,2.7,4.48,4.48,0,0,1-4.74-4.71v-.72h11.46V27.72c0-4.38-2.7-7.56-6.87-7.56-4.2,0-7.11,3.18-7.11,8.13C434.01,33.18,436.83,36.36,441.27,36.36Zm-.15-14.22c2.55,0,4.29,1.86,4.29,4.59v.33h-8.88v-.21A4.527,4.527,0,0,1,441.12,22.14ZM471.27,36h3.12l2.52-12.96h.24L479.61,36h3.12l2.37-15.48h-2.07L481.26,33.9h-.27l-2.64-13.38h-2.64L473.07,33.9h-.27l-1.77-13.38H468.9Zm27.39,0h2.4V20.52h-2.4V31.26c0,2.04-1.92,2.97-3.84,2.97-2.37,0-3.66-1.38-3.66-4.2V20.52h-2.4v9.93c0,3.75,2.13,5.91,5.37,5.91a4.393,4.393,0,0,0,4.41-2.88h.12Zm7.65,0h12.93V33.96h-6V27.27c0-2.4,1.59-4.35,4.62-4.35h2.91v-2.4h-2.16a4.97,4.97,0,0,0-5.22,3.9h-.15v-3.9h-6.93v2.04h4.53v11.4h-4.53Zm28.44,0h2.4V13.8h-2.4v9.24h-.12a5.073,5.073,0,0,0-4.77-2.88c-3.78,0-6.06,3.03-6.06,8.1s2.28,8.1,6.06,8.1a5.073,5.073,0,0,0,4.77-2.88h.12Zm-3.96-1.77c-2.79,0-4.41-1.86-4.41-4.65V26.94c0-2.79,1.62-4.65,4.41-4.65,2.13,0,3.96,1.11,3.96,3.18v5.58C534.75,33.12,532.92,34.23,530.79,34.23Zm18.48,2.13a6.487,6.487,0,0,0,6.21-3.57l-1.77-1.2a4.7,4.7,0,0,1-4.44,2.7,4.48,4.48,0,0,1-4.74-4.71v-.72h11.46V27.72c0-4.38-2.7-7.56-6.87-7.56-4.2,0-7.11,3.18-7.11,8.13C542.01,33.18,544.83,36.36,549.27,36.36Zm-.15-14.22c2.55,0,4.29,1.86,4.29,4.59v.33h-8.88v-.21A4.527,4.527,0,0,1,549.12,22.14ZM567,36.27c1.62,0,2.22-.78,2.22-1.8v-.54c0-1.02-.6-1.8-2.22-1.8s-2.22.78-2.22,1.8v.54C564.78,35.49,565.38,36.27,567,36.27ZM8.94,72.36c4.65,0,7.32-2.34,7.32-6.21,0-2.73-1.35-5.01-5.46-5.73l-2.25-.39c-2.97-.51-3.93-1.71-3.93-3.57,0-2.37,1.59-3.6,4.41-3.6a6.081,6.081,0,0,1,5.28,2.58l1.77-1.53c-1.41-2.01-3.69-3.21-7.02-3.21-4.26,0-6.99,1.98-6.99,5.82,0,2.64,1.29,5.01,5.4,5.7l2.34.39c2.85.48,3.9,1.56,3.9,3.6,0,2.52-1.65,3.99-4.68,3.99a6.917,6.917,0,0,1-5.85-3.03l-1.83,1.5A8.671,8.671,0,0,0,8.94,72.36ZM27.96,53.1c1.38,0,1.89-.66,1.89-1.53v-.48c0-.87-.51-1.53-1.89-1.53s-1.89.66-1.89,1.53v.48C26.07,52.44,26.58,53.1,27.96,53.1ZM21.18,72h13.2V69.96H29.16V56.52H21.18v2.04h5.58v11.4H21.18Zm24.09.36a6.487,6.487,0,0,0,6.21-3.57l-1.77-1.2a4.7,4.7,0,0,1-4.44,2.7,4.48,4.48,0,0,1-4.74-4.71v-.72H51.99V63.72c0-4.38-2.7-7.56-6.87-7.56-4.2,0-7.11,3.18-7.11,8.13C38.01,69.18,40.83,72.36,45.27,72.36Zm-.15-14.22c2.55,0,4.29,1.86,4.29,4.59v.33H40.53v-.21A4.527,4.527,0,0,1,45.12,58.14ZM74.85,72h2.4V69.48h.12a5.073,5.073,0,0,0,4.77,2.88c3.78,0,6.06-3.03,6.06-8.1s-2.28-8.1-6.06-8.1a5.073,5.073,0,0,0-4.77,2.88h-.12V49.8h-2.4Zm6.36-1.77c-2.13,0-3.96-1.11-3.96-3.18V61.47c0-2.07,1.83-3.18,3.96-3.18,2.79,0,4.41,1.86,4.41,4.65v2.64C85.62,68.37,84,70.23,81.21,70.23Zm18.06,2.13a6.487,6.487,0,0,0,6.21-3.57l-1.77-1.2a4.7,4.7,0,0,1-4.44,2.7,4.48,4.48,0,0,1-4.74-4.71v-.72h11.46V63.72c0-4.38-2.7-7.56-6.87-7.56-4.2,0-7.11,3.18-7.11,8.13C92.01,69.18,94.83,72.36,99.27,72.36Zm-.15-14.22c2.55,0,4.29,1.86,4.29,4.59v.33H94.53v-.21A4.527,4.527,0,0,1,99.12,58.14Zm18.84-5.04c1.38,0,1.89-.66,1.89-1.53v-.48c0-.87-.51-1.53-1.89-1.53s-1.89.66-1.89,1.53v.48C116.07,52.44,116.58,53.1,117.96,53.1ZM111.18,72h13.2V69.96h-5.22V56.52h-7.98v2.04h5.58v11.4h-5.58Zm20.16,0V61.26c0-2.04,1.92-2.97,3.84-2.97,2.37,0,3.66,1.38,3.66,4.2V72h2.4V62.07c0-3.75-2.13-5.91-5.37-5.91a4.393,4.393,0,0,0-4.41,2.88h-.12V56.52h-2.4V72Zm15.6,0h2.4V61.26c0-2.04,1.92-2.97,3.84-2.97,2.37,0,3.66,1.38,3.66,4.2V72h2.4V62.07c0-3.75-2.13-5.91-5.37-5.91a4.393,4.393,0,0,0-4.41,2.88h-.12V49.8h-2.4Zm31.56,0V69.9h-2.16V61.38c0-3.27-2.31-5.22-5.94-5.22-3.15,0-5.13,1.5-5.91,3.12l1.62,1.2a4.371,4.371,0,0,1,4.14-2.28c2.34,0,3.69,1.17,3.69,3.42v1.53h-3.3c-4.65,0-6.66,1.65-6.66,4.5,0,2.91,2.07,4.71,5.31,4.71,2.52,0,3.99-1.11,4.65-2.88h.15A2.528,2.528,0,0,0,176.85,72Zm-8.79-1.65c-1.98,0-3.21-.84-3.21-2.43v-.63c0-1.5,1.29-2.34,4.14-2.34h3.3V67.5C173.94,69.09,172.17,70.35,169.71,70.35ZM182.4,72h13.2V69.96h-5.4V49.8h-7.8v2.04h5.4V69.96h-5.4Zm31.38,0V69.96h-7.05V58.56h7.05V56.52h-7.05V51.06h-2.31v4.05c0,1.05-.39,1.41-1.41,1.41h-3.84v2.04h5.16v9.9c0,2.07,1.08,3.54,3.42,3.54Zm11.49.36a6.487,6.487,0,0,0,6.21-3.57l-1.77-1.2a4.7,4.7,0,0,1-4.44,2.7,4.48,4.48,0,0,1-4.74-4.71v-.72h11.46V63.72c0-4.38-2.7-7.56-6.87-7.56-4.2,0-7.11,3.18-7.11,8.13C218.01,69.18,220.83,72.36,225.27,72.36Zm-.15-14.22c2.55,0,4.29,1.86,4.29,4.59v.33h-8.88v-.21A4.527,4.527,0,0,1,225.12,58.14ZM249.78,72V69.96h-7.05V58.56h7.05V56.52h-7.05V51.06h-2.31v4.05c0,1.05-.39,1.41-1.41,1.41h-3.84v2.04h5.16v9.9c0,2.07,1.08,3.54,3.42,3.54Zm24.06,0V60.63c0-1.65.9-2.49,2.19-2.49,1.41,0,1.86.87,1.86,3.51V72h2.22V60.63c0-1.65.9-2.49,2.16-2.49,1.44,0,1.89.87,1.89,3.51V72h2.22V61.26c0-3.27-.66-5.1-3.18-5.1a3.4,3.4,0,0,0-3.36,2.43h-.09a2.565,2.565,0,0,0-2.82-2.43,2.964,2.964,0,0,0-2.97,2.16h-.12v-1.8h-2.22V72Zm23.16.36c4.35,0,7.02-3.18,7.02-8.1s-2.67-8.1-7.02-8.1-7.02,3.18-7.02,8.1S292.65,72.36,297,72.36Zm0-2.07c-2.67,0-4.47-1.59-4.47-4.92V63.15c0-3.33,1.8-4.92,4.47-4.92s4.47,1.59,4.47,4.92v2.22C301.47,68.7,299.67,70.29,297,70.29ZM311.34,72V61.26c0-2.04,1.92-2.97,3.84-2.97,2.37,0,3.66,1.38,3.66,4.2V72h2.4V62.07c0-3.75-2.13-5.91-5.37-5.91a4.393,4.393,0,0,0-4.41,2.88h-.12V56.52h-2.4V72Zm21.66.36c4.35,0,7.02-3.18,7.02-8.1s-2.67-8.1-7.02-8.1-7.02,3.18-7.02,8.1S328.65,72.36,333,72.36Zm0-2.07c-2.67,0-4.47-1.59-4.47-4.92V63.15c0-3.33,1.8-4.92,4.47-4.92s4.47,1.59,4.47,4.92v2.22C337.47,68.7,335.67,70.29,333,70.29Zm22.35-6.15V61.62h-8.7v2.52Zm10.77,12.09h2.01l3.45-8.31h-3.87Zm39.06-3.87c3.96,0,6.54-1.77,6.54-4.83,0-3.36-3.09-3.96-5.31-4.29l-2.43-.36c-1.38-.21-2.73-.63-2.73-2.25,0-1.59,1.35-2.46,3.78-2.46a5.837,5.837,0,0,1,4.83,1.95l1.56-1.47a8.226,8.226,0,0,0-6.3-2.49c-3.6,0-6.24,1.53-6.24,4.62,0,3.36,3.12,3.96,5.31,4.29l2.43.36c1.41.21,2.73.63,2.73,2.25,0,1.83-1.71,2.67-4.11,2.67a7.161,7.161,0,0,1-5.61-2.43l-1.62,1.41A9.109,9.109,0,0,0,405.18,72.36ZM430.5,72V69.9h-2.16V61.38c0-3.27-2.31-5.22-5.94-5.22-3.15,0-5.13,1.5-5.91,3.12l1.62,1.2a4.371,4.371,0,0,1,4.14-2.28c2.34,0,3.69,1.17,3.69,3.42v1.53h-3.3c-4.65,0-6.66,1.65-6.66,4.5,0,2.91,2.07,4.71,5.31,4.71,2.52,0,3.99-1.11,4.65-2.88h.15A2.528,2.528,0,0,0,428.85,72Zm-8.79-1.65c-1.98,0-3.21-.84-3.21-2.43v-.63c0-1.5,1.29-2.34,4.14-2.34h3.3V67.5C425.94,69.09,424.17,70.35,421.71,70.35ZM437.34,72V61.26c0-2.04,1.92-2.97,3.84-2.97,2.37,0,3.66,1.38,3.66,4.2V72h2.4V62.07c0-3.75-2.13-5.91-5.37-5.91a4.393,4.393,0,0,0-4.41,2.88h-.12V56.52h-2.4V72Zm21.84.36c3.96,0,6.54-1.77,6.54-4.83,0-3.36-3.09-3.96-5.31-4.29l-2.43-.36c-1.38-.21-2.73-.63-2.73-2.25,0-1.59,1.35-2.46,3.78-2.46a5.837,5.837,0,0,1,4.83,1.95l1.56-1.47a8.226,8.226,0,0,0-6.3-2.49c-3.6,0-6.24,1.53-6.24,4.62,0,3.36,3.12,3.96,5.31,4.29l2.43.36c1.41.21,2.73.63,2.73,2.25,0,1.83-1.71,2.67-4.11,2.67a7.161,7.161,0,0,1-5.61-2.43l-1.62,1.41A9.109,9.109,0,0,0,459.18,72.36Zm22.17-8.22V61.62h-8.7v2.52ZM516.66,72h2.4V56.52h-2.4V67.26c0,2.04-1.92,2.97-3.84,2.97-2.37,0-3.66-1.38-3.66-4.2V56.52h-2.4v9.93c0,3.75,2.13,5.91,5.37,5.91a4.393,4.393,0,0,0,4.41-2.88h.12Zm10.68,0V61.26c0-2.04,1.92-2.97,3.84-2.97,2.37,0,3.66,1.38,3.66,4.2V72h2.4V62.07c0-3.75-2.13-5.91-5.37-5.91a4.393,4.393,0,0,0-4.41,2.88h-.12V56.52h-2.4V72Zm25.41,0h2.4V49.8h-2.4v9.24h-.12a5.073,5.073,0,0,0-4.77-2.88c-3.78,0-6.06,3.03-6.06,8.1s2.28,8.1,6.06,8.1a5.073,5.073,0,0,0,4.77-2.88h.12Zm-3.96-1.77c-2.79,0-4.41-1.86-4.41-4.65V62.94c0-2.79,1.62-4.65,4.41-4.65,2.13,0,3.96,1.11,3.96,3.18v5.58C552.75,69.12,550.92,70.23,548.79,70.23ZM9.18,108.36c3.96,0,6.54-1.77,6.54-4.83,0-3.36-3.09-3.96-5.31-4.29l-2.43-.36c-1.38-.21-2.73-.63-2.73-2.25,0-1.59,1.35-2.46,3.78-2.46a5.837,5.837,0,0,1,4.83,1.95l1.56-1.47a8.226,8.226,0,0,0-6.3-2.49c-3.6,0-6.24,1.53-6.24,4.62,0,3.36,3.12,3.96,5.31,4.29l2.43.36c1.41.21,2.73.63,2.73,2.25,0,1.83-1.71,2.67-4.11,2.67a7.161,7.161,0,0,1-5.61-2.43l-1.62,1.41A9.109,9.109,0,0,0,9.18,108.36Zm18.09,0a6.487,6.487,0,0,0,6.21-3.57l-1.77-1.2a4.7,4.7,0,0,1-4.44,2.7,4.48,4.48,0,0,1-4.74-4.71v-.72H33.99V99.72c0-4.38-2.7-7.56-6.87-7.56-4.2,0-7.11,3.18-7.11,8.13C20.01,105.18,22.83,108.36,27.27,108.36Zm-.15-14.22c2.55,0,4.29,1.86,4.29,4.59v.33H22.53v-.21A4.527,4.527,0,0,1,27.12,94.14ZM38.31,108H51.24v-2.04h-6V99.27c0-2.4,1.59-4.35,4.62-4.35h2.91v-2.4H50.61a4.97,4.97,0,0,0-5.22,3.9h-.15v-3.9H38.31v2.04h4.53v11.4H38.31ZM63.96,89.1c1.38,0,1.89-.66,1.89-1.53v-.48c0-.87-.51-1.53-1.89-1.53s-1.89.66-1.89,1.53v.48C62.07,88.44,62.58,89.1,63.96,89.1ZM57.18,108h13.2v-2.04H65.16V92.52H57.18v2.04h5.58v11.4H57.18Zm17.31,0H87.63v-2.04H82.11V94.56h6.21V92.52H82.11V87.84h6.21V85.8H83.13c-2.34,0-3.42,1.47-3.42,3.54v3.18H74.19v2.04h5.52v11.4H74.49Zm24.78.36a6.487,6.487,0,0,0,6.21-3.57l-1.77-1.2a4.7,4.7,0,0,1-4.44,2.7,4.48,4.48,0,0,1-4.74-4.71v-.72h11.46V99.72c0-4.38-2.7-7.56-6.87-7.56-4.2,0-7.11,3.18-7.11,8.13C92.01,105.18,94.83,108.36,99.27,108.36Zm-.15-14.22c2.55,0,4.29,1.86,4.29,4.59v.33H94.53v-.21A4.527,4.527,0,0,1,99.12,94.14ZM113.34,108V97.26c0-2.04,1.92-2.97,3.84-2.97,2.37,0,3.66,1.38,3.66,4.2V108h2.4V98.07c0-3.75-2.13-5.91-5.37-5.91a4.393,4.393,0,0,0-4.41,2.88h-.12V92.52h-2.4V108Zm26.01-7.86V97.62h-8.7v2.52Zm31.59,8.22c4.65,0,7.32-2.34,7.32-6.21,0-2.73-1.35-5.01-5.46-5.73l-2.25-.39c-2.97-.51-3.93-1.71-3.93-3.57,0-2.37,1.59-3.6,4.41-3.6a6.081,6.081,0,0,1,5.28,2.58l1.77-1.53c-1.41-2.01-3.69-3.21-7.02-3.21-4.26,0-6.99,1.98-6.99,5.82,0,2.64,1.29,5.01,5.4,5.7l2.34.39c2.85.48,3.9,1.56,3.9,3.6,0,2.52-1.65,3.99-4.68,3.99a6.917,6.917,0,0,1-5.85-3.03l-1.83,1.5A8.671,8.671,0,0,0,170.94,108.36Zm18.6,0a6.046,6.046,0,0,0,5.94-3.6l-1.71-1.17a4.33,4.33,0,0,1-4.2,2.7c-2.91,0-4.47-1.98-4.47-4.71V98.94c0-2.73,1.59-4.71,4.41-4.71a3.743,3.743,0,0,1,3.81,2.52l1.92-1.02a5.743,5.743,0,0,0-5.73-3.57c-4.38,0-6.99,3.18-6.99,8.1C182.52,105.15,185.1,108.36,189.54,108.36Zm11.4-.36h2.4V97.26c0-2.04,1.92-2.97,3.84-2.97,2.37,0,3.66,1.38,3.66,4.2V108h2.4V98.07c0-3.75-2.13-5.91-5.37-5.91a4.393,4.393,0,0,0-4.41,2.88h-.12V85.8h-2.4Zm17.37,0h12.93v-2.04h-6V99.27c0-2.4,1.59-4.35,4.62-4.35h2.91v-2.4h-2.16a4.97,4.97,0,0,0-5.22,3.9h-.15v-3.9h-6.93v2.04h4.53v11.4h-4.53Zm25.65-18.9c1.38,0,1.89-.66,1.89-1.53v-.48c0-.87-.51-1.53-1.89-1.53s-1.89.66-1.89,1.53v.48C242.07,88.44,242.58,89.1,243.96,89.1ZM237.18,108h13.2v-2.04h-5.22V92.52h-7.98v2.04h5.58v11.4h-5.58Zm17.31,0h13.14v-2.04h-5.52V94.56h6.21V92.52h-6.21V87.84h6.21V85.8h-5.19c-2.34,0-3.42,1.47-3.42,3.54v3.18h-5.52v2.04h5.52v11.4h-5.22Zm31.29,0v-2.04h-7.05V94.56h7.05V92.52h-7.05V87.06h-2.31v4.05c0,1.05-.39,1.41-1.41,1.41h-3.84v2.04h5.16v9.9c0,2.07,1.08,3.54,3.42,3.54Zm11.4.36c3.96,0,6.54-1.77,6.54-4.83,0-3.36-3.09-3.96-5.31-4.29l-2.43-.36c-1.38-.21-2.73-.63-2.73-2.25,0-1.59,1.35-2.46,3.78-2.46a5.837,5.837,0,0,1,4.83,1.95l1.56-1.47a8.226,8.226,0,0,0-6.3-2.49c-3.6,0-6.24,1.53-6.24,4.62,0,3.36,3.12,3.96,5.31,4.29l2.43.36c1.41.21,2.73.63,2.73,2.25,0,1.83-1.71,2.67-4.11,2.67a7.161,7.161,0,0,1-5.61-2.43l-1.62,1.41A9.109,9.109,0,0,0,297.18,108.36Zm18.36,0a6.046,6.046,0,0,0,5.94-3.6l-1.71-1.17a4.33,4.33,0,0,1-4.2,2.7c-2.91,0-4.47-1.98-4.47-4.71V98.94c0-2.73,1.59-4.71,4.41-4.71a3.743,3.743,0,0,1,3.81,2.52l1.92-1.02a5.743,5.743,0,0,0-5.73-3.57c-4.38,0-6.99,3.18-6.99,8.1C308.52,105.15,311.1,108.36,315.54,108.36Zm11.4-.36h2.4V97.26c0-2.04,1.92-2.97,3.84-2.97,2.37,0,3.66,1.38,3.66,4.2V108h2.4V98.07c0-3.75-2.13-5.91-5.37-5.91a4.393,4.393,0,0,0-4.41,2.88h-.12V85.8h-2.4Zm20.4,0V97.26c0-2.04,1.92-2.97,3.84-2.97,2.37,0,3.66,1.38,3.66,4.2V108h2.4V98.07c0-3.75-2.13-5.91-5.37-5.91a4.393,4.393,0,0,0-4.41,2.88h-.12V92.52h-2.4V108Zm22.62-18.9c1.38,0,1.89-.66,1.89-1.53v-.48c0-.87-.51-1.53-1.89-1.53s-1.89.66-1.89,1.53v.48C368.07,88.44,368.58,89.1,369.96,89.1ZM363.18,108h13.2v-2.04h-5.22V92.52h-7.98v2.04h5.58v11.4h-5.58Zm30.6,0v-2.04h-7.05V94.56h7.05V92.52h-7.05V87.06h-2.31v4.05c0,1.05-.39,1.41-1.41,1.41h-3.84v2.04h5.16v9.9c0,2.07,1.08,3.54,3.42,3.54Zm18,0v-2.04h-7.05V94.56h7.05V92.52h-7.05V87.06h-2.31v4.05c0,1.05-.39,1.41-1.41,1.41h-3.84v2.04h5.16v9.9c0,2.07,1.08,3.54,3.42,3.54Zm11.49.36a6.487,6.487,0,0,0,6.21-3.57l-1.77-1.2a4.7,4.7,0,0,1-4.44,2.7,4.48,4.48,0,0,1-4.74-4.71v-.72h11.46V99.72c0-4.38-2.7-7.56-6.87-7.56-4.2,0-7.11,3.18-7.11,8.13C416.01,105.18,418.83,108.36,423.27,108.36Zm-.15-14.22c2.55,0,4.29,1.86,4.29,4.59v.33h-8.88v-.21A4.527,4.527,0,0,1,423.12,94.14Z" transform="translate(237.082 374.949)"/>
      <path id="Pfad_3186" data-name="Pfad 3186" d="M4.158,0h14.2c9.99,0,16.578-6.318,16.578-18.846S28.35-37.692,18.36-37.692H4.158Zm8.208-7.29V-30.4H18.36c4.86,0,7.884,2.646,7.884,8.64v5.832c0,5.994-3.024,8.64-7.884,8.64ZM45.36-31.374c3.24,0,4.644-1.674,4.644-3.942V-36.5c0-2.268-1.4-3.942-4.644-3.942s-4.644,1.674-4.644,3.942v1.188C40.716-33.048,42.12-31.374,45.36-31.374ZM41.364,0h7.992V-28.35H41.364Zm27.27.648c5.184,0,9.342-1.782,11.88-4.7l-4-4.968c-1.782,1.836-3.618,3.4-6.966,3.4-4.266,0-6.264-2.376-6.264-6.1v-.432h18.2v-2.376C81.486-22.194,77.706-29,68.31-29c-8.532,0-13.284,5.832-13.284,14.8C55.026-5.13,59.94.648,68.634.648Zm-.162-23.76c3.186,0,4.752,2.322,4.752,5.778v.486H63.288v-.432C63.288-20.79,65.286-23.112,68.472-23.112ZM116.8,0V-6.534h-4.86V-31.158h4.86v-6.534H98.874v6.534h4.86V-6.534h-4.86V0Zm6.858,0h19.98c5.562,0,9.72-4.806,9.72-10.746,0-6.48-4.914-8.856-8.478-8.856v-.324c3.834-.162,7.02-2.322,7.02-8.1,0-5.832-3.726-9.666-9.936-9.666H123.66Zm8.208-15.552h9.45a3.18,3.18,0,0,1,3.51,3.4v1.836a3.18,3.18,0,0,1-3.51,3.4h-9.45Zm0-15.228h8.154a3.179,3.179,0,0,1,3.456,3.456v1.62a3.179,3.179,0,0,1-3.456,3.456h-8.154Zm56,30.78h7.722V-37.692H186.84l-9.126,17.658h-.108l-9.234-17.658h-8.694V0H167.4V-25.11h.162l2.862,5.94,7.182,13.284,7.344-13.338,2.754-5.508h.162Zm36.99,0V-13.608h9.612c7.02,0,11.448-4.914,11.448-12.042s-4.428-12.042-11.448-12.042h-17.82V0Zm0-30.564h8.64c2.43,0,3.942,1.3,3.942,3.726v2.376c0,2.43-1.512,3.726-3.942,3.726h-8.64ZM263.2,0V-6.21h-3.564V-39.96H251.64V-7.776c0,5.022,2.484,7.776,7.938,7.776Zm16.632.648c5.184,0,9.342-1.782,11.88-4.7l-4-4.968c-1.782,1.836-3.618,3.4-6.966,3.4-4.266,0-6.264-2.376-6.264-6.1v-.432h18.2v-2.376C292.68-22.194,288.9-29,279.5-29c-8.532,0-13.284,5.832-13.284,14.8C266.22-5.13,271.134.648,279.828.648Zm-.162-23.76c3.186,0,4.752,2.322,4.752,5.778v.486h-9.936v-.432C274.482-20.79,276.48-23.112,279.666-23.112ZM303.048,0l5.238-9.234h.216L313.956,0h9.072l-9.45-14.148,9.4-14.2H314.55l-5.13,8.91H309.2l-5.292-8.91H294.84l9.234,13.932L294.732,0Z" transform="translate(235.082 296)"/>
    </g>
  </g>
</svg>
